<?xml version="1.0" encoding="utf-8"?>
<!-- Generator: Adobe Illustrator 15.1.0, SVG Export Plug-In  -->
<!DOCTYPE svg PUBLIC "-//W3C//DTD SVG 1.1//EN" "http://www.w3.org/Graphics/SVG/1.1/DTD/svg11.dtd" [
	<!ENTITY ns_flows "http://ns.adobe.com/Flows/1.0/">
]>
<svg version="1.1"
	 xmlns="http://www.w3.org/2000/svg" xmlns:xlink="http://www.w3.org/1999/xlink" xmlns:a="http://ns.adobe.com/AdobeSVGViewerExtensions/3.0/"
	 x="0px" y="0px" width="274px" height="120px" viewBox="-34.824 -38.372 274 120"
	 overflow="visible" enable-background="new -34.824 -38.372 274 120" xml:space="preserve">
<defs>
</defs>
<path d="M51.799,2.8c-9.38,0-16.345,6.215-18.103,14.398c-0.022,0.081-2.697,12.787-11.771,12.787c-4.366,0-8.084-2.778-8.672-9.36
	c-0.462-4.901,1.257-10.536,4.838-10.536c1.854,0,3.043,1.857,3.043,4.574c0,1.326-0.264,2.121,0.067,2.717
	c0.264,0.397,1.77,1.123,3.954,1.123c3.905,0,6.493-3.443,6.428-6.626c0-6.294-6.596-9.276-14.023-9.276
	C7.421,3.066,0,10.951,0,20.625C0,30.634,8.097,38.61,18.091,38.721c4.54,0,8.982-1.603,13.005-5.625
	c1.553-1.554,2.665-3.438,3.524-5.45c2.646,6.594,9.088,11.209,17.179,11.209c10.868,0,18.557-8.02,18.622-18.026
	C70.355,10.889,62.471,2.8,51.799,2.8z M51.799,31.364c-3.845,0-5.499-4.97-5.434-10.536c-0.065-5.7,1.524-10.536,5.434-10.536
	c3.847,0,5.503,4.836,5.567,10.536C57.302,26.658,55.772,31.364,51.799,31.364z"/>
<path d="M104.749,28.051c0,8.018-9.542,10.804-17.097,10.804c-5.896,0-15.573-2.057-15.573-8.616c0-3.248,2.586-5.062,6.426-5.062
	c2.186,0,4.708,0.596,4.972,1.127c0.399,0.597,0.128,1.458,0.128,2.717c0,1.738,1.657,3.074,3.913,3.074
	c2.452,0,3.515-1.194,3.579-2.982c-0.132-3.182-4.572-3.911-9.478-5.499c-4.505-1.592-8.947-4.775-9.011-10.007
	c0-0.069,0-0.138,0-0.203c0-6.892,8.147-10.801,14.909-10.801c7.754,0,15.64,2.717,15.64,8.613c0.071,3.182-2.317,5.238-6.426,5.238
	c-2.321,0-4.505-0.73-4.772-1.192c-0.329-0.531-0.065-1.395-0.065-2.717c0-1.841-1.127-3.315-3.384-3.248
	c-2.05,0.069-3.11,1.857-3.11,3.116c0,3.247,3.911,4.106,8.481,5.435C99.186,19.37,104.749,22.021,104.749,28.051z"/>
<path d="M171.958,34.689c-8.234-6.785-9.212-17.99-2.796-25.668c6.277-7.709,17.501-8.932,25.735-2.143s9.171,18.046,2.897,25.755
	C191.375,40.312,180.343,41.607,171.958,34.689z M176.721,28.914c3.068,2.529,7.241-0.129,11.003-4.586
	c3.574-4.439,5.373-9.226,2.408-11.671c-3.017-2.486-7.321,0.231-10.898,4.672C175.643,21.581,173.757,26.469,176.721,28.914z"/>
<path d="M169.051,36.127c-0.73,2.056-4.5,9.039-11.578,9.039c-5.301,0-9.741-3.844-9.741-10.075V15.785
	c0-6.626-6.23-4.309-6.23,3.514v1.192c0,1.326,0.462,11.464,0.462,12.192c0,4.773-4.506,5.966-7.026,6.032h-0.062
	c-2.522-0.066-6.959-1.259-6.959-6.032c0-0.529,0.197-10.667,0.197-12.192c0.07-1.59,0-3.249,0-4.707
	c0-6.626-6.229-4.309-6.229,3.514c0,2.121,0.328,12.657,0.328,13.384c0,4.773-4.505,5.966-7.02,6.032h-0.068
	c-2.517-0.066-6.959-1.259-6.959-6.032c0-0.264,0-1.056,0.066-2.052c0.136-4.706,0.266-13.628,0.266-16.213
	c0-10.536-4.371-8.283-3.779-10.072c0.6-2.121,4.412-4.347,8.248-4.347c8.405,0,8.151,8.384,8.151,10.085h0.128
	c2.719-5.369,5.114-9.311,11.107-9.311c5.994,0,7.49,4.672,8.683,9.311h0.198c2.786-5.432,4.688-9.311,10.741-9.311
	s9.146,6.197,9.146,12.823v16.789C161.12,40.925,169.716,34.271,169.051,36.127z"/>
</svg>
