<?xml version="1.0" encoding="utf-8"?>
<!-- Generator: Adobe Illustrator 19.0.0, SVG Export Plug-In . SVG Version: 6.00 Build 0)  -->
<svg version="1.1" id="Layer_1" xmlns="http://www.w3.org/2000/svg" xmlns:xlink="http://www.w3.org/1999/xlink" x="0px" y="0px"
	 viewBox="198.2 3.4 348.7 49" style="enable-background:new 198.2 3.4 348.7 49;" xml:space="preserve">
<g>
	<path d="M231.9,36.2c-2.3,1.1-5.7,1.8-5.9,1.8l-2.9,0.6l1.9-2.3c0.1-0.1,2.2-2.7,3.8-4.4c0.5-0.6,4-3.1,8.6-6.3l-8.3-4l-30.9,15
		l30.9,15l30.9-15l-16.2-7.9C238.5,32.1,233,35.7,231.9,36.2z"/>
	<path d="M231.4,35.2c2.2-1,21.9-14.2,21.9-14.2s-1,0.6-0.5,1.1c0.4,0.5,1.2,0.2,2.8-0.9c1.6-1.2,9.7-7.4,9.7-7.4l-0.3-0.8l2.2-1.4
		c0,0,0.5-1.3-0.2-2.3c-1-1.5-2.4-1.3-2.4-1.3s-33.6,22.8-35.1,24.5c-1.6,1.7-3.7,4.4-3.7,4.4S229.2,36.3,231.4,35.2z M254.1,20.5
		l8.9-6l-7.7,6.2C255.3,20.7,255,20.2,254.1,20.5z"/>
</g>
<g>
	<path d="M279.4,51.4V4.2c0-0.6,0.3-0.9,0.9-0.9h14.4c3.7,0,6.9,1.3,9.6,4c2.7,2.7,4,5.9,4,9.7c0,3.8-1.3,7-4,9.6
		c-2.7,2.6-5.9,4-9.7,4h-13.5v20.9c0,0.6-0.3,0.9-0.9,0.9C279.7,52.3,279.4,52,279.4,51.4z M281.2,28.7h13.5c3.3,0,6.1-1.1,8.4-3.4
		c2.3-2.3,3.5-5.1,3.5-8.3c0-3.3-1.2-6.1-3.5-8.4C300.8,6.2,298,5,294.7,5h-13.5V28.7z"/>
	<path d="M349.8,33.8v0.3c-0.1,0.6-0.4,0.8-0.8,0.8h-30.5v0.2c0,4.2,1.5,7.8,4.4,10.8c2.9,3,6.4,4.5,10.5,4.6c2.6,0,4.9-0.6,7.1-1.9
		c2.2-1.3,3.9-3,5.2-5.1c0.3-0.5,0.7-0.5,1.2-0.2c0.5,0.3,0.6,0.7,0.2,1.2c-1.5,2.3-3.5,4.2-5.9,5.6c-2.5,1.4-5.1,2.1-7.9,2.1
		c-4.6,0-8.5-1.7-11.7-5.1c-3.2-3.3-4.9-7.4-5-12.1c0.1-4.8,1.8-8.8,5-12.1c3.2-3.3,7.1-5,11.5-5c4.5,0,8.3,1.5,11.4,4.5
		C347.7,25.6,349.5,29.3,349.8,33.8z M343.1,23.7c-2.8-2.6-6.1-3.9-9.8-3.9c-3.8,0-7,1.3-9.9,3.9c-2.8,2.6-4.5,5.8-4.9,9.6H348
		C347.6,29.4,345.9,26.2,343.1,23.7z"/>
	<path d="M362,52.3c-0.1-0.1-0.2-0.1-0.3-0.1c-0.1,0-0.2-0.1-0.2-0.3c-0.1-0.1-0.1-0.2-0.1-0.3V18.8c0-0.6,0.3-0.8,0.9-0.8
		c0.6,0,0.9,0.3,0.9,0.8v6.3c1.2-2.1,2.9-3.9,5-5.2c2.1-1.3,4.5-2,7.1-2c3.8,0,7,1.4,9.7,4.1c2.7,2.7,4.1,6,4.1,9.8v19.5
		c0,0.6-0.3,0.9-0.9,0.9c-0.6,0-0.9-0.3-0.9-0.9V31.8c0-3.4-1.2-6.2-3.5-8.6c-2.4-2.4-5.2-3.5-8.5-3.5c-3.3,0-6.2,1.2-8.5,3.5
		c-2.4,2.4-3.6,5.2-3.6,8.6v19.5c0,0.6-0.3,0.9-0.8,0.9H362z"/>
	<path d="M434.8,51.4c0,0.6-0.3,0.9-0.9,0.9c-0.2,0-0.4-0.1-0.6-0.3c-0.2-0.2-0.2-0.4-0.2-0.6v-8.5c-1.4,2.8-3.4,5.1-6.1,6.8
		c-2.6,1.7-5.5,2.6-8.7,2.6c-4.6,0-8.6-1.7-11.8-5.1c-3.2-3.4-4.9-7.4-4.9-12.1c0-4.7,1.6-8.7,4.9-12.1c3.2-3.3,7.2-5,11.8-5
		c3.2,0,6.1,0.9,8.7,2.6c2.6,1.7,4.7,4,6.1,6.9V4.3c0-0.2,0.1-0.5,0.3-0.7c0.2-0.2,0.4-0.4,0.6-0.4c0.6,0,0.9,0.4,0.9,1V51.4z
		 M433.1,35.1v-0.6c-0.1-4.1-1.7-7.5-4.5-10.4c-2.9-2.9-6.3-4.3-10.4-4.3s-7.5,1.5-10.4,4.5c-2.9,3-4.4,6.6-4.4,10.9
		c0,4.2,1.5,7.9,4.4,10.9c2.9,3,6.4,4.5,10.5,4.5c4.1,0,7.6-1.5,10.5-4.5C431.6,43,433.1,39.3,433.1,35.1z"/>
	<path d="M476.7,18.9c0-0.6,0.3-0.9,0.9-0.9c0.6,0,0.9,0.3,0.9,0.9v32.5c0,0.6-0.3,0.9-0.9,0.9c-0.6,0-0.9-0.3-0.9-0.9v-8.5
		c-1.4,2.8-3.3,5.1-5.9,6.9c-2.6,1.7-5.4,2.6-8.5,2.6c-4.5,0-8.3-1.7-11.4-5c-3.2-3.4-4.7-7.4-4.7-12.1c0-4.7,1.6-8.8,4.7-12.1
		c3.1-3.4,7-5,11.4-5c3.1,0,5.9,0.9,8.5,2.6c2.6,1.7,4.6,4,5.9,6.9V18.9z M452.1,46c2.8,3,6.2,4.5,10.2,4.5c4,0,7.4-1.5,10.2-4.5
		c2.8-3,4.2-6.6,4.2-10.9c0-4.2-1.4-7.9-4.2-10.8c-2.8-3-6.2-4.5-10.2-4.5c-4,0-7.4,1.5-10.2,4.5c-2.8,3-4.2,6.6-4.2,10.8
		C447.9,39.4,449.3,43,452.1,46z"/>
	<path d="M493.4,52.3c-0.1-0.1-0.2-0.1-0.3-0.1c-0.1,0-0.2-0.1-0.2-0.3c-0.1-0.1-0.1-0.2-0.1-0.3V18.8c0-0.6,0.3-0.8,0.9-0.8
		c0.6,0,0.9,0.3,0.9,0.8v6.3c1.2-2.1,2.9-3.9,5-5.2c2.1-1.3,4.5-2,7.1-2c3.8,0,7,1.4,9.7,4.1c2.7,2.7,4.1,6,4.1,9.8v19.5
		c0,0.6-0.3,0.9-0.9,0.9c-0.6,0-0.9-0.3-0.9-0.9V31.8c0-3.4-1.2-6.2-3.5-8.6c-2.4-2.4-5.2-3.5-8.5-3.5c-3.3,0-6.2,1.2-8.5,3.5
		c-2.4,2.4-3.6,5.2-3.6,8.6v19.5c0,0.6-0.3,0.9-0.8,0.9H493.4z"/>
	<path d="M545.9,18c0.6,0,0.9,0.3,0.9,0.9c0,0.6-0.3,0.9-0.9,0.9h-5.6V47c0,1,0.3,1.8,1,2.5c0.7,0.7,1.4,1.1,2.2,1.1
		c0.8,0,1.2,0.3,1.2,0.9c0,0.6-0.3,0.9-0.9,0.9c-1.4,0-2.7-0.5-3.7-1.6c-1-1-1.6-2.3-1.6-3.7V19.7h-5.9c-0.6,0-0.9-0.3-0.9-0.9
		c0-0.6,0.3-0.9,0.9-0.9h5.9V4.3c0-0.6,0.3-0.9,0.9-0.9c0.6,0,0.9,0.3,0.9,0.9V18H545.9z"/>
</g>
</svg>
