<?xml version="1.0" encoding="utf-8"?>
<!-- Generator: Adobe Illustrator 18.0.0, SVG Export Plug-In . SVG Version: 6.00 Build 0)  -->
<!DOCTYPE svg PUBLIC "-//W3C//DTD SVG 1.1//EN" "http://www.w3.org/Graphics/SVG/1.1/DTD/svg11.dtd">
<svg version="1.1" id="Layer_1" xmlns="http://www.w3.org/2000/svg" xmlns:xlink="http://www.w3.org/1999/xlink" x="0px" y="0px"
	 viewBox="0 0 226.5 143.6" enable-background="new 0 0 226.5 143.6" xml:space="preserve">
<polygon fill="#2B2827" points="194.1,93.8 100.3,139.4 6.5,93.8 100.3,48.2 "/>
<path fill="#FFFFFF" d="M87.8,93.1c0.3-0.3,6.7-8.3,11.5-13.5c4.9-5.2,96.8-67.8,107.3-74.9l0.6-0.4l0.8-0.1c0.3,0,1.4-0.2,2.9,0.1
	c2.1,0.4,5.1,1.6,7.5,5.2c2.9,4.2,1.1,9.4,0.9,10l-0.4,1.1l-5.6,3.6l0.7,2.2l-1.9,1.4c-1,0.8-24.8,19-29.5,22.5
	c-4,2.9-7,4.6-9.8,4.1c-0.9-0.2-1.7-0.6-2.4-1.1c-14.9,9.9-56,37.1-61.6,39.8c-6.9,3.3-17.4,5.4-17.8,5.5l-8.9,1.8L87.8,93.1z"/>
<path fill="#858585" d="M107.4,90c6.6-3.2,66.4-43.1,66.4-43.1s-2.9,2-1.6,3.5c1.3,1.5,3.7,0.7,8.4-2.8c4.8-3.5,29.5-22.4,29.5-22.4
	l-0.8-2.4l6.8-4.4c0,0,1.5-4.1-0.6-7c-3-4.5-7.2-3.9-7.2-3.9s-102,69.4-106.7,74.5C97,87,90.4,95.2,90.4,95.2S100.9,93.1,107.4,90z
	 M176.4,45.1L203.5,27l-23.4,18.8C180.1,45.8,179.1,44.4,176.4,45.1z"/>
</svg>
