<?xml version="1.0" standalone="no"?>
<!DOCTYPE svg PUBLIC "-//W3C//DTD SVG 1.1//EN" "http://www.w3.org/Graphics/SVG/1.1/DTD/svg11.dtd" >
<svg xmlns="http://www.w3.org/2000/svg">
<metadata></metadata>
<defs>
<font id="quicksandregular" horiz-adv-x="1255" >
<font-face units-per-em="2048" ascent="1638" descent="-410" />
<missing-glyph horiz-adv-x="614" />
<glyph horiz-adv-x="0" />
<glyph horiz-adv-x="682" />
<glyph unicode=" "  horiz-adv-x="614" />
<glyph unicode="&#x09;" horiz-adv-x="614" />
<glyph unicode="&#xa0;" horiz-adv-x="614" />
<glyph unicode="!" horiz-adv-x="516" d="M190 49v49q0 20 15 34.5t35 14.5q22 0 36.5 -14.5t14.5 -34.5v-49q0 -20 -14.5 -34.5t-36.5 -14.5q-20 0 -35 14.5t-15 34.5zM190 356v1028q0 20 15 35t35 15q22 0 36.5 -15t14.5 -35v-1028q0 -22 -14.5 -36.5t-36.5 -14.5q-20 0 -35 14.5t-15 36.5z" />
<glyph unicode="&#x22;" horiz-adv-x="839" d="M143 944l62 440q9 54 57 54h39q33 0 33 -35q0 -4 -10 -49l-117 -412q-6 -20 -14 -28.5t-21 -8.5q-34 0 -29 39zM512 944l61 440q9 54 58 54h39q32 0 32 -35q0 -4 -10 -49l-117 -412q-6 -21 -13.5 -29t-20.5 -8q-34 0 -29 39z" />
<glyph unicode="#" horiz-adv-x="1433" d="M92 430q0 20 14.5 34.5t34.5 14.5h224l84 484h-226q-20 0 -34.5 13.5t-14.5 33.5t14.5 34.5t34.5 14.5h242l57 338q3 20 17 32.5t34 12.5q25 0 36.5 -18t8.5 -42l-55 -323h424l57 338q3 20 17.5 32.5t34.5 12.5q25 0 36.5 -18t8.5 -42l-56 -323h205q20 0 34.5 -13.5 t14.5 -33.5t-14.5 -34.5t-34.5 -14.5h-221l-84 -484h223q20 0 34.5 -13.5t14.5 -33.5t-14.5 -34.5t-34.5 -14.5h-239l-60 -346q-3 -20 -17 -32.5t-34 -12.5q-25 0 -36.5 17.5t-8.5 41.5l57 332h-424l-59 -346q-3 -20 -17 -32.5t-34 -12.5q-25 0 -36.5 17.5t-8.5 41.5l57 332 h-207q-20 0 -34.5 13.5t-14.5 33.5zM463 479h424l84 484h-424z" />
<glyph unicode="$" horiz-adv-x="1294" d="M125 244q0 20 15.5 35.5t35.5 15.5q23 0 37 -14q179 -165 399 -187v584q-230 51 -332 141t-102 244q0 156 121.5 261.5t308.5 109.5v77q0 20 14.5 35t34.5 15t35 -15t15 -35v-81q106 -9 191 -44t173 -100q29 -23 29 -47q0 -22 -15.5 -36.5t-37.5 -14.5q-21 0 -37 14 q-144 115 -308 133v-573q233 -49 338 -140.5t105 -242.5q0 -162 -122.5 -267.5t-315.5 -111.5v-160q0 -20 -15 -34.5t-35 -14.5t-34.5 14.5t-14.5 34.5v162q-255 20 -461 199q-22 19 -22 43zM283 1071q0 -55 14.5 -95.5t51 -77t101 -65t162.5 -51.5v559q-147 -3 -238 -80.5 t-91 -189.5zM702 92q152 3 245 81.5t93 197.5q0 111 -73 177t-265 109v-565z" />
<glyph unicode="%" horiz-adv-x="1687" d="M113 1079v4q0 97 39 180.5t112.5 135t165.5 51.5q91 0 163.5 -51.5t111 -134t38.5 -177.5v-4q0 -149 -89 -257.5t-228 -108.5q-137 0 -225 107.5t-88 254.5zM219 1083q0 -120 61.5 -199t149.5 -79q90 0 148.5 78.5t58.5 195.5v4q0 119 -62 199t-149 80q-89 0 -148 -80.5 t-59 -194.5v-4zM299 35q0 15 8 26l998 1358q16 23 38 23q19 0 32.5 -12.5t13.5 -30.5q0 -15 -9 -27l-997 -1358q-16 -22 -39 -22q-19 0 -32 12t-13 31zM944 346v4q0 149 89.5 258t228.5 109q91 0 163.5 -51.5t111 -134t38.5 -177.5v-4q0 -149 -89.5 -257.5t-228.5 -108.5 q-137 0 -225 107.5t-88 254.5zM1051 350q0 -120 61.5 -199t149.5 -79q90 0 148 78.5t58 195.5v4q0 119 -62 199t-149 80q-89 0 -147.5 -80t-58.5 -195v-4z" />
<glyph unicode="&#x26;" horiz-adv-x="1425" d="M100 469q0 117 54.5 219t148.5 168q-90 96 -90 231q0 144 101.5 245.5t244.5 101.5t244.5 -101.5t101.5 -245.5q0 -20 -14.5 -34.5t-36.5 -14.5q-20 0 -34.5 14.5t-14.5 34.5q0 102 -72 174t-174 72t-174 -72t-72 -174q0 -60 29 -112.5t76 -85.5q14 -11 18.5 -28 t-2.5 -32q-2 -12 -18 -24q-7 -5 -17 -8q-91 -48 -144.5 -135t-53.5 -193q0 -152 108 -260.5t260 -108.5t260.5 108.5t108.5 260.5q0 39 -10 84q-23 4 -62 4q-166 0 -229 -63q-41 -41 -41 -105q0 -19 6 -43q4 -22 -5 -39.5t-28 -23.5q-6 -2 -14 -2q-40 0 -49 34 q-1 1 -3.5 10.5t-4.5 27t-2 36.5q0 108 71 174q94 94 299 94q49 0 72 -4h12h6h15q33 6 57 23q29 29 29 76q0 33 -4 53q-6 20 5 37t32 22q21 4 38 -6.5t23 -30.5q6 -43 6 -75q3 -49 -16.5 -89.5t-53.5 -64.5q-31 -22 -59 -33q10 -52 10 -96q0 -193 -138 -331t-331 -138 t-331 138t-138 331z" />
<glyph unicode="'" horiz-adv-x="471" d="M143 944l62 440q9 54 57 54h39q33 0 33 -35q0 -4 -10 -49l-117 -412q-6 -20 -14 -28.5t-21 -8.5q-34 0 -29 39z" />
<glyph unicode="(" horiz-adv-x="880" d="M145 621q0 348 99 563q54 118 144.5 187t211.5 69q23 0 39 -17t16 -41q0 -23 -16 -40t-39 -17q-87 -1 -147.5 -47t-106.5 -143q-86 -189 -86 -514q0 -326 86 -515q47 -97 107.5 -143.5t146.5 -46.5q23 0 39 -17t16 -40q0 -25 -16 -41.5t-39 -16.5h-4q-120 0 -210 69 t-142 187q-99 212 -99 564z" />
<glyph unicode=")" horiz-adv-x="880" d="M123 -141q0 23 16 40t39 17q86 0 146.5 46.5t107.5 143.5q86 189 86 515q0 325 -86 514q-46 97 -106.5 143t-147.5 47q-23 0 -39 17t-16 40q0 24 16 41t39 17q121 0 212.5 -69t144.5 -187q98 -213 98 -563q0 -354 -98 -564q-52 -118 -142.5 -187t-210.5 -69h-4 q-23 0 -39 16.5t-16 41.5z" />
<glyph unicode="*" horiz-adv-x="880" d="M156 995q0 27 28 39l211 101l-211 100q-28 14 -28 39q0 17 12 29t29 14q14 0 32 -12l187 -127l-17 223q-2 19 10 32t31 13t31 -13t10 -32l-16 -223l186 127q18 12 33 12q17 0 29 -13t12 -30q0 -27 -29 -39l-211 -100l211 -101q29 -12 29 -39q0 -17 -12 -30t-29 -13 q-14 0 -33 13l-186 127l16 -224q2 -19 -10 -32t-31 -13t-31 13t-10 32l17 224l-187 -127q-20 -13 -32 -13q-17 0 -29 13t-12 30z" />
<glyph unicode="+" horiz-adv-x="1269" d="M131 717q0 29 20.5 49t49.5 20h374v375q0 28 19.5 48t48.5 20t49.5 -20t20.5 -48v-375h374q28 0 48 -20t20 -49t-20 -48.5t-48 -19.5h-374v-375q0 -29 -20.5 -49t-49.5 -20t-48.5 20t-19.5 49v375h-374q-29 0 -49.5 19.5t-20.5 48.5z" />
<glyph unicode="," horiz-adv-x="471" d="M111 -184q0 16 16 26q56 31 78 67.5t18 90.5q-55 14 -55 72v43q0 29 19.5 48t48.5 19t48 -19t19 -48v-52q0 -158 -55 -213q-26 -26 -59 -45.5t-48 -19.5q-11 0 -20.5 8.5t-9.5 22.5z" />
<glyph unicode="-" horiz-adv-x="835" d="M135 713q0 17 11 27t28 10h436q16 0 27.5 -10t11.5 -27q0 -18 -11.5 -29.5t-27.5 -11.5h-436q-17 0 -28 11t-11 30z" />
<glyph unicode="." horiz-adv-x="471" d="M168 102q0 43 29.5 73t72.5 30t73 -30t30 -73t-30 -72.5t-73 -29.5t-72.5 29.5t-29.5 72.5z" />
<glyph unicode="/" horiz-adv-x="864" d="M159.5 30.5q-7.5 19.5 0.5 39.5l559 1327q9 19 27 26t38 0q20 -8 28 -26.5t-1 -38.5l-559 -1327q-12 -31 -45 -31q-15 0 -21 2q-19 9 -26.5 28.5z" />
<glyph unicode="0" horiz-adv-x="1454" d="M133 717q0 295 137 502q69 99 161.5 157t197.5 58t197 -58t161 -157q139 -215 139 -502q0 -288 -139 -500q-69 -101 -161 -159t-197 -58t-197.5 58t-161.5 159q-137 204 -137 500zM233 717q0 -263 121 -445q56 -82 127.5 -127t147.5 -45q154 0 274 172q57 86 90 201 t33 244q0 259 -123 444q-116 172 -274 172q-77 0 -148.5 -44t-126.5 -128q-121 -181 -121 -444z" />
<glyph unicode="1" horiz-adv-x="686" d="M70 1225q5 19 24 28l277 168q17 9 37.5 4t29.5 -22q9 -18 6 -37v-1317q0 -21 -14 -35t-35 -14q-20 0 -34.5 14.5t-14.5 34.5v1239l-203 -119q-12 -8 -24 -8q-29 0 -43 25q-11 20 -6 39z" />
<glyph unicode="2" horiz-adv-x="1208" d="M95.5 52q0.5 21 15.5 36l669 604q123 114 123 275q0 138 -96 245q-53 59 -124.5 90t-147.5 31q-143 0 -250 -94l-70 -63q-15 -15 -36.5 -14t-33.5 16q-15 15 -14 36t16 33l70 66q136 121 318 121q97 0 187 -39t157 -115q122 -131 122 -313q0 -97 -39 -188.5t-114 -160.5 l-574 -518h678q20 0 34.5 -14.5t14.5 -36.5q0 -20 -14.5 -34.5t-34.5 -14.5h-798h-9q-25 0 -36 14q-14 17 -13.5 38z" />
<glyph unicode="3" horiz-adv-x="1249" d="M151 178.5q0 21.5 15 36.5q14 15 35.5 15t36.5 -15q114 -111 270 -111q158 0 272 111q113 113 113 272q0 161 -113 271q-109 112 -270 112q-24 0 -41 21h-2q-15 15 -15 37t15 37l356 366h-549q-22 0 -36.5 14.5t-14.5 36.5t14.5 37t36.5 15h670q22 0 36.5 -15t14.5 -37 q0 -13 -6 -22q-3 -10 -10 -17l-371 -380q143 -29 246 -132q69 -69 105 -158.5t36 -185.5t-36.5 -185.5t-106.5 -158.5q-70 -70 -159.5 -106.5t-184.5 -36.5t-184 36.5t-158 106.5q-15 14 -15 35.5z" />
<glyph unicode="4" horiz-adv-x="1359" d="M102.5 338.5q-1.5 21.5 12.5 36.5l829 1032l2 2q13 17 33 18.5t37 -12.5q6 -5 16 -24q0 -2 1 -5t1 -4v-6v-983h96q22 0 37 -14.5t15 -34.5t-15 -34.5t-37 -14.5h-96v-246q0 -20 -14.5 -34.5t-36.5 -14.5q-20 0 -34.5 14.5t-14.5 34.5v246h-776h-2h-4q-21 0 -31 10 q-17 12 -18.5 33.5zM256 393h678v840z" />
<glyph unicode="5" horiz-adv-x="1239" d="M128 178q0 22 15 35q15 15 37 15t37 -15q114 -111 270 -111q158 0 271 113q112 112 112 270q0 163 -110 273t-271 110q-160 0 -272 -112q-15 -15 -37 -15t-35 15q-9 6 -12 16v2q-2 2 -2 6q-2 4 -2 17q0 1 1 4.5t1 5.5l70 577q0 24 20 37q13 13 33 13h668q22 0 36.5 -15 t14.5 -37q0 -23 -14.5 -37t-36.5 -14h-625l-51 -426q114 66 243 66q203 0 342 -142q142 -139 142 -344q0 -95 -36 -185t-106 -159q-70 -68 -160 -104.5t-184 -36.5q-96 0 -185.5 36t-158.5 105q-15 15 -15 37z" />
<glyph unicode="6" horiz-adv-x="1314" d="M131 551q4 334 139 569q78 139 205 222.5t297 89.5q20 1 34.5 -13t16.5 -35q0 -21 -14 -36t-35 -17q-144 -6 -245 -73t-173 -187q-69 -118 -102 -287q66 75 158.5 118.5t195.5 43.5q97 0 185 -37.5t151.5 -101t101 -151t37.5 -183.5q0 -97 -37.5 -184.5t-101 -150.5 t-151.5 -100.5t-185 -37.5q-126 0 -233.5 61t-171.5 166t-68 230q-4 31 -4 94zM236 465q0 -11 4 -27q0 -10 -2 -14q19 -137 124.5 -230.5t245.5 -93.5q156 0 266.5 109.5t110.5 263.5t-110.5 263.5t-266.5 109.5q-154 0 -263 -109.5t-109 -263.5v-8z" />
<glyph unicode="7" horiz-adv-x="1202" d="M131 1376q0 20 14.5 34.5t34.5 14.5h758q17 3 31 -2q19 -10 26 -30q4 -12 4 -17q0 -15 -8 -26l-555 -1319q-14 -31 -45 -31q-12 0 -20 4q-18 7 -26.5 27t-2.5 39l530 1257h-692q-20 0 -34.5 14.5t-14.5 34.5z" />
<glyph unicode="8" horiz-adv-x="1290" d="M113 465q0 143 79 260t207 170q-55 42 -86.5 105t-31.5 137q0 123 86.5 210t210.5 87q123 0 211 -87t88 -210q0 -73 -33 -136.5t-90 -105.5q129 -53 208.5 -170t79.5 -260q0 -194 -135.5 -329.5t-328.5 -135.5q-192 0 -328.5 136t-136.5 329zM211 465 q0 -152 107.5 -259.5t259.5 -107.5q153 0 259.5 107t106.5 260q0 151 -106.5 258.5t-259.5 107.5q-152 0 -259.5 -107.5t-107.5 -258.5zM379 1137q0 -83 58 -142.5t141 -60.5q83 2 141.5 61t58.5 142t-58.5 140.5t-141.5 57.5t-141 -57.5t-58 -140.5z" />
<glyph unicode="9" horiz-adv-x="1314" d="M135 963q0 128 63.5 236.5t172.5 171.5t237 63q183 0 317 -120t154 -298q1 -2 2 -5t2 -5q4 -78 4 -123q0 -150 -34 -300t-103 -272q-79 -136 -206 -220.5t-295 -90.5h-3q-22 0 -36.5 13.5t-14.5 33.5q0 22 13.5 37t35.5 16q272 11 418 260q76 133 103 287 q-65 -75 -158 -116.5t-199 -41.5q-196 0 -334.5 138.5t-138.5 335.5zM236 963q0 -156 109 -264.5t263 -108.5q157 0 266 108t109 265q0 154 -109 262t-266 108q-154 0 -263 -108t-109 -262z" />
<glyph unicode=":" horiz-adv-x="491" d="M178 102q0 43 30 73t73 30t72.5 -30t29.5 -73t-29.5 -72.5t-72.5 -29.5t-73 29.5t-30 72.5zM178 963q0 43 30 72.5t73 29.5t72.5 -29.5t29.5 -72.5t-29.5 -73t-72.5 -30t-73 30t-30 73z" />
<glyph unicode=";" horiz-adv-x="491" d="M121 -184q0 16 16 26q56 31 78 67.5t18 90.5q-55 14 -55 72v43q0 29 19.5 48t48.5 19t48 -19t19 -48v-52q0 -158 -55 -213q-26 -26 -59 -45.5t-47 -19.5q-12 0 -21.5 8.5t-9.5 22.5zM139 961q0 43 30 72.5t73 29.5t72.5 -29.5t29.5 -72.5t-29.5 -73t-72.5 -30t-73 30 t-30 73z" />
<glyph unicode="&#x3c;" horiz-adv-x="1269" d="M125 705q-3 9 0 18q0 2 4 14q5 10 6 11l6 6l2 2l648 655q18 16 41.5 16.5t41.5 -16.5q15 -19 15 -43t-15 -43l-610 -612l610 -615q15 -17 15 -40t-15 -40q-15 -18 -43 -18q-22 0 -40 18l-648 652l-2 2q-8 8 -10 12l-2 4q-2 2 -2 6q-2 4 -2 11z" />
<glyph unicode="=" horiz-adv-x="1269" d="M162 496q0 22 16.5 38.5t40.5 16.5h729q24 0 41 -16.5t17 -38.5q0 -25 -16.5 -41.5t-41.5 -16.5h-729q-25 0 -41 16.5t-16 41.5zM162 936q0 25 16 41t41 16h729q25 0 41.5 -16t16.5 -41q0 -23 -16.5 -39t-41.5 -16h-729q-25 0 -41 16t-16 39z" />
<glyph unicode="&#x3e;" horiz-adv-x="1269" d="M188 58q0 23 15 40l610 615l-610 612q-15 19 -15 43t15 43q18 17 42 16.5t42 -16.5l647 -655l2 -2q16 -16 16 -41q0 -22 -12 -37l-4 -4l-2 -2l-647 -652q-15 -18 -41 -18q-25 0 -43 18q-15 17 -15 40z" />
<glyph unicode="?" horiz-adv-x="1093" d="M83.5 1176q-4.5 19 6.5 36q58 102 159 162t222 60q183 0 312.5 -130.5t129.5 -314.5q0 -168 -113.5 -293.5t-279.5 -144.5v-219q0 -20 -14.5 -33.5t-34.5 -13.5q-19 0 -33 13.5t-14 33.5v256v6v2q0 20 14 33.5t33 13.5q144 0 245 101.5t101 244.5q0 146 -100.5 246 t-245.5 102q-96 0 -175 -47t-124 -127q-9 -16 -28.5 -21t-37.5 5t-22.5 29zM424 47v45q0 20 14 34.5t33 14.5q20 0 34.5 -14.5t14.5 -34.5v-45q0 -20 -14.5 -33.5t-34.5 -13.5q-19 0 -33 13.5t-14 33.5z" />
<glyph unicode="@" horiz-adv-x="2007" d="M109 719q0 195 95.5 360t261 261t361.5 96q146 0 279 -56.5t229 -152.5t152.5 -229t56.5 -279q0 -179 -76 -328l-10 -15q-9 -14 -24 -32.5t-35.5 -39.5t-51.5 -39.5t-65 -28.5q-18 -5 -41 -5q-75 0 -117 56q-32 50 -32 98v70q-110 -123 -265 -123q-152 0 -259 114 t-107 273q0 157 107 270t259 113q151 0 257 -112.5t106 -270.5v-17v-10v-301h2q-3 -16 12 -45q10 -14 37 -14h16q40 9 75 46t44 60q68 124 68 281q0 166 -83 308t-225.5 225t-308.5 83q-167 0 -309.5 -83t-225.5 -225t-83 -308q0 -125 49 -239.5t132 -197.5t197.5 -132.5 t239.5 -49.5q92 0 154 17q21 5 38.5 -4.5t18.5 -30.5q7 -20 -3.5 -38t-30.5 -21q-90 -23 -177 -23q-196 0 -361.5 96t-261 261.5t-95.5 361.5zM567 719q0 -118 76 -199.5t184 -81.5q107 0 185 82t78 199q0 116 -78 199t-185 83t-183.5 -82.5t-76.5 -199.5z" />
<glyph unicode="A" horiz-adv-x="1323" d="M123 68l498 1329q6 13 20 21.5t29 8.5q39 0 49 -30l498 -1329q4 -10 4 -19.5t-4 -19.5q-8 -20 -27 -27q-4 0 -10 -1t-9 -1q-14 0 -27.5 9t-19.5 24l-127 338h-653l-127 -338q-13 -33 -47 -33q-2 0 -8.5 1t-9.5 1q-20 8 -28 28q-5 11 -4 21q0 8 3 17zM381 471h580 l-289 770z" />
<glyph unicode="B" horiz-adv-x="1216" d="M213 49v1335q0 20 14.5 35t34.5 15h6h314q148 0 252 -105t104 -254q0 -83 -37 -155t-100 -123q123 -42 201.5 -148t78.5 -239q0 -170 -120 -290t-289 -120h-404h-6h-2q-20 0 -33.5 14.5t-13.5 34.5zM313 100h359q127 0 217 90.5t92 219.5q-2 128 -92 218.5t-217 90.5 h-359v-619zM313 821h269q106 0 181 75t75 179q0 107 -75 182.5t-181 75.5h-269v-512z" />
<glyph unicode="C" horiz-adv-x="1579" d="M150 723q0 200 99.5 368t271 265t374.5 98q257 0 463 -158q18 -14 20 -36v-6q0 -18 -12 -29q-12 -18 -33.5 -21t-36.5 10q-181 140 -401 140q-132 0 -251.5 -50t-205.5 -134t-137 -201t-51 -246q0 -168 86 -311.5t234.5 -227.5t324.5 -84q232 0 397 140q19 12 40.5 8.5 t31.5 -21.5q15 -13 13 -36t-19 -35q-203 -156 -463 -156q-152 0 -290 57.5t-237.5 154t-158.5 230.5t-59 281z" />
<glyph unicode="D" horiz-adv-x="1472" d="M213 49v1335q0 20 14.5 35t34.5 15h6h262q145 0 278 -57t229 -153.5t153 -229.5t57 -279q0 -145 -57 -277.5t-153 -228.5t-228.5 -152.5t-278.5 -56.5h-264h-8q-19 2 -32 15.5t-13 33.5zM313 100h217q125 0 239.5 48.5t197 131t131.5 196.5t49 239q0 168 -83 310 t-225 224.5t-309 83.5h-217v-1233z" />
<glyph unicode="E" horiz-adv-x="1214" d="M213 49v1335q0 20 14.5 35t34.5 15h4h733q21 0 35.5 -14.5t14.5 -35.5q0 -22 -14 -36.5t-36 -14.5h-686v-567h600q21 0 35.5 -15t14.5 -36q0 -20 -15 -34.5t-35 -14.5h-600v-566h686q22 0 36 -14.5t14 -36.5q0 -21 -14.5 -35t-35.5 -14h-731h-6h-4q-19 2 -32 15.5 t-13 33.5z" />
<glyph unicode="F" horiz-adv-x="1239" d="M213 49v1335q0 20 13.5 34t33.5 16h8h733q20 0 35 -15t15 -35q0 -22 -14.5 -36.5t-35.5 -14.5h-688v-567h602q22 0 37 -14.5t15 -36.5q0 -20 -15 -34.5t-37 -14.5h-602v-617q0 -20 -14.5 -34.5t-36.5 -14.5q-20 0 -34.5 14.5t-14.5 34.5z" />
<glyph unicode="G" horiz-adv-x="1667" d="M150 729q0 147 59 281t158.5 231.5t237.5 155t290 57.5q256 0 465 -162q14 -11 16 -32q1 -4 1 -7q0 -17 -11 -30q-12 -15 -32.5 -18t-39.5 9q-80 66 -183 103t-216 37q-176 0 -324.5 -84t-234.5 -228t-86 -313q0 -171 86 -316t234.5 -229t324.5 -84q212 0 379 123v422 h-391q-22 0 -37 14t-15 35q0 22 15 36.5t37 14.5h442h6q19 -2 32 -16.5t13 -34.5v-491v-8q-4 -26 -18 -37q-201 -158 -463 -158q-152 1 -290 58t-237.5 154.5t-158.5 232.5t-59 284z" />
<glyph unicode="H" horiz-adv-x="1452" d="M213 49v1335q0 20 14.5 35t34.5 15q22 0 36.5 -15t14.5 -35v-618h738v618q0 20 14.5 35t34.5 15q22 0 36.5 -15t14.5 -35v-1335q0 -20 -14.5 -34.5t-36.5 -14.5q-20 0 -34.5 14.5t-14.5 34.5v619h-738v-619q0 -20 -14.5 -34.5t-36.5 -14.5q-20 0 -34.5 14.5t-14.5 34.5z " />
<glyph unicode="I" horiz-adv-x="624" d="M227 49v1335q0 20 14.5 35t34.5 15q22 0 37 -15t15 -35v-1335q0 -20 -15 -34.5t-37 -14.5q-20 0 -34.5 14.5t-14.5 34.5z" />
<glyph unicode="J" horiz-adv-x="1216" d="M94 336q-2 8 -2 15q0 12 6 23q9 19 29 25t38.5 -2.5t22.5 -27.5q39 -120 140 -195q101 -74 226 -74h3q160 0 273.5 112.5t113.5 272.5v899q0 20 14.5 35t34.5 15t34.5 -15t14.5 -35v-899q0 -202 -142 -343.5t-343 -141.5q-160 0 -288.5 94.5t-174.5 241.5z" />
<glyph unicode="K" horiz-adv-x="1464" d="M213 49v1329q0 22 14.5 37t34.5 15q22 0 36.5 -15t14.5 -37v-829l867 866q15 13 36 13t33 -13q15 -13 15 -35t-15 -37l-549 -548l562 -713q10 -14 10 -30q0 -4 -1 -8q-3 -20 -18 -34q-13 -10 -32 -10q-24 0 -37 18l-555 705l-316 -315v-359q0 -20 -14.5 -34.5 t-36.5 -14.5q-20 0 -34.5 14.5t-14.5 34.5z" />
<glyph unicode="L" horiz-adv-x="1153" d="M213 49v1335q0 20 14.5 35t34.5 15q22 0 36.5 -15t14.5 -35v-1284h686q22 0 37 -14.5t15 -36.5q0 -20 -15 -34.5t-37 -14.5h-733h-4q-20 0 -34.5 14.5t-14.5 34.5z" />
<glyph unicode="M" horiz-adv-x="1728" d="M213 49v1327q0 26 20 39q0 1 2 2t3 2q13 9 29 9q4 0 8 -1q20 -3 32 -20l510 -707l508 707q9 17 31 20q5 1 10 1q16 0 29 -9q10 -10 14 -16q8 -16 8 -27v-1327q0 -20 -14.5 -34.5t-34.5 -14.5q-21 0 -35 14t-14 35v1180l-459 -637q-14 -23 -41 -23h-4q-29 0 -43 23 l-459 635v-1178q0 -20 -14.5 -34.5t-34.5 -14.5q-22 0 -36.5 14.5t-14.5 34.5z" />
<glyph unicode="N" horiz-adv-x="1579" d="M219 49v1315q-3 8 -3 16q0 22 22 39q13 9 29 9q4 0 9 -1q21 -3 31 -20l869 -1204v1167q0 20 14.5 34.5t34.5 14.5q22 0 36.5 -14.5t14.5 -34.5v-1321q0 -20 -14.5 -34.5t-36.5 -14.5q-24 0 -39 18q-7 7 -8 9l-861 1196v-1174q0 -20 -14.5 -34.5t-34.5 -14.5t-34.5 14.5 t-14.5 34.5z" />
<glyph unicode="O" horiz-adv-x="1740" d="M150 727q1 198 92.5 365t250.5 264.5t349 97.5q188 0 345.5 -97.5t248.5 -264.5t92 -365q-1 -198 -92 -365t-248.5 -264.5t-345.5 -97.5q-190 0 -349 97.5t-250.5 264.5t-92.5 365zM250 727q0 -129 47 -245.5t126.5 -200t189 -132.5t229.5 -49q155 0 289 83t213.5 227.5 t80.5 316.5q-1 130 -48 246.5t-126 199t-185.5 131t-223.5 48.5q-120 0 -229.5 -48.5t-189 -131t-126.5 -199t-47 -246.5z" />
<glyph unicode="P" horiz-adv-x="1193" d="M213 49v1335q0 20 14.5 35t34.5 15h6h400q168 0 287.5 -120.5t119.5 -289.5t-119 -288.5t-288 -119.5l-355 -4v-563q0 -20 -14.5 -34.5t-36.5 -14.5q-20 0 -34.5 14.5t-14.5 34.5zM313 713h355q128 2 218.5 93t90.5 218q0 128 -90.5 218.5t-218.5 90.5h-355v-620z" />
<glyph unicode="Q" horiz-adv-x="1728" d="M135 725q0 197 91.5 364t250 265.5t346.5 99.5q188 -1 346.5 -99.5t250 -265.5t91.5 -364q0 -223 -116 -404.5t-305 -267.5l-207 -96q73 -14 125 -45q177 -107 307 -107q126 0 260 103q17 12 38 10.5t34 -18.5q10 -15 10 -33v-6q-2 -22 -17 -35q-159 -121 -323 -121h-2 q-155 0 -357 117q-78 45 -172 45q-62 0 -118.5 -16t-71.5 -29h-2q-29 -15 -57 4h-2q-14 19 -15 22q-9 19 -2.5 39t25.5 29l190 86q-168 23 -305 125t-215 259.5t-78 338.5zM238 725q0 -128 47 -244.5t125.5 -200t186.5 -133t226 -49.5q157 0 292 83.5t214.5 228t79.5 315.5 q0 172 -79.5 316t-214.5 226.5t-292 82.5t-291.5 -82.5t-214 -226.5t-79.5 -316z" />
<glyph unicode="R" horiz-adv-x="1280" d="M184 49v1335q0 19 13 34t32 16h4h7h399q169 0 288.5 -120t119.5 -290q0 -121 -65 -221t-171 -150q3 -2 6 -3.5l7 -3.5t7 -3q82 -46 137.5 -126.5t55.5 -192.5q0 -110 18 -166q7 -21 21 -35q18 2 33.5 -7t21.5 -26q2 -8 2 -15q0 -13 -6 -25q-9 -18 -29 -25q-1 0 -4.5 -0.5 t-9 -1t-10.5 -0.5h-4q-23 0 -49.5 17t-42.5 48q-39 73 -39 236q0 130 -117 217q-42 30 -90 48.5t-76 22.5q-2 1 -4.5 2t-3.5 1.5t-2 0.5h-348v-567q0 -20 -15 -34.5t-37 -14.5q-20 0 -34.5 14.5t-14.5 34.5zM285 715h344h18q125 3 213 93t88 216q0 129 -90.5 219t-218.5 90 h-354v-618z" />
<glyph unicode="S" horiz-adv-x="1366" d="M138 236v7q0 15 9 25q12 15 31.5 16.5t32.5 -10.5q94 -76 219 -130q123 -54 247 -54h5q186 0 315 94q123 88 123 213q0 118 -116 197q-114 75 -332 117h-4q-221 42 -338 120q-69 44 -108.5 108.5t-39.5 141.5q0 79 40 148.5t110 120.5q142 104 346 104q67 0 129.5 -14 t123 -43t96 -50t93.5 -59q15 -11 19 -28.5t-6 -34.5q-9 -15 -28 -19t-34 6q-55 36 -89.5 56.5t-87.5 46t-106.5 37.5t-109.5 12q-172 0 -293 -86q-113 -83 -113 -197q3 -103 107 -174q100 -68 307 -108h4q236 -45 365 -131q73 -47 115 -117t42 -154t-43 -158t-118 -128 q-155 -113 -369 -113q-103 1 -208 35t-178.5 76t-141.5 96q-14 12 -16 31z" />
<glyph unicode="T" horiz-adv-x="1327" d="M102 1384q0 20 15 35t35 15h962q20 0 34.5 -15t14.5 -35q0 -22 -14.5 -36.5t-34.5 -14.5h-432v-1284q0 -20 -14.5 -34.5t-34.5 -14.5t-34.5 14.5t-14.5 34.5v1284h-432q-20 0 -35 14.5t-15 36.5z" />
<glyph unicode="U" horiz-adv-x="1667" d="M215 580v804q0 20 14.5 35t34.5 15q22 0 36.5 -15t14.5 -35v-804q0 -130 64.5 -240t174.5 -174.5t239 -65.5q131 1 241.5 65.5t175 174.5t64.5 240v804q0 20 14.5 35t34.5 15q21 0 36 -15t15 -35v-804q0 -157 -77.5 -290.5t-211.5 -211.5t-292 -78q-156 0 -289 78 t-211 211.5t-78 290.5z" />
<glyph unicode="V" horiz-adv-x="1536" d="M125 1356q-4 10 -4 20q0 8 4 18q8 20 27 27q11 5 22 5q8 0 16 -3q20 -7 27 -26l512 -1221l514 1221q5 19 25 26q9 3 17 3q11 0 22 -5q19 -7 27 -27q4 -9 3 -18q0 -10 -4 -20l-555 -1311q-4 -32 -28 -41h-2q-12 -4 -19 -4q-14 0 -18 2l-2 2q-19 6 -25 25q-2 0 -2 4l-2 2z " />
<glyph unicode="W" horiz-adv-x="2256" d="M134 1394q8 19 26 27q11 5 22 5q8 0 16 -3q20 -7 27 -26l512 -1219l365 862q17 31 47 31q34 0 51 -31l363 -862l512 1219q9 19 27 26q8 3 17 3q11 0 23 -5q18 -8 26 -27q3 -9 4 -17q0 -10 -5 -21l-557 -1323q-13 -29 -41 -33h-4h-6q-14 0 -25 8l-8 8q-3 3 -8 13q0 4 -2 6 l-365 866l-367 -866q0 -6 -4 -10q-2 -8 -10 -15l-4 -2q-11 -8 -29 -8q-17 0 -30 10l-5 4l-2 2q-9 9 -12 25l-553 1315q-5 10 -5 21q1 8 4 17z" />
<glyph unicode="X" horiz-adv-x="1478" d="M156 42v7q0 17 12 31l461 633l-461 633q-12 14 -12 32v6q2 21 20 31q14 12 32 12q2 -1 6 -1q22 -2 32 -19l444 -610l445 610q13 17 33 19q3 0 5 1q16 0 31 -12q17 -11 20 -31q1 -4 1 -8q0 -16 -11 -30l-462 -633l462 -633q11 -14 11 -30q0 -4 -1 -8q-3 -20 -20 -32 q-17 -10 -28 -10q-25 0 -41 23l-445 608l-444 -608q-13 -23 -39 -23q-14 0 -31 10q-18 12 -20 32z" />
<glyph unicode="Y" horiz-adv-x="1236" d="M117 1384q3 21 18 31q14 12 32 12q3 0 7 -1q21 -2 31 -19l448 -616l451 616q10 17 32 19q3 1 6 1q18 0 32 -12q17 -10 20 -31v-7q0 -17 -10 -31l-479 -654v-643q0 -21 -14.5 -35t-35.5 -14q-20 0 -34.5 14.5t-14.5 34.5v639l-481 658q-9 13 -9 29q0 5 1 9z" />
<glyph unicode="Z" horiz-adv-x="1366" d="M152 1376q0 20 14.5 34.5t34.5 14.5h952q6 2 12 2q14 0 29 -10q8 -4 14 -10q10 -12 10 -29.5t-10 -31.5l-911 -1246h872q21 0 35.5 -14t14.5 -37q0 -20 -15 -34.5t-35 -14.5h-968h-4q-2 0 -7.5 1t-7.5 1q-8 4 -12 8q-14 9 -18 26q-2 7 -1 14q0 9 3 18q6 12 12 18 l903 1241h-868q-20 0 -34.5 14.5t-14.5 34.5z" />
<glyph unicode="[" horiz-adv-x="880" d="M201 -213v1593q0 22 15.5 38t37.5 16h475q15 0 27 -12t12 -27t-12 -27t-27 -12h-434v-1544h434q15 0 27 -12t12 -27t-12 -27t-27 -12h-475q-22 0 -37.5 15.5t-15.5 37.5z" />
<glyph unicode="\" horiz-adv-x="917" d="M136 1400.5q8 18.5 28 26.5q20 7 38 0t27 -26l559 -1327q8 -20 0.5 -39.5t-26.5 -28.5q-6 -2 -21 -2q-33 0 -45 31l-559 1327q-9 20 -1 38.5z" />
<glyph unicode="]" horiz-adv-x="880" d="M113 -227q0 15 12 27t27 12h434v1544h-434q-15 0 -27 12t-12 27t12 27t27 12h475q22 0 37.5 -16t15.5 -38v-1593q0 -22 -15.5 -37.5t-37.5 -15.5h-475q-15 0 -27 12t-12 27z" />
<glyph unicode="^" horiz-adv-x="1024" d="M164 1024q0 12 10 27l272 360q29 37 58 37h16q29 0 58 -37l272 -360q10 -15 10 -27q0 -8 -8.5 -15.5t-22.5 -7.5q-53 0 -73 29l-246 322l-246 -322q-20 -29 -71 -29q-13 0 -21 7.5t-8 15.5z" />
<glyph unicode="_" horiz-adv-x="1228" d="M-49 -283q0 19 13 32t32 13h1237q19 0 32 -13t13 -32t-13 -32t-32 -13h-1237q-19 0 -32 13t-13 32z" />
<glyph unicode="`" horiz-adv-x="1024" d="M334 1434q0 15 28.5 31t57.5 16q33 0 57 -37l127 -191q8 -12 8 -22q0 -8 -8 -13.5t-18 -5.5q-37 0 -66 27l-164 158q-22 22 -22 37z" />
<glyph unicode="a" horiz-adv-x="1267" d="M82 502q0 135 63 250.5t172.5 183.5t239.5 68q113 0 212 -53t165 -144v147q0 22 14 36t35 14t35 -14t14 -36v-905q0 -20 -14.5 -34.5t-34.5 -14.5t-34.5 14.5t-14.5 34.5v150q-66 -92 -165 -145.5t-212 -53.5q-130 0 -239.5 68t-172.5 183.5t-63 250.5zM180 502 q0 -168 111 -286t266 -118q156 0 266.5 118t110.5 286t-110.5 286.5t-266.5 118.5q-155 0 -266 -118.5t-111 -286.5z" />
<glyph unicode="b" horiz-adv-x="1351" d="M190 49v430v21v20v864q0 20 15 35t35 15q22 0 36.5 -15t14.5 -35v-577q68 91 168.5 144t216.5 53q133 0 244.5 -67.5t176 -183.5t64.5 -253q0 -135 -64.5 -250t-176 -182.5t-244.5 -67.5q-117 0 -217.5 52t-167.5 143v-146q0 -20 -14.5 -34.5t-36.5 -14.5q-20 0 -35 14.5 t-15 34.5zM291 500q0 -165 113 -282.5t272 -117.5q160 0 272.5 117t112.5 283q0 167 -112.5 285t-272.5 118q-155 0 -267 -113t-118 -274v-16z" />
<glyph unicode="c" horiz-adv-x="1169" d="M119 504q0 209 150.5 354.5t365.5 145.5q179 0 319 -111q15 -11 17.5 -31t-10.5 -37q-12 -14 -31 -16.5t-37 8.5q-114 90 -258 90q-174 0 -296 -118.5t-122 -284.5q0 -169 121.5 -287.5t296.5 -118.5q143 0 258 88q18 11 37 8.5t31 -16.5t12 -31q0 -4 -1 -7 q-3 -21 -22 -34q-135 -106 -315 -106q-141 0 -260 66.5t-187.5 182.5t-68.5 255z" />
<glyph unicode="d" horiz-adv-x="1351" d="M123 500q0 137 64.5 253t176 183.5t244.5 67.5q116 0 216.5 -53t168.5 -144v577q0 20 14.5 35t36.5 15q20 0 35 -15t15 -35v-864v-20v-451q0 -20 -15 -34.5t-35 -14.5q-22 0 -36.5 14.5t-14.5 34.5v146q-67 -91 -167.5 -143t-217.5 -52q-133 0 -244.5 67.5t-176 182.5 t-64.5 250zM223 500q0 -165 113 -282.5t272 -117.5q155 0 267 111.5t118 271.5v33q-6 161 -118 274t-267 113q-159 0 -272 -118t-113 -285z" />
<glyph unicode="e" horiz-adv-x="1247" d="M119 500q0 209 142.5 356.5t344.5 147.5q192 0 330.5 -134.5t153.5 -332.5v-2v-7q0 -20 -14.5 -32.5t-35.5 -12.5h-823q7 -163 120 -274t269 -111q100 0 186.5 49t137.5 134q10 18 30 22t35 -6q17 -12 22 -31.5t-5 -38.5q-66 -104 -173 -165.5t-233 -61.5 q-133 0 -245 67.5t-177 182.5t-65 250zM223 580h760q-25 141 -132 233t-245 92q-141 0 -248 -91t-135 -234z" />
<glyph unicode="f" horiz-adv-x="741" d="M133 971q0 20 14.5 34.5t34.5 14.5h133v106q3 160 66 234q67 72 203 72q20 0 34.5 -15t14.5 -37q0 -20 -14.5 -34.5t-34.5 -14.5q-96 0 -127 -39q-41 -45 -41 -166v-106h141q22 0 36.5 -14.5t14.5 -34.5q0 -22 -14.5 -36.5t-36.5 -14.5h-141v-873q0 -20 -14.5 -34.5 t-34.5 -14.5q-22 0 -37 14.5t-15 34.5v873h-133q-20 0 -34.5 14.5t-14.5 36.5z" />
<glyph unicode="g" horiz-adv-x="1351" d="M123 506q0 133 62.5 247.5t171.5 182.5t237 68q113 0 212 -53t163 -144v147q0 20 14.5 35t36.5 15q19 0 33 -15t14 -35v-874q0 -195 -138.5 -333t-334.5 -138q-102 0 -209 47q-16 11 -22 29t2 36q9 20 27.5 26.5t37.5 -3.5q75 -37 164 -37q157 0 266 109t109 264v123 q-64 -92 -162.5 -144.5t-212.5 -52.5q-196 0 -333.5 146.5t-137.5 353.5zM221 506q0 -168 109.5 -286t263.5 -118q156 0 265.5 118t109.5 286q0 167 -109.5 283t-265.5 116q-154 0 -263.5 -116t-109.5 -283z" />
<glyph unicode="h" d="M190 49v559v17v759q0 20 15 35t35 15q22 0 36.5 -15t14.5 -35v-528q58 69 141 108.5t176 39.5q176 0 298 -112.5t122 -283.5v-559q0 -20 -14.5 -34.5t-36.5 -14.5q-20 0 -34.5 14.5t-14.5 34.5v559q0 130 -92.5 212.5t-227.5 82.5q-133 0 -225 -82.5t-92 -212.5v-559v-6 q0 -2 -1 -4.5t-1 -3.5l-4 -8q-9 -19 -31 -25q-2 -2 -4 -2h-4h-6q-23 0 -39 16q-5 7 -8 17q-3 9 -3 16z" />
<glyph unicode="i" horiz-adv-x="575" d="M193 49v905q0 22 14.5 36t34.5 14q22 0 36.5 -14t14.5 -36v-905q0 -20 -14.5 -34.5t-36.5 -14.5q-20 0 -34.5 14.5t-14.5 34.5zM193 1235v47q0 20 14.5 34.5t34.5 14.5q22 0 36.5 -14.5t14.5 -34.5v-47q0 -22 -14.5 -37.5t-36.5 -15.5q-20 0 -34.5 15.5t-14.5 37.5z" />
<glyph unicode="j" horiz-adv-x="509" d="M-10 -344q0 22 13.5 36.5t35.5 14.5q29 0 51.5 22.5t22.5 53.5v1169q0 22 15.5 37t35.5 15t34.5 -15t14.5 -37v-1169q0 -73 -50.5 -123.5t-123.5 -50.5q-22 0 -35.5 13.5t-13.5 33.5zM117 1235v47q0 20 16 34.5t35 14.5q20 0 34.5 -14.5t14.5 -34.5v-47 q0 -20 -14.5 -35.5t-34.5 -15.5q-19 0 -35 15.5t-16 35.5z" />
<glyph unicode="k" horiz-adv-x="1146" d="M190 49v1335q0 20 15 35t35 15q22 0 36.5 -15t14.5 -35v-964l594 592q15 15 34.5 15t34.5 -15q15 -14 15 -34.5t-15 -35.5l-387 -387l389 -473q13 -17 12 -37t-16 -35q-12 -10 -32 -10q-29 0 -39 18l-385 465l-205 -204v-230q0 -20 -14.5 -34.5t-36.5 -14.5 q-20 0 -35 14.5t-15 34.5z" />
<glyph unicode="l" horiz-adv-x="509" d="M205 49v1335q0 20 14.5 35t34.5 15q22 0 36.5 -15t14.5 -35v-1335q0 -20 -14.5 -34.5t-36.5 -14.5q-20 0 -34.5 14.5t-14.5 34.5z" />
<glyph unicode="m" horiz-adv-x="1947" d="M190 37v10v547v16v344q0 20 14.5 33.5t33.5 13.5q22 0 35.5 -13.5t13.5 -33.5v-96q57 67 137 105t172 38q115 0 209.5 -58t148.5 -155q55 97 151 155t210 58q169 0 288 -119t119 -288v-547q0 -19 -14 -33t-35 -14q-20 0 -33.5 14t-13.5 33v547q-3 129 -93 220t-218 91 q-127 0 -218 -91.5t-91 -219.5v-547v-6l-2 -4v-4q-5 -15 -25 -27q-12 -6 -25 -6h-6h-4l-4 2l-12 6q-2 0 -6 4l-7 6q-1 1 -2 3t-2 2q0 2 -2 4q0 2 -2 4q0 4 -2 6v6v4v547q0 128 -90.5 219.5t-218.5 91.5t-218.5 -91.5t-90.5 -219.5v-547q0 -26 -23 -39q-6 -6 -12 -6 q-2 -2 -8 -2h-6h-7q-13 1 -24.5 12t-16.5 25z" />
<glyph unicode="n" d="M190 37v12v545v16v342q0 20 14 34.5t36 14.5q20 0 33.5 -14.5t13.5 -34.5v-96q57 67 138 106t173 39q168 0 288 -119.5t120 -287.5v-545q0 -21 -14.5 -35t-35.5 -14t-35 14t-14 35v545q0 128 -90 218.5t-219 90.5q-127 0 -217.5 -90.5t-93.5 -218.5v-545v-8 q-4 -16 -11 -23q-12 -18 -36 -18h-13q-22 6 -32 27q-2 2 -2 6z" />
<glyph unicode="o" horiz-adv-x="1280" d="M143 502q0 134 63.5 249.5t173.5 184t238 68.5q129 0 239 -68.5t173.5 -184t63.5 -249.5t-63.5 -249.5t-173.5 -184t-239 -68.5q-128 0 -238 68.5t-173.5 184t-63.5 249.5zM242 502q0 -167 111 -285.5t265 -118.5t265.5 118.5t111.5 285.5t-111.5 286t-265.5 119 t-265 -119t-111 -286z" />
<glyph unicode="p" horiz-adv-x="1351" d="M190 -371v856v21v20v428q0 20 15 35t35 15q22 0 36.5 -15t14.5 -35v-145q66 90 166 142.5t215 52.5q133 0 244.5 -67t176 -181.5t64.5 -249.5q0 -134 -64.5 -249t-176.5 -183t-244 -68q-115 0 -215 53t-166 144v-574q0 -20 -14.5 -34.5t-36.5 -14.5q-20 0 -35 14.5 t-15 34.5zM291 506q0 -165 112.5 -282.5t268.5 -119.5q160 2 272.5 119t112.5 283t-112.5 281.5t-272.5 115.5q-153 0 -264 -111t-117 -270v-16z" />
<glyph unicode="q" horiz-adv-x="1351" d="M123 506q0 135 64.5 249.5t175.5 181.5t241 67q116 0 216.5 -53t168.5 -144v147q0 20 14.5 35t34.5 15q23 0 37.5 -14.5t14.5 -35.5v-428v-20v-21v-856q0 -21 -14.5 -35t-37.5 -14q-20 0 -34.5 14.5t-14.5 34.5v574q-68 -92 -168.5 -145.5t-216.5 -53.5q-97 1 -186 41.5 t-153.5 108t-103 160t-38.5 192.5zM223 506q0 -165 112 -282.5t269 -119.5q160 2 272.5 119t112.5 283q0 167 -112.5 282t-272.5 115q-158 0 -269.5 -115.5t-111.5 -281.5z" />
<glyph unicode="r" horiz-adv-x="899" d="M190 49v903q0 21 15 35t37 14q19 0 33 -14t14 -35v-221q9 19 14 25q67 104 168 174.5t234 70.5q21 0 35 -14t14 -35q0 -20 -14.5 -34.5t-34.5 -14.5q-163 0 -291 -164q-76 -100 -121 -233q-4 -8 -4 -17v-440q0 -21 -14 -35t-33 -14q-22 0 -37 14t-15 35z" />
<glyph unicode="s" horiz-adv-x="1007" d="M110 179q0 16 11 30q12 15 32 17t37 -11q161 -117 308 -117q115 0 190 62q76 51 76 123q-2 35 -18 63t-54 60q-63 49 -213 73l-4 2q-157 28 -227 78q-49 29 -79 76t-30 104q0 58 29.5 109t79.5 88q98 68 246 68q46 0 87.5 -8.5t83.5 -29t63.5 -32.5t64.5 -39 q17 -12 21 -32.5t-7 -37.5q-10 -17 -30.5 -21t-37.5 7q-53 35 -78 50t-73 32.5t-94 17.5q-121 0 -191 -57q-63 -51 -63 -115q0 -55 57 -100q72 -50 205 -70h4q131 -19 244 -82q51 -33 81.5 -87.5t30.5 -116.5q0 -117 -114 -203q-110 -80 -250 -80q-196 2 -371 143 q-17 14 -17 36z" />
<glyph unicode="t" horiz-adv-x="819" d="M86 954q0 12 1 18.5t5 15t15 12.5t28 4h125v372q0 19 15 34t34 15q20 0 36.5 -15t16.5 -34v-372h130q19 0 34 -15.5t15 -34.5t-15 -34t-34 -15h-130v-731q0 -33 25.5 -53.5t48.5 -20.5q19 0 35 -16t16 -35t-16 -34t-35 -15q-75 0 -125.5 49.5t-50.5 124.5v731h-125 q-23 0 -34.5 8t-13 16t-1.5 25z" />
<glyph unicode="u" d="M170 410v546q0 22 14 36t35 14t35 -14t14 -36v-546q0 -129 89.5 -219.5t217.5 -92.5q129 2 220.5 92.5t91.5 219.5v546q0 21 15 35.5t34 14.5q22 0 36.5 -14t14.5 -36v-546q0 -169 -120.5 -289.5t-291.5 -120.5q-168 0 -286.5 120.5t-118.5 289.5z" />
<glyph unicode="v" horiz-adv-x="1191" d="M119 928q-4 10 -3.5 19t3.5 18q7 18 24 26q10 4 19.5 4t19.5 -4q20 -8 25 -26l334 -791l333 791q6 18 26 26q10 4 19 4t19 -4q19 -7 26 -25q3 -9 3 -18q0 -10 -4 -20l-375 -889q-3 -11 -13 -25q-11 -14 -32 -14q-11 0 -17 2q-2 0 -4 2q-2 0 -10 4q-11 11 -16 23z" />
<glyph unicode="w" horiz-adv-x="1763" d="M129 928q-3 9 -3 18q0 10 4 19q8 18 24 26q10 4 19 4l19 -4q19 -8 25 -26l334 -791l231 551q6 13 19.5 22t27.5 9q15 0 29.5 -9t20.5 -22l231 -551l332 791q6 18 26 26q10 4 19 4t18 -4q19 -8 27 -26q4 -9 3 -19q0 -9 -3 -18l-375 -893q-7 -16 -18 -25q-13 -10 -25 -10 h-4h-6q-13 2 -24.5 10.5t-14.5 20.5l-2 2l-234 555l-231 -553q-2 -2 -2 -4q-4 -13 -17 -22t-26 -9q-6 0 -18 4q-5 0 -9 4q-13 5 -20 23z" />
<glyph unicode="x" horiz-adv-x="1167" d="M144 42q-1 4 -1 8q0 15 9 28l307 420l-307 422q-9 15 -9 30q0 4 1 8q3 19 18 31q12 9 27 9q4 0 9 -1q21 -3 31 -20l291 -395l289 395q12 17 32 20q4 1 8 1q15 0 25 -9q24 -15 24 -38q0 -14 -9 -31l-309 -422l309 -420q8 -12 8 -26q0 -4 -1 -10q-4 -20 -22 -32 q-10 -10 -24 -10q-30 0 -41 20l-289 396l-291 -396q-11 -20 -39 -20q-11 0 -28 10q-15 12 -18 32z" />
<glyph unicode="y" horiz-adv-x="1204" d="M106 412v544q0 20 14.5 34t33.5 14q22 0 36.5 -14t14.5 -34v-544q0 -129 89.5 -219.5t217.5 -90.5q129 0 219 90.5t92 219.5v544q0 17 8 25q0 1 1.5 3t1.5 3q1 0 2 1t2 1q5 8 18 12h4q1 0 3 1.5t3 1.5h6h7q4 -1 24 -11q10 -10 12 -16q7 -11 7 -21v-544v-19v-313 q0 -196 -140 -333.5t-338 -137.5q-104 0 -206 47q-17 11 -23.5 29.5t2.5 35.5q13 28 44 28q9 0 20 -3q76 -39 163 -39q157 0 267 109t112 264v65q-59 -67 -139.5 -105t-171.5 -38q-168 2 -287 122t-119 288z" />
<glyph unicode="z" horiz-adv-x="1134" d="M125 49v2q0 22 16 35l592 811h-559q-20 0 -34.5 14.5t-14.5 34.5q0 21 14 35t35 14h649q4 1 7 1q14 0 28 -9l6 -6l2 -2q14 -14 14 -30q0 -7 -3 -15q-4 -18 -19 -27l-590 -809h561q21 0 35.5 -14t14.5 -35t-14.5 -35t-35.5 -14h-655q-15 0 -27.5 8.5t-17.5 20.5l-2 2 q-2 6 -2 18z" />
<glyph unicode="{" horiz-adv-x="983" d="M113 588q0 39 49 39q77 0 129 17.5t79.5 53t38.5 80.5t11 109v162q0 85 16 144.5t59.5 113t126 90.5t209.5 63q18 3 30.5 -6t12.5 -27q0 -24 -24 -32q-90 -24 -148.5 -49t-95.5 -52t-55.5 -67.5t-24.5 -82t-6 -108.5v-153q0 -129 -54 -196t-159 -99q110 -36 161.5 -100.5 t51.5 -194.5v-154q0 -56 3.5 -92.5t16 -73t34 -61t59 -49t90 -43.5t127.5 -39q24 -8 24 -33q0 -18 -12.5 -27t-30.5 -6q-127 26 -209.5 63t-126 91t-59.5 113.5t-16 144.5v162q0 64 -11 109t-38.5 80.5t-79.5 53t-129 17.5q-49 0 -49 39z" />
<glyph unicode="|" horiz-adv-x="585" d="M248 -225v1822q0 19 13 32t32 13t32 -13t13 -32v-1822q0 -19 -13 -32t-32 -13t-32 13t-13 32z" />
<glyph unicode="}" horiz-adv-x="983" d="M109 -252q0 25 24 33q75 20 127.5 39t90 43.5t59 49t34 61t16 73t3.5 92.5v154q0 129 54 196t159 99q-110 36 -161.5 100.5t-51.5 194.5v153q0 67 -6 108.5t-24.5 82t-55.5 67.5t-95.5 52t-148.5 49q-24 8 -24 32q0 18 12.5 27t30.5 6q127 -26 209.5 -63t126 -90.5 t59.5 -113t16 -144.5v-162q0 -64 11 -109t38.5 -80.5t79.5 -53t129 -17.5q49 0 49 -39t-49 -39q-77 0 -129 -17.5t-79.5 -53t-38.5 -80.5t-11 -109v-162q0 -85 -16 -144.5t-59.5 -113.5t-126 -91t-209.5 -63q-18 -3 -30.5 6t-12.5 27z" />
<glyph unicode="~" horiz-adv-x="942" d="M174 526q0 13 4 25q28 86 66 120t96 34q40 0 134 -42t128 -42q33 0 53 17.5t39 59.5q14 29 37 29q15 0 26 -10t11 -25q0 -12 -4 -24q-28 -86 -66 -120t-96 -34q-40 0 -134 42t-128 42q-33 0 -53 -17.5t-39 -60.5q-14 -28 -37 -28q-15 0 -26 9.5t-11 24.5z" />
<glyph unicode="&#xa1;" horiz-adv-x="516" d="M190 49v1028q0 21 15 36t35 15q22 0 36.5 -14.5t14.5 -36.5v-1028q0 -20 -14.5 -34.5t-36.5 -14.5q-20 0 -35 14.5t-15 34.5zM190 1335v49q0 20 15 35t35 15q22 0 36.5 -15t14.5 -35v-49q0 -20 -14.5 -34.5t-36.5 -14.5q-20 0 -35 14.5t-15 34.5z" />
<glyph unicode="&#xa2;" horiz-adv-x="1189" d="M127 723v4q0 145 70 270.5t193 201t269 75.5h31l27 139q3 16 16.5 28.5t32.5 12.5q25 0 40 -18t9 -45l-27 -131q136 -33 265 -154q18 -18 18 -41q0 -22 -13.5 -36.5t-35.5 -14.5q-23 0 -39 16q-110 107 -219 135l-172 -884q44 -7 74 -7q177 0 327 150q18 18 39 18 q19 0 32 -14t13 -33t-14 -33q-172 -182 -404 -182q-52 0 -79 4l-33 -164q-3 -16 -16.5 -28t-32.5 -12q-25 0 -40 18t-9 45l34 168q-159 56 -257.5 197t-98.5 315zM236 727q0 -143 75 -257.5t197 -164.5l168 875h-19q-178 0 -299.5 -130.5t-121.5 -318.5v-4z" />
<glyph unicode="&#xa3;" horiz-adv-x="1318" d="M135 27q0 22 25 28l159 37v533h-135q-20 0 -34.5 14.5t-14.5 34.5t14.5 34.5t34.5 14.5h135v242q0 236 134 370q119 119 307 119q140 0 236.5 -50t172.5 -140q15 -19 15 -39q0 -22 -14.5 -35.5t-36.5 -13.5q-23 0 -41 18q-70 80 -146 122t-188 42q-144 0 -232 -88 q-102 -102 -102 -303v-244h569q20 0 34.5 -14.5t14.5 -34.5t-14.5 -34.5t-34.5 -14.5h-569v-529h725q20 0 34.5 -14.5t14.5 -34.5t-14.5 -33.5t-34.5 -13.5h-987q-10 0 -18.5 8t-8.5 19z" />
<glyph unicode="&#xa5;" horiz-adv-x="1404" d="M115 1384q3 21 18 31q17 14 38.5 11.5t31.5 -19.5l448 -616l451 616q10 17 31 19.5t38 -11.5q17 -10 20 -31t-9 -38l-422 -574h258q25 0 41 -16t16 -41q0 -23 -16.5 -39.5t-40.5 -16.5h-316v-204h316q24 0 40.5 -17t16.5 -39q0 -25 -16 -41t-41 -16h-316v-293 q0 -21 -14 -35t-35 -14q-20 0 -34.5 14.5t-14.5 34.5v293h-315q-25 0 -41.5 16t-16.5 41q0 22 17 39t41 17h315v204h-315q-25 0 -41.5 16.5t-16.5 39.5q0 25 16.5 41t41.5 16h254l-420 574q-11 17 -8 38z" />
<glyph unicode="&#xa8;" horiz-adv-x="1024" d="M272 1305q0 37 25.5 62.5t62.5 25.5t63 -25.5t26 -62.5t-26 -62.5t-63 -25.5t-62.5 25.5t-25.5 62.5zM610 1305q0 37 25.5 62.5t62.5 25.5t62.5 -25.5t25.5 -62.5t-25.5 -62.5t-62.5 -25.5t-62.5 25.5t-25.5 62.5z" />
<glyph unicode="&#xa9;" horiz-adv-x="1699" d="M109 713v4q0 149 58 285.5t157 236.5t237 159.5t291 59.5t290.5 -59t235.5 -158t155.5 -235t57.5 -285v-4q0 -149 -58 -285.5t-157 -237t-237 -160t-291 -59.5t-290.5 59t-235.5 158.5t-155.5 235.5t-57.5 285zM170 713q0 -186 88 -341.5t244 -247t346 -91.5 q191 0 348 92.5t245.5 249t88.5 342.5v4q0 186 -88 341.5t-244 247t-346 91.5q-191 0 -348 -92.5t-245.5 -249t-88.5 -342.5v-4zM485 725v4q0 158 109 272.5t266 114.5q146 0 264 -102q19 -15 19 -37q0 -19 -13 -31t-32 -12q-16 0 -33 14q-101 86 -207 86 q-120 0 -201.5 -88.5t-81.5 -214.5v-4q0 -125 83.5 -215t201.5 -90t217 90q15 10 29 10q17 0 29 -12t12 -29q0 -20 -14 -30q-64 -55 -126.5 -83t-148.5 -28q-157 0 -265 113t-108 272z" />
<glyph unicode="&#xaa;" horiz-adv-x="798" d="M119 1098q0 131 87.5 224t213.5 93q72 0 134.5 -33.5t104.5 -91.5v94q0 12 9.5 21.5t21.5 9.5t22.5 -9.5t10.5 -21.5v-575q0 -12 -10.5 -21.5t-22.5 -9.5t-21.5 9.5t-9.5 21.5v96q-42 -59 -104.5 -93t-134.5 -34q-125 0 -213 94.5t-88 225.5zM176 641q0 17 12 29t29 12 h451q17 0 29 -12t12 -29t-12 -29t-29 -12h-451q-17 0 -29 12t-12 29zM182 1098q0 -108 70 -182t168 -74q100 0 169.5 74t69.5 182q0 106 -69.5 181t-169.5 75q-97 0 -167.5 -75.5t-70.5 -180.5z" />
<glyph unicode="&#xab;" horiz-adv-x="1054" d="M113 522q0 19 20 45l281 367q16 22 39 22q19 0 32 -12t13 -31q0 -18 -13 -34l-258 -355l258 -358q13 -16 13 -35t-13 -31t-32 -12q-23 0 -39 23l-281 366q-20 26 -20 45zM530 522q0 18 21 45l280 367q16 22 39 22q19 0 32 -12t13 -31t-12 -34l-258 -355l258 -358 q12 -18 12 -35q-2 -19 -14 -31t-31 -12q-23 0 -39 23l-280 366q-21 27 -21 45z" />
<glyph unicode="&#xad;" horiz-adv-x="835" d="M135 713q0 17 11 27t28 10h436q16 0 27.5 -10t11.5 -27q0 -18 -11.5 -29.5t-27.5 -11.5h-436q-17 0 -28 11t-11 30z" />
<glyph unicode="&#xae;" horiz-adv-x="851" d="M70 1094v2q0 147 104 252.5t252 105.5q150 0 253 -104.5t103 -251.5v-2q0 -147 -104 -253t-252 -106q-150 0 -253 105t-103 252zM111 1094q0 -132 90.5 -225t224.5 -93q132 0 223.5 94t91.5 226v2q0 132 -90.5 224.5t-224.5 92.5q-132 0 -223.5 -93.5t-91.5 -225.5v-2z M295 881q0 -17 16 -17q6 0 11.5 5t5.5 12v178h108l2 -2q33 -8 54 -23q36 -25 36 -69q0 -51 13 -74q9 -21 28 -21h2q1 0 4.5 1t4.5 1q11 4 8 21q-3 10 -17 10q-4 2 -6 10q-6 15 -6 52q0 36 -17.5 62.5t-43.5 39.5q-4 0 -6 2q33 15 53 47t20 70q0 54 -37 91.5t-90 37.5h-125 h-2h-2q-6 0 -10 -5.5t-4 -11.5v-417zM328 1090v192h110q40 0 68.5 -28t28.5 -68q0 -38 -28.5 -67t-66.5 -29h-6h-106z" />
<glyph unicode="&#xb0;" horiz-adv-x="921" d="M152 1143v4q0 119 93.5 209t215.5 90t215.5 -90t93.5 -209v-4q0 -119 -93.5 -209t-215.5 -90t-215.5 90t-93.5 209zM254 1143q0 -84 60 -146.5t147 -62.5t147 62.5t60 146.5v4q0 84 -60 146.5t-147 62.5t-147 -62.5t-60 -146.5v-4z" />
<glyph unicode="&#xb2;" horiz-adv-x="811" />
<glyph unicode="&#xb4;" horiz-adv-x="1024" d="M412 1231q0 10 8 22l127 191q24 37 57 37q29 0 57.5 -16t28.5 -31t-22 -37l-164 -158q-29 -27 -66 -27q-10 0 -18 5.5t-8 13.5z" />
<glyph unicode="&#xb6;" horiz-adv-x="983" d="M109 999v5q0 198 147 314t383 116h96q23 0 39.5 -16.5t16.5 -39.5v-1333q0 -23 -15.5 -38t-38.5 -15t-39 15t-16 38v522h-12q-159 0 -285 49.5t-201 149t-75 233.5z" />
<glyph unicode="&#xb7;" horiz-adv-x="471" d="M168 582v55q0 29 19.5 48.5t48.5 19.5t48 -19.5t19 -48.5v-55q0 -29 -19 -48.5t-48 -19.5t-48.5 19.5t-19.5 48.5z" />
<glyph unicode="&#xb8;" horiz-adv-x="1024" d="M348 -242q0 14 10 31l158 231h88l-133 -270q-10 -22 -21 -31.5t-32 -9.5q-25 0 -47.5 16t-22.5 33z" />
<glyph unicode="&#xba;" horiz-adv-x="798" d="M96 641q0 17 12 29t29 12h525q17 0 28.5 -12t11.5 -29t-11.5 -29t-28.5 -12h-525q-17 0 -29 12t-12 29zM104 1139v4q0 124 85 212.5t212 88.5q125 0 209 -87.5t84 -209.5v-4q0 -124 -85 -212.5t-212 -88.5q-125 0 -209 87.5t-84 209.5zM193 1143q0 -93 59.5 -157 t148.5 -64t147 63t58 154v4q0 93 -60 157t-149 64t-146.5 -63t-57.5 -154v-4z" />
<glyph unicode="&#xbb;" horiz-adv-x="1054" d="M139 131q0 19 13 35l258 354l-258 359q-15 22 -13 34q2 19 14 31t31 12q23 0 39 -22l281 -367q20 -26 20 -45t-20 -45l-281 -366q-16 -23 -39 -23q-19 0 -32 12t-13 31zM557 131q0 20 12 35l258 354l-258 359q-12 15 -12 34t13 31t32 12q23 0 39 -22l281 -367 q20 -26 20 -45t-20 -45l-281 -366q-16 -23 -39 -23q-19 0 -32 12t-13 31z" />
<glyph unicode="&#xbf;" horiz-adv-x="1093" d="M114.5 257.5q4.5 19.5 22.5 29.5t37.5 4.5t28.5 -21.5q45 -80 124 -127t175 -47q145 2 245.5 102t100.5 246q0 143 -101 245t-245 102q-19 0 -33 13.5t-14 33.5v2v6v256q0 20 14 33.5t33 13.5q20 0 34.5 -13.5t14.5 -33.5v-219q166 -19 279.5 -145t113.5 -294 q0 -184 -129.5 -314t-312.5 -130q-121 0 -222 60t-159 161q-11 17 -6.5 36.5zM455 1341v45q0 20 14 34t33 14q20 0 34.5 -14t14.5 -34v-45q0 -20 -14.5 -34.5t-34.5 -14.5q-19 0 -33 14.5t-14 34.5z" />
<glyph unicode="&#xc0;" horiz-adv-x="1329" d="M123 68q-7 -19 1.5 -38.5t27.5 -27.5q3 0 9.5 -1t8.5 -1q34 0 47 33l127 338h653l127 -338q6 -15 19.5 -24t27.5 -9q3 0 9 1t10 1q19 7 27 27t0 39l-498 1329q-10 30 -49 30q-15 0 -29 -8.5t-20 -21.5zM381 471l291 770l289 -770h-580zM530 1843q0 15 28.5 31t57.5 16 q34 0 58 -37l127 -190q8 -12 8 -23q0 -7 -8 -12.5t-19 -5.5q-36 0 -65 27l-164 157q-23 23 -23 37z" />
<glyph unicode="&#xc1;" horiz-adv-x="1323" d="M123 68q-7 -19 1.5 -38.5t27.5 -27.5q3 0 9.5 -1t8.5 -1q34 0 47 33l127 338h653l127 -338q6 -15 19.5 -24t27.5 -9q3 0 9 1t10 1q19 7 27 27t0 39l-498 1329q-10 30 -49 30q-15 0 -29 -8.5t-20 -21.5zM381 471l291 770l289 -770h-580zM532 1640q0 9 9 23l127 190 q24 37 57 37q29 0 57.5 -16t28.5 -31q0 -14 -23 -37l-163 -157q-29 -27 -66 -27q-11 0 -19 5.5t-8 12.5z" />
<glyph unicode="&#xc2;" horiz-adv-x="1359" d="M125 68q-7 -19 1.5 -38.5t27.5 -27.5q3 0 9.5 -1t8.5 -1q34 0 47 33l127 338h653l127 -338q6 -15 20 -24t28 -9q3 0 8.5 1t9.5 1q19 7 27 27t0 39l-498 1329q-10 30 -49 30q-15 0 -29 -8.5t-20 -21.5zM383 471l291 770l289 -770h-580zM451 1642q0 12 10 25l147 180 q29 37 58 37h16q28 0 57 -37l148 -180q10 -12 10 -25q0 -8 -8 -14t-21 -6q-38 0 -67 27l-129 118l-129 -118q-29 -27 -66 -27q-11 0 -18.5 6t-7.5 14z" />
<glyph unicode="&#xc3;" horiz-adv-x="1359" d="M125 68q-7 -19 1.5 -38.5t27.5 -27.5q3 0 9.5 -1t8.5 -1q34 0 47 33l127 338h653l127 -338q6 -15 20 -24t28 -9q3 0 8.5 1t9.5 1q19 7 27 27t0 39l-498 1329q-10 30 -49 30q-15 0 -29 -8.5t-20 -21.5zM377 1640q0 13 4 25q28 86 66 120t96 34q40 0 134 -42t128 -42 q33 0 53 17.5t39 59.5q15 29 37 29q15 0 26 -10t11 -25q0 -12 -4 -24q-28 -86 -66 -120t-96 -34q-40 0 -134 42t-128 42q-33 0 -53 -17.5t-39 -60.5q-14 -28 -37 -28q-15 0 -26 9.5t-11 24.5zM383 471l291 770l289 -770h-580z" />
<glyph unicode="&#xc4;" horiz-adv-x="1357" d="M125 68q-7 -19 1.5 -38.5t27.5 -27.5q3 0 9.5 -1t8.5 -1q34 0 47 33l127 338h653l127 -338q6 -15 20 -24t28 -9q3 0 8.5 1t9.5 1q19 7 27 27t0 39l-498 1329q-10 30 -49 30q-15 0 -29 -8.5t-20 -21.5zM383 471l291 770l289 -770h-580zM418 1714q0 37 25.5 62.5t62.5 25.5 t62.5 -25.5t25.5 -62.5t-25.5 -62.5t-62.5 -25.5t-62.5 25.5t-25.5 62.5zM756 1714q0 37 25.5 62.5t62.5 25.5t62.5 -25.5t25.5 -62.5t-25.5 -62.5t-62.5 -25.5t-62.5 25.5t-25.5 62.5z" />
<glyph unicode="&#xc5;" horiz-adv-x="1323" d="M98 68l461 1228q-41 24 -66.5 65.5t-25.5 86.5v2q0 73 55.5 126.5t126.5 53.5q75 0 132 -53.5t57 -126.5v-2q0 -49 -29 -91.5t-76 -66.5l459 -1222q8 -19 0 -39t-27 -27q-4 0 -9.5 -1t-8.5 -1q-14 0 -27.5 9t-19.5 24l-127 338h-654l-126 -338q-13 -33 -48 -33 q-2 0 -8.5 1t-9.5 1q-19 8 -27.5 27.5t-1.5 38.5zM356 471h580l-289 770zM555 1448q0 -44 33 -70q27 -24 61 -24q30 0 56 16q45 25 45 78v2q0 40 -29 70t-72 30q-38 0 -66 -30.5t-28 -69.5v-2z" />
<glyph unicode="&#xc6;" horiz-adv-x="2140" d="M72 39q0 12 10 29l807 1333q20 33 53 33h1018q20 0 34.5 -15t14.5 -35t-14.5 -34.5t-34.5 -14.5h-842v-563h750q20 0 34.5 -14.5t14.5 -34.5t-14.5 -34.5t-34.5 -14.5h-750v-576h852q20 0 34.5 -14.5t14.5 -34.5t-14.5 -34.5t-34.5 -14.5h-905q-22 0 -37.5 15.5 t-15.5 37.5v348h-615l-231 -385q-16 -26 -45 -26q-20 0 -34.5 14.5t-14.5 34.5zM455 498h557v839h-54z" />
<glyph unicode="&#xc7;" horiz-adv-x="1579" d="M150 723q0 200 99.5 368t271 265t374.5 98q257 0 463 -158q17 -13 19.5 -35.5t-11.5 -35.5q-12 -18 -33.5 -21t-36.5 10q-181 140 -401 140q-132 0 -251.5 -50t-205.5 -134t-137 -201t-51 -246q0 -168 86 -311.5t234.5 -227.5t324.5 -84q232 0 397 140q19 12 40.5 8.5 t31.5 -21.5q15 -13 13 -36t-19 -35q-203 -156 -463 -156q-152 0 -290 57.5t-237.5 154t-158.5 230.5t-59 281zM661 -242q0 14 10 31l158 231h88l-133 -270q-10 -22 -21 -31.5t-32 -9.5q-25 0 -47.5 16t-22.5 33z" />
<glyph unicode="&#xc8;" horiz-adv-x="1214" d="M213 49q0 -20 13 -33.5t32 -15.5h4h6h731q21 0 35.5 14t14.5 35q0 22 -14 36.5t-36 14.5h-686v566h600q20 0 35 14.5t15 34.5q0 21 -14.5 36t-35.5 15h-600v567h686q22 0 36 14.5t14 36.5q0 21 -14.5 35.5t-35.5 14.5h-733h-4q-20 0 -34.5 -15t-14.5 -35v-1335zM494 1843 q0 15 28.5 31t57.5 16q33 0 57 -37l127 -190q8 -12 8 -23q0 -7 -8 -12.5t-19 -5.5q-36 0 -65 27l-164 157q-22 22 -22 37z" />
<glyph unicode="&#xc9;" horiz-adv-x="1214" d="M213 49q0 -20 13 -33.5t32 -15.5h4h6h731q21 0 35.5 14t14.5 35q0 22 -14 36.5t-36 14.5h-686v566h600q20 0 35 14.5t15 34.5q0 21 -14.5 36t-35.5 15h-600v567h686q22 0 36 14.5t14 36.5q0 21 -14.5 35.5t-35.5 14.5h-733h-4q-20 0 -34.5 -15t-14.5 -35v-1335zM487 1640 q0 9 9 23l127 190q24 37 57 37q29 0 57.5 -16t28.5 -31q0 -14 -23 -37l-163 -157q-29 -27 -66 -27q-11 0 -19 5.5t-8 12.5z" />
<glyph unicode="&#xca;" horiz-adv-x="1214" d="M213 49v1335q0 20 14.5 35t34.5 15h4h733q21 0 35.5 -14.5t14.5 -35.5q0 -22 -14 -36.5t-36 -14.5h-686v-567h600q21 0 35.5 -15t14.5 -36q0 -20 -15 -34.5t-35 -14.5h-600v-566h686q22 0 36 -14.5t14 -36.5q0 -21 -14.5 -35t-35.5 -14h-731h-6h-4q-19 2 -32 15.5 t-13 33.5zM404 1643q0 11 10 24l147 181q29 37 58 37h16q29 0 58 -37l147 -181q10 -12 10 -24q0 -8 -7.5 -14.5t-20.5 -6.5q-39 0 -68 27l-129 119l-129 -119q-29 -27 -66 -27q-11 0 -18.5 6.5t-7.5 14.5z" />
<glyph unicode="&#xcb;" horiz-adv-x="1372" d="M213 49q0 -20 13 -33.5t32 -15.5h4h6h731q21 0 35.5 14t14.5 35q0 22 -14 36.5t-36 14.5h-686v566h600q20 0 35 14.5t15 34.5q0 21 -14.5 36t-35.5 15h-600v567h686q22 0 36 14.5t14 36.5q0 21 -14.5 35.5t-35.5 14.5h-733h-4q-20 0 -34.5 -15t-14.5 -35v-1335zM371 1714 q0 37 25.5 62.5t62.5 25.5t62.5 -25.5t25.5 -62.5t-25.5 -62.5t-62.5 -25.5t-62.5 25.5t-25.5 62.5zM709 1714q0 37 25.5 62.5t62.5 25.5t62.5 -25.5t25.5 -62.5t-25.5 -62.5t-62.5 -25.5t-62.5 25.5t-25.5 62.5z" />
<glyph unicode="&#xcc;" horiz-adv-x="712" d="M303 1843q0 15 28.5 31t57.5 16q33 0 57 -37l127 -190q9 -14 9 -23q0 -7 -8 -12.5t-19 -5.5q-37 0 -66 27l-163 157q-23 23 -23 37zM391 49q0 -20 14.5 -34.5t34.5 -14.5q22 0 37 14.5t15 34.5v1335q0 20 -15 35t-37 15q-20 0 -34.5 -15t-14.5 -35v-1335z" />
<glyph unicode="&#xcd;" horiz-adv-x="561" d="M170 1640q0 11 8 23l127 190q24 37 57 37q29 0 58 -16t29 -31q0 -14 -23 -37l-164 -157q-29 -27 -65 -27q-11 0 -19 5.5t-8 12.5zM260 49q0 -20 14.5 -34.5t34.5 -14.5q22 0 36.5 14.5t14.5 34.5v1335q0 20 -15 35t-36 15q-20 0 -34.5 -15t-14.5 -35v-1335z" />
<glyph unicode="&#xce;" horiz-adv-x="561" d="M2 1642q0 12 10 25l148 180q29 37 57 37h16q29 0 58 -37l147 -180q11 -14 11 -25q0 -8 -8 -14t-21 -6q-39 0 -68 27l-129 118l-129 -118q-29 -27 -65 -27q-12 0 -19.5 6t-7.5 14zM176 49q0 -20 14.5 -34.5t34.5 -14.5q22 0 36.5 14.5t14.5 34.5v1335q0 20 -15 35t-36 15 q-20 0 -34.5 -15t-14.5 -35v-1335z" />
<glyph unicode="&#xcf;" horiz-adv-x="561" d="M-16 1714q0 37 25.5 62.5t62.5 25.5t62.5 -25.5t25.5 -62.5t-25.5 -62.5t-62.5 -25.5t-62.5 25.5t-25.5 62.5zM190 49q0 -20 15 -34.5t35 -14.5q22 0 36.5 14.5t14.5 34.5v1335q0 20 -14.5 35t-36.5 15q-20 0 -35 -15t-15 -35v-1335zM322 1714q0 37 25.5 62.5t62.5 25.5 t62.5 -25.5t25.5 -62.5t-25.5 -62.5t-62.5 -25.5t-62.5 25.5t-25.5 62.5z" />
<glyph unicode="&#xd0;" horiz-adv-x="1662" d="M113 717q0 17 11 27t28 10h172v630q0 20 14.5 35t34.5 15h268q145 0 278 -57t229 -153.5t153 -229.5t57 -279q0 -145 -57 -277.5t-153 -228.5t-228.5 -152.5t-278.5 -56.5h-272q-19 2 -32 15.5t-13 33.5v627h-172q-17 0 -28 11t-11 30zM424 100h217q125 0 239 48.5 t196.5 131t131.5 196.5t49 239q0 168 -82.5 310t-224.5 224.5t-309 83.5h-217v-579h164q16 0 27.5 -10t11.5 -27q0 -18 -11.5 -29.5t-27.5 -11.5h-164v-576z" />
<glyph unicode="&#xd1;" horiz-adv-x="1617" d="M219 49q0 -20 14.5 -34.5t34.5 -14.5t34.5 14.5t14.5 34.5v1174l861 -1196q1 -2 8 -9q15 -18 39 -18q22 0 36.5 14.5t14.5 34.5v1321q0 20 -14.5 34.5t-36.5 14.5q-20 0 -34.5 -14.5t-14.5 -34.5v-1167l-869 1204q-10 17 -31 20t-38 -8q-29 -22 -19 -55v-1315zM449 1640 q0 13 4 25q28 86 65.5 120t95.5 34q40 0 134.5 -42t128.5 -42q33 0 53 17.5t39 59.5q15 29 37 29q15 0 25.5 -10t10.5 -25q0 -12 -4 -24q-28 -86 -65.5 -120t-95.5 -34q-40 0 -134.5 42t-128.5 42q-33 0 -53 -17.5t-39 -60.5q-14 -28 -37 -28q-15 0 -25.5 9.5t-10.5 24.5z " />
<glyph unicode="&#xd2;" horiz-adv-x="1740" d="M150 727q1 198 92.5 365t250.5 264.5t349 97.5q188 0 345.5 -97.5t248.5 -264.5t92 -365q-1 -198 -92 -365t-248.5 -264.5t-345.5 -97.5q-190 0 -349 97.5t-250.5 264.5t-92.5 365zM250 727q0 -129 47 -245.5t126.5 -200t189 -132.5t229.5 -49q155 0 289 83t213.5 227.5 t80.5 316.5q-1 130 -48 246.5t-126 199t-185.5 131t-223.5 48.5q-120 0 -229.5 -48.5t-189 -131t-126.5 -199t-47 -246.5zM701 1844q0 15 28.5 31t57.5 16q33 0 57 -37l127 -191q8 -12 8 -22q0 -8 -8 -13.5t-18 -5.5q-37 0 -66 27l-164 158q-22 22 -22 37z" />
<glyph unicode="&#xd3;" horiz-adv-x="1740" d="M150 727q1 -198 92.5 -365t250.5 -264.5t349 -97.5q188 0 345.5 97.5t248.5 264.5t92 365q-1 198 -92 365t-248.5 264.5t-345.5 97.5q-190 0 -349 -97.5t-250.5 -264.5t-92.5 -365zM250 727q0 130 47 246.5t126.5 199t189 131t229.5 48.5q117 0 223.5 -48.5t185.5 -131 t126 -199t48 -246.5q-1 -172 -80.5 -316.5t-213.5 -227.5t-289 -83q-120 0 -229.5 49t-189 132.5t-126.5 200t-47 245.5zM696 1640q0 9 9 23l126 190q24 37 58 37q29 0 57.5 -16t28.5 -31q0 -14 -23 -37l-164 -157q-29 -27 -65 -27q-11 0 -19 5.5t-8 12.5z" />
<glyph unicode="&#xd4;" horiz-adv-x="1740" d="M150 727q1 198 92.5 365t250.5 264.5t349 97.5q188 0 345.5 -97.5t248.5 -264.5t92 -365q-1 -198 -92 -365t-248.5 -264.5t-345.5 -97.5q-190 0 -349 97.5t-250.5 264.5t-92.5 365zM250 727q0 -129 47 -245.5t126.5 -200t189 -132.5t229.5 -49q155 0 289 83t213.5 227.5 t80.5 316.5q-1 130 -48 246.5t-126 199t-185.5 131t-223.5 48.5q-120 0 -229.5 -48.5t-189 -131t-126.5 -199t-47 -246.5zM617 1643q0 11 10 24l147 181q29 37 58 37h16q29 0 58 -37l147 -181q10 -12 10 -24q0 -8 -7.5 -14.5t-20.5 -6.5q-39 0 -68 27l-129 119l-129 -119 q-29 -27 -66 -27q-11 0 -18.5 6.5t-7.5 14.5z" />
<glyph unicode="&#xd5;" horiz-adv-x="1740" d="M150 727q1 -198 92.5 -365t250.5 -264.5t349 -97.5q188 0 345.5 97.5t248.5 264.5t92 365q-1 198 -92 365t-248.5 264.5t-345.5 97.5q-190 0 -349 -97.5t-250.5 -264.5t-92.5 -365zM250 727q0 130 47 246.5t126.5 199t189 131t229.5 48.5q117 0 223.5 -48.5t185.5 -131 t126 -199t48 -246.5q-1 -172 -80.5 -316.5t-213.5 -227.5t-289 -83q-120 0 -229.5 49t-189 132.5t-126.5 200t-47 245.5zM541 1640q0 13 4 25q28 86 66 120t96 34q40 0 134 -42t128 -42q33 0 53 17.5t39 59.5q15 29 37 29q15 0 26 -10t11 -25q0 -9 -5 -24 q-28 -86 -65.5 -120t-95.5 -34q-40 0 -134 42t-128 42q-33 0 -53.5 -18t-39.5 -60q-14 -28 -36 -28q-15 0 -26 9.5t-11 24.5z" />
<glyph unicode="&#xd6;" horiz-adv-x="1740" d="M150 727q1 198 92.5 365t250.5 264.5t349 97.5q188 0 345.5 -97.5t248.5 -264.5t92 -365q-1 -198 -92 -365t-248.5 -264.5t-345.5 -97.5q-190 0 -349 97.5t-250.5 264.5t-92.5 365zM250 727q0 -129 47 -245.5t126.5 -200t189 -132.5t229.5 -49q155 0 289 83t213.5 227.5 t80.5 316.5q-1 130 -48 246.5t-126 199t-185.5 131t-223.5 48.5q-120 0 -229.5 -48.5t-189 -131t-126.5 -199t-47 -246.5zM581 1715q0 37 25.5 62.5t62.5 25.5t63 -25.5t26 -62.5t-26 -62.5t-63 -25.5t-62.5 25.5t-25.5 62.5zM919 1715q0 37 25.5 62.5t62.5 25.5t62.5 -25.5 t25.5 -62.5t-25.5 -62.5t-62.5 -25.5t-62.5 25.5t-25.5 62.5z" />
<glyph unicode="&#xd7;" horiz-adv-x="1269" d="M205 340q0 21 16 37l346 342l-344 340q-18 18 -18 41q0 22 14.5 36.5t36.5 14.5q23 0 41 -18l340 -345l342 347q16 16 37 16q20 0 34.5 -14.5t14.5 -34.5q0 -21 -16 -37l-347 -342l345 -340q18 -18 18 -41q0 -22 -14.5 -36.5t-36.5 -14.5q-23 0 -41 18l-340 344 l-342 -346q-16 -16 -37 -16q-20 0 -34.5 14.5t-14.5 34.5z" />
<glyph unicode="&#xd8;" horiz-adv-x="1740" d="M150 713v4q0 146 52.5 280.5t145 236.5t229.5 163t295 61q269 0 467 -170l138 148q16 16 36 16q19 0 31 -12t12 -31q0 -21 -12 -33l-141 -151q91 -100 139.5 -230.5t48.5 -273.5v-4q0 -146 -52.5 -280.5t-145.5 -237t-230 -163.5t-295 -61q-272 0 -467 168l-137 -145 q-16 -16 -37 -16q-19 0 -31 12t-12 31t13 32l139 150q-89 101 -137.5 232.5t-48.5 273.5zM260 717q0 -248 152 -430l858 921q-170 154 -402 154q-173 0 -313 -86t-217.5 -232.5t-77.5 -322.5v-4zM469 225q169 -153 403 -153q130 0 244 50.5t193.5 137t125.5 204.5t46 249v4 q0 242 -152 428z" />
<glyph unicode="&#xd9;" horiz-adv-x="1556" d="M190 580q0 -157 78 -290.5t211 -211.5t289 -78q119 0 226.5 46t185.5 124t124 185t46 225v804q0 20 -15 35t-37 15q-20 0 -34.5 -15t-14.5 -35v-804q0 -130 -64.5 -240t-175 -174.5t-241.5 -65.5q-129 1 -239 65.5t-174 174.5t-64 240v804q0 20 -14.5 35t-36.5 15 q-20 0 -35 -15t-15 -35v-804zM631 1843q0 15 28.5 31t57.5 16q33 0 57 -37l127 -190q8 -12 8 -23q0 -7 -7.5 -12.5t-18.5 -5.5q-37 0 -66 27l-164 157q-22 22 -22 37z" />
<glyph unicode="&#xda;" horiz-adv-x="1556" d="M190 580q0 -157 78 -290.5t211 -211.5t289 -78q119 0 226.5 46t185.5 124t124 185t46 225v804q0 20 -15 35t-37 15q-20 0 -34.5 -15t-14.5 -35v-804q0 -130 -64.5 -240t-175 -174.5t-241.5 -65.5q-129 1 -239 65.5t-174 174.5t-64 240v804q0 20 -14.5 35t-36.5 15 q-20 0 -35 -15t-15 -35v-804zM631 1640q0 11 8 23l127 190q24 37 57 37q29 0 57.5 -16t28.5 -31t-22 -37l-164 -157q-29 -27 -66 -27q-11 0 -18.5 5.5t-7.5 12.5z" />
<glyph unicode="&#xdb;" horiz-adv-x="1556" d="M190 580q0 -157 78 -290.5t211 -211.5t289 -78q119 0 226.5 46t185.5 124t124 185t46 225v804q0 20 -15 35t-37 15q-20 0 -34.5 -15t-14.5 -35v-804q0 -130 -64.5 -240t-175 -174.5t-241.5 -65.5q-129 1 -239 65.5t-174 174.5t-64 240v804q0 20 -14.5 35t-36.5 15 q-20 0 -35 -15t-15 -35v-804zM549 1642q0 12 10 25l148 180q29 37 57 37h16q29 0 58 -37l147 -180q10 -12 10 -25q0 -8 -7.5 -14t-20.5 -6q-39 0 -68 27l-129 118l-129 -118q-29 -27 -66 -27q-11 0 -18.5 6t-7.5 14z" />
<glyph unicode="&#xdc;" horiz-adv-x="1556" d="M190 580q0 -157 78 -290.5t211 -211.5t289 -78q119 0 226.5 46t185.5 124t124 185t46 225v804q0 20 -15 35t-37 15q-20 0 -34.5 -15t-14.5 -35v-804q0 -130 -64.5 -240t-175 -174.5t-241.5 -65.5q-129 1 -239 65.5t-174 174.5t-64 240v804q0 20 -14.5 35t-36.5 15 q-20 0 -35 -15t-15 -35v-804zM514 1714q0 37 25.5 62.5t62.5 25.5t62.5 -25.5t25.5 -62.5t-25.5 -62.5t-62.5 -25.5t-62.5 25.5t-25.5 62.5zM852 1714q0 37 25.5 62.5t62.5 25.5t62.5 -25.5t25.5 -62.5t-25.5 -62.5t-62.5 -25.5t-62.5 25.5t-25.5 62.5z" />
<glyph unicode="&#xdd;" horiz-adv-x="1466" d="M117 1384q-3 -21 8 -38l481 -658v-639q0 -20 14.5 -34.5t34.5 -14.5q21 0 35.5 14t14.5 35v643l479 654q12 17 9.5 38t-19.5 31q-17 14 -38.5 11.5t-31.5 -19.5l-451 -616l-448 616q-10 17 -31.5 19.5t-38.5 -11.5q-15 -10 -18 -31zM516 1640q0 11 8 23l127 190 q24 37 58 37q29 0 57.5 -16t28.5 -31q0 -14 -23 -37l-164 -157q-29 -27 -65 -27q-11 0 -19 5.5t-8 12.5z" />
<glyph unicode="&#xde;" horiz-adv-x="1378" d="M213 45v1344q0 22 15.5 37.5t37.5 15.5t37.5 -15.5t15.5 -37.5v-215h414q240 0 386.5 -117.5t146.5 -321.5v-4q0 -110 -45 -198.5t-122.5 -144.5t-178 -86t-213.5 -30h-388v-227q0 -22 -15.5 -37.5t-37.5 -15.5t-37.5 15.5t-15.5 37.5zM319 371h394q200 0 323 97.5 t123 256.5v4q0 166 -118 256t-316 90h-406v-704z" />
<glyph unicode="&#xdf;" horiz-adv-x="1269" d="M190 41v983q0 216 123 350.5t328 134.5q182 0 295 -102.5t113 -255.5v-4q0 -72 -27.5 -136.5t-74 -112.5t-102 -83t-118.5 -57q84 -15 156 -43t131 -71.5t93 -108.5t34 -144v-4q0 -182 -141.5 -282.5t-372.5 -108.5q-17 0 -30 13t-13 32q0 18 12.5 30.5t30.5 14.5 q185 10 295 83.5t110 213.5v4q0 68 -30.5 122t-86 90.5t-125.5 60t-155 34.5q-51 7 -51 49q0 38 41 52q315 109 315 348v4q0 117 -85 192.5t-220 75.5q-151 0 -247.5 -106.5t-96.5 -284.5v-983q0 -22 -14.5 -35.5t-36.5 -13.5t-36 13.5t-14 35.5z" />
<glyph unicode="&#xe0;" horiz-adv-x="1175" d="M129 502q0 135 63 250.5t172.5 183.5t239.5 68q113 0 212 -53t165 -144v147q0 22 14.5 36t34.5 14t34.5 -14t14.5 -36v-905q0 -20 -14.5 -34.5t-34.5 -14.5t-34.5 14.5t-14.5 34.5v150q-66 -92 -165 -145.5t-212 -53.5q-130 0 -239.5 68t-172.5 183.5t-63 250.5zM227 502 q0 -168 111 -286t266 -118q156 0 266.5 118t110.5 286t-110.5 286.5t-266.5 118.5q-155 0 -266 -118.5t-111 -286.5zM467 1389q0 15 28.5 31t57.5 16q33 0 57 -37l127 -191q8 -12 8 -22q0 -8 -8 -13.5t-18 -5.5q-37 0 -66 27l-164 158q-22 22 -22 37z" />
<glyph unicode="&#xe1;" horiz-adv-x="1175" d="M129 502q0 135 63 250.5t172.5 183.5t239.5 68q113 0 212 -53t165 -144v147q0 22 14.5 36t34.5 14t34.5 -14t14.5 -36v-905q0 -20 -14.5 -34.5t-34.5 -14.5t-34.5 14.5t-14.5 34.5v150q-66 -92 -165 -145.5t-212 -53.5q-130 0 -239.5 68t-172.5 183.5t-63 250.5zM227 502 q0 -168 111 -286t266 -118q156 0 266.5 118t110.5 286t-110.5 286.5t-266.5 118.5q-155 0 -266 -118.5t-111 -286.5zM465 1186q0 10 8 22l127 191q24 37 57 37q29 0 57.5 -16t28.5 -31t-22 -37l-164 -158q-29 -27 -65 -27q-11 0 -19 6t-8 13z" />
<glyph unicode="&#xe2;" horiz-adv-x="1175" d="M129 502q0 135 63 250.5t172.5 183.5t239.5 68q113 0 212 -53t165 -144v147q0 22 14.5 36t34.5 14t34.5 -14t14.5 -36v-905q0 -20 -14.5 -34.5t-34.5 -14.5t-34.5 14.5t-14.5 34.5v150q-66 -92 -165 -145.5t-212 -53.5q-130 0 -239.5 68t-172.5 183.5t-63 250.5zM227 502 q0 -168 111 -286t266 -118q156 0 266.5 118t110.5 286t-110.5 286.5t-266.5 118.5q-155 0 -266 -118.5t-111 -286.5zM381 1188q0 12 10 24l148 181q29 37 57 37h16q29 0 58 -37l147 -181q10 -13 10 -24q0 -8 -7.5 -14.5t-20.5 -6.5q-39 0 -68 27l-129 119l-129 -119 q-29 -27 -65 -27q-11 0 -19 6.5t-8 14.5z" />
<glyph unicode="&#xe3;" horiz-adv-x="1175" d="M129 502q0 135 63 250.5t172.5 183.5t239.5 68q113 0 212 -53t165 -144v147q0 22 14.5 36t34.5 14t34.5 -14t14.5 -36v-905q0 -20 -14.5 -34.5t-34.5 -14.5t-34.5 14.5t-14.5 34.5v150q-66 -92 -165 -145.5t-212 -53.5q-130 0 -239.5 68t-172.5 183.5t-63 250.5zM227 502 q0 -168 111 -286t266 -118q156 0 266.5 118t110.5 286t-110.5 286.5t-266.5 118.5q-155 0 -266 -118.5t-111 -286.5zM307 1202q0 13 4 25q28 86 66 119.5t96 33.5q40 0 134 -42t128 -42q33 0 53 17.5t39 60.5q15 29 37 29q15 0 26 -10t11 -25q0 -13 -4 -25 q-28 -86 -66 -119.5t-96 -33.5q-40 0 -134 42t-128 42q-33 0 -53 -17.5t-39 -60.5q-15 -29 -37 -29q-15 0 -26 10t-11 25z" />
<glyph unicode="&#xe4;" horiz-adv-x="1175" d="M129 502q0 135 63 250.5t172.5 183.5t239.5 68q113 0 212 -53t165 -144v147q0 22 14.5 36t34.5 14t34.5 -14t14.5 -36v-905q0 -20 -14.5 -34.5t-34.5 -14.5t-34.5 14.5t-14.5 34.5v150q-66 -92 -165 -145.5t-212 -53.5q-130 0 -239.5 68t-172.5 183.5t-63 250.5zM227 502 q0 -168 111 -286t266 -118q156 0 266.5 118t110.5 286t-110.5 286.5t-266.5 118.5q-155 0 -266 -118.5t-111 -286.5zM350 1255q0 37 25.5 62.5t62.5 25.5t62.5 -25.5t25.5 -62.5t-25.5 -62.5t-62.5 -25.5t-62.5 25.5t-25.5 62.5zM688 1255q0 37 25.5 62.5t62.5 25.5 t62.5 -25.5t25.5 -62.5t-25.5 -62.5t-62.5 -25.5t-62.5 25.5t-25.5 62.5z" />
<glyph unicode="&#xe5;" horiz-adv-x="1175" d="M104 502q0 135 63.5 250.5t173 183.5t239.5 68q113 0 211.5 -53t164.5 -144v147q0 21 14.5 35.5t35.5 14.5q20 0 34.5 -14t14.5 -36v-905q0 -20 -14.5 -34.5t-34.5 -14.5t-35 14.5t-15 34.5v150q-66 -92 -164.5 -145.5t-211.5 -53.5q-130 0 -239.5 68t-173 183.5 t-63.5 250.5zM203 502q0 -168 111 -286t266 -118q156 0 266 118t110 286t-110 286.5t-266 118.5q-155 0 -266 -118.5t-111 -286.5zM397 1325v2q0 73 56 126.5t127 53.5q75 0 131.5 -53.5t56.5 -126.5v-2q0 -71 -56.5 -124.5t-131.5 -53.5q-71 0 -127 54t-56 124zM485 1325 q0 -36 28.5 -65t66.5 -29q43 0 71.5 28.5t28.5 65.5v2q0 40 -28.5 70t-71.5 30q-38 0 -66.5 -30.5t-28.5 -69.5v-2z" />
<glyph unicode="&#xe6;" horiz-adv-x="1953" d="M104 502q0 135 63.5 250.5t173 183.5t239.5 68q113 0 211.5 -53t164.5 -144v147q0 21 14.5 35.5t35.5 14.5q20 0 34.5 -14t14.5 -36v-166q68 101 174 160.5t229 59.5q192 0 331.5 -135.5t154.5 -331.5v-2v-7q0 -20 -15 -34.5t-35 -14.5h-827q7 -164 120.5 -274.5 t270.5 -110.5q100 0 186 49.5t138 133.5q10 18 31.5 22t35.5 -6q17 -12 22 -31.5t-5 -36.5q-67 -106 -174 -167.5t-234 -61.5q-123 0 -229 59t-174 160v-170q0 -20 -14.5 -34.5t-34.5 -14.5t-35 14.5t-15 34.5v150q-66 -92 -164.5 -145.5t-211.5 -53.5q-130 0 -239.5 68 t-173 183.5t-63.5 250.5zM203 502q0 -168 111 -286t266 -118q156 0 266 118t110 286t-110 286.5t-266 118.5q-155 0 -266 -118.5t-111 -286.5zM1073 584h764q-26 140 -133 232.5t-246 92.5q-142 0 -249.5 -91.5t-135.5 -233.5z" />
<glyph unicode="&#xe7;" horiz-adv-x="1169" d="M119 504q0 209 150.5 354.5t365.5 145.5q179 0 319 -111q15 -11 17.5 -31t-10.5 -37q-12 -14 -31 -16.5t-37 8.5q-114 90 -258 90q-174 0 -296 -118.5t-122 -284.5q0 -169 121.5 -287.5t296.5 -118.5q143 0 258 88q18 11 37 8.5t31 -16.5q14 -17 11 -38t-22 -34 q-135 -106 -315 -106q-141 0 -260 66.5t-187.5 182.5t-68.5 255zM457 -242q0 14 10 31l158 231h88l-133 -270q-10 -21 -21.5 -31t-32.5 -10q-25 0 -47 16t-22 33z" />
<glyph unicode="&#xe8;" horiz-adv-x="1247" d="M119 500q0 209 142.5 356.5t344.5 147.5q192 0 330.5 -134.5t153.5 -332.5v-2v-7q0 -20 -14.5 -32.5t-35.5 -12.5h-823q7 -163 120 -274t269 -111q100 0 186.5 49t137.5 134q10 18 30 22t35 -6q17 -12 22 -31.5t-5 -38.5q-66 -104 -173 -165.5t-233 -61.5 q-133 0 -245 67.5t-177 182.5t-65 250zM223 580h760q-25 141 -132 233t-245 92q-141 0 -248 -91t-135 -234zM465 1389q0 15 28.5 31t57.5 16q33 0 57 -37l127 -191q8 -12 8 -22q0 -8 -8 -13.5t-18 -5.5q-37 0 -66 27l-164 158q-22 22 -22 37z" />
<glyph unicode="&#xe9;" horiz-adv-x="1247" d="M119 500q0 -135 65 -250t177 -182.5t245 -67.5q126 0 233 61.5t173 165.5q10 19 5 38.5t-22 31.5q-15 10 -35 6t-30 -22q-51 -85 -137.5 -134t-186.5 -49q-156 0 -269 111t-120 274h823q21 0 35.5 12.5t14.5 32.5v7v2q-15 198 -153.5 332.5t-330.5 134.5 q-202 0 -344.5 -147.5t-142.5 -356.5zM223 580q28 143 135 234t248 91q138 0 245 -92t132 -233h-760zM465 1186q0 10 8 22l127 191q24 37 57 37q29 0 57.5 -16t28.5 -31t-22 -37l-164 -158q-29 -27 -65 -27q-11 0 -19 6t-8 13z" />
<glyph unicode="&#xea;" horiz-adv-x="1247" d="M119 500q0 209 142.5 356.5t344.5 147.5q192 0 330.5 -134.5t153.5 -332.5v-2v-7q0 -20 -14.5 -32.5t-35.5 -12.5h-823q7 -163 120 -274t269 -111q100 0 186.5 49t137.5 134q10 18 30 22t35 -6q17 -12 22 -31.5t-5 -38.5q-66 -104 -173 -165.5t-233 -61.5 q-133 0 -245 67.5t-177 182.5t-65 250zM223 580h760q-25 141 -132 233t-245 92q-141 0 -248 -91t-135 -234zM383 1188q0 12 10 24l147 181q29 37 58 37h16q29 0 58 -37l147 -181q10 -13 10 -24q0 -8 -7.5 -14.5t-20.5 -6.5q-39 0 -68 27l-129 119l-129 -119q-29 -27 -66 -27 q-11 0 -18.5 6.5t-7.5 14.5z" />
<glyph unicode="&#xeb;" horiz-adv-x="1196" d="M125 500q0 -135 65 -250t177 -182.5t245 -67.5q126 0 233 61.5t173 165.5q10 19 5 38.5t-22 31.5q-15 10 -35 6t-30 -22q-51 -85 -137.5 -134t-186.5 -49q-156 0 -269 111t-120 274h824q21 0 35 12.5t14 32.5v7v2q-15 198 -153.5 332.5t-330.5 134.5 q-202 0 -344.5 -147.5t-142.5 -356.5zM229 580q28 143 135 234t248 91q138 0 245 -92t132 -233h-760zM354 1255q0 37 25.5 62.5t62.5 25.5t62.5 -25.5t25.5 -62.5t-25.5 -62.5t-62.5 -25.5t-62.5 25.5t-25.5 62.5zM692 1255q0 37 25.5 62.5t62.5 25.5t62.5 -25.5t25.5 -62.5 t-25.5 -62.5t-62.5 -25.5t-62.5 25.5t-25.5 62.5z" />
<glyph unicode="&#xec;" horiz-adv-x="575" d="M102 1389q0 15 28.5 31t57.5 16q34 0 58 -37l127 -191q8 -12 8 -22q0 -7 -8 -13t-19 -6q-36 0 -65 27l-164 158q-23 23 -23 37zM193 49q0 -20 14.5 -34.5t34.5 -14.5q22 0 36.5 14.5t14.5 34.5v905q0 22 -14.5 36t-36.5 14q-20 0 -34.5 -14t-14.5 -36v-905z" />
<glyph unicode="&#xed;" horiz-adv-x="575" d="M102 1186q0 8 9 22l127 191q24 37 57 37q29 0 57.5 -16t28.5 -31q0 -14 -23 -37l-163 -158q-29 -27 -66 -27q-11 0 -19 6t-8 13zM193 49q0 -20 14.5 -34.5t34.5 -14.5q22 0 36.5 14.5t14.5 34.5v905q0 22 -14.5 36t-36.5 14q-20 0 -34.5 -14t-14.5 -36v-905z" />
<glyph unicode="&#xee;" horiz-adv-x="575" d="M18 1188q0 10 11 24l147 181q29 37 57 37h17q28 0 57 -37l148 -181q10 -13 10 -24q0 -8 -8 -14.5t-21 -6.5q-38 0 -67 27l-129 119l-129 -119q-29 -27 -66 -27q-11 0 -19 6.5t-8 14.5zM193 49q0 -20 14.5 -34.5t34.5 -14.5q22 0 36.5 14.5t14.5 34.5v905q0 22 -14.5 36 t-36.5 14q-20 0 -34.5 -14t-14.5 -36v-905z" />
<glyph unicode="&#xef;" horiz-adv-x="575" d="M-12 1255q0 37 25.5 62.5t62.5 25.5t62.5 -25.5t25.5 -62.5t-25.5 -62.5t-62.5 -25.5t-62.5 25.5t-25.5 62.5zM193 49q0 -20 14.5 -34.5t34.5 -14.5q22 0 36.5 14.5t14.5 34.5v905q0 22 -14.5 36t-36.5 14q-20 0 -34.5 -14t-14.5 -36v-905zM326 1255q0 37 25.5 62.5 t62.5 25.5t62.5 -25.5t25.5 -62.5t-25.5 -62.5t-62.5 -25.5t-62.5 25.5t-25.5 62.5z" />
<glyph unicode="&#xf0;" horiz-adv-x="1286" d="M119 500q0 108 40.5 202t108 157.5t157 99.5t185.5 36q114 0 199.5 -34t163.5 -95l-301 426l-250 -127q-12 -6 -25 -6q-19 0 -32 14t-13 33q0 26 29 41l240 117l-37 53q-13 17 -13 37t15 34.5t37 14.5q28 0 47 -26l43 -66l176 90q12 6 24 6q19 0 32 -14t13 -33 q0 -27 -28 -41l-166 -82l221 -329q90 -132 134 -246t44 -254q0 -106 -38 -202.5t-105.5 -170t-168 -117t-218.5 -43.5q-144 0 -263 72t-185 192.5t-66 260.5zM227 494q0 -109 52.5 -206t149.5 -157.5t214 -60.5q119 0 214.5 60t146.5 157t51 211q0 168 -125 287.5 t-307 119.5q-179 0 -287.5 -117t-108.5 -294z" />
<glyph unicode="&#xf1;" d="M193 37q2 -2 2 -4q0 -4 2 -6q10 -21 32 -27h13q25 0 37 18q6 6 10 23v8v545q3 128 93.5 218.5t217.5 90.5q129 0 219 -90.5t90 -218.5v-545q0 -21 14 -35t35 -14t35.5 14t14.5 35v545q0 168 -120 287.5t-288 119.5q-92 0 -173 -39t-138 -106v96q0 20 -13.5 34.5 t-33.5 14.5q-21 0 -35 -14t-14 -35v-342v-16v-545v-12zM305 1182q0 12 4 24q28 86 66 120t96 34q40 0 134 -42t128 -42q33 0 53 17.5t39 60.5q14 28 37 28q15 0 26 -9.5t11 -24.5q0 -13 -4 -25q-28 -86 -66 -120t-96 -34q-40 0 -134 42t-128 42q-33 0 -53 -17.5t-39 -59.5 q-15 -29 -37 -29q-15 0 -26 10t-11 25z" />
<glyph unicode="&#xf2;" horiz-adv-x="1310" d="M119 502q0 -134 63.5 -249.5t173.5 -184t238 -68.5q129 0 239 68.5t173 184t63 249.5t-63 249.5t-173 184t-239 68.5q-128 0 -238 -68.5t-173.5 -184t-63.5 -249.5zM217 502q0 167 111.5 286t265.5 119t265.5 -119t111.5 -286t-111.5 -285.5t-265.5 -118.5t-265.5 118.5 t-111.5 285.5zM455 1389q0 15 28.5 31t57.5 16q33 0 57 -37l127 -191q8 -12 8 -22q0 -8 -8 -13.5t-18 -5.5q-37 0 -66 27l-164 158q-22 22 -22 37z" />
<glyph unicode="&#xf3;" horiz-adv-x="1310" d="M119 502q0 -134 63.5 -249.5t173.5 -184t238 -68.5q129 0 239 68.5t173 184t63 249.5t-63 249.5t-173 184t-239 68.5q-128 0 -238 -68.5t-173.5 -184t-63.5 -249.5zM217 502q0 167 111.5 286t265.5 119t265.5 -119t111.5 -286t-111.5 -285.5t-265.5 -118.5t-265.5 118.5 t-111.5 285.5zM459 1186q0 10 8 22l127 191q24 37 57 37q29 0 57.5 -16t28.5 -31t-22 -37l-164 -158q-29 -27 -66 -27q-10 0 -18 5.5t-8 13.5z" />
<glyph unicode="&#xf4;" horiz-adv-x="1310" d="M119 502q0 -134 63.5 -249.5t173.5 -184t238 -68.5q129 0 239 68.5t173 184t63 249.5t-63 249.5t-173 184t-239 68.5q-128 0 -238 -68.5t-173.5 -184t-63.5 -249.5zM217 502q0 167 111.5 286t265.5 119t265.5 -119t111.5 -286t-111.5 -285.5t-265.5 -118.5t-265.5 118.5 t-111.5 285.5zM371 1188q0 12 10 24l147 181q29 37 58 37h16q28 0 57 -37l148 -181q10 -13 10 -24q0 -8 -8 -14.5t-21 -6.5q-38 0 -67 27l-129 119l-129 -119q-29 -27 -66 -27q-11 0 -18.5 6.5t-7.5 14.5z" />
<glyph unicode="&#xf5;" horiz-adv-x="1310" d="M119 502q0 -134 63.5 -249.5t173.5 -184t238 -68.5q129 0 239 68.5t173 184t63 249.5t-63 249.5t-173 184t-239 68.5q-128 0 -238 -68.5t-173.5 -184t-63.5 -249.5zM217 502q0 167 111.5 286t265.5 119t265.5 -119t111.5 -286t-111.5 -285.5t-265.5 -118.5t-265.5 118.5 t-111.5 285.5zM297 1202q0 13 4 25q28 86 66 119.5t96 33.5q40 0 134 -42t128 -42q33 0 53 17.5t39 60.5q15 29 37 29q15 0 26 -10t11 -25q0 -13 -4 -25q-28 -86 -66 -119.5t-96 -33.5q-40 0 -134 42t-128 42q-33 0 -53 -17.5t-39 -60.5q-15 -29 -37 -29q-15 0 -26 10 t-11 25z" />
<glyph unicode="&#xf6;" horiz-adv-x="1310" d="M119 502q0 -134 63.5 -249.5t173.5 -184t238 -68.5q129 0 239 68.5t173 184t63 249.5t-63 249.5t-173 184t-239 68.5q-128 0 -238 -68.5t-173.5 -184t-63.5 -249.5zM217 502q0 167 111.5 286t265.5 119t265.5 -119t111.5 -286t-111.5 -285.5t-265.5 -118.5t-265.5 118.5 t-111.5 285.5zM336 1255q0 37 25.5 62.5t62.5 25.5t62.5 -25.5t25.5 -62.5t-25.5 -62.5t-62.5 -25.5t-62.5 25.5t-25.5 62.5zM674 1255q0 37 25.5 62.5t62.5 25.5t62.5 -25.5t25.5 -62.5t-25.5 -62.5t-62.5 -25.5t-62.5 25.5t-25.5 62.5z" />
<glyph unicode="&#xf7;" horiz-adv-x="1269" d="M131 721q0 -20 14.5 -34.5t34.5 -14.5h910q20 0 34.5 14.5t14.5 34.5t-14.5 34.5t-34.5 14.5h-910q-20 0 -34.5 -14.5t-14.5 -34.5zM553 309v35q0 34 24 58t58 24t58 -24t24 -58v-35q0 -34 -24 -58t-58 -24t-58 24t-24 58zM553 1098v35q0 34 24 57.5t58 23.5t58 -23.5 t24 -57.5v-35q0 -34 -24 -58t-58 -24t-58 24t-24 58z" />
<glyph unicode="&#xf8;" horiz-adv-x="1310" d="M119 518v4q0 109 41 209t111 174.5t171 119t215 44.5q198 0 342 -125l99 107q16 16 37 16q17 0 29 -11t12 -28q0 -18 -13 -31l-104 -110q133 -152 133 -361v-4q0 -146 -69 -271t-193.5 -200.5t-276.5 -75.5q-196 0 -342 123l-98 -100q-16 -16 -37 -16q-18 0 -29.5 10.5 t-11.5 27.5q0 19 12 31l103 107q-131 157 -131 360zM227 522q0 -165 97 -289l610 633q-122 109 -281 109q-183 0 -304.5 -131t-121.5 -318v-4zM377 176q118 -106 280 -106q121 0 219.5 60.5t152.5 163t54 224.5v4q0 164 -98 289z" />
<glyph unicode="&#xf9;" d="M170 410q0 -169 118.5 -289.5t286.5 -120.5q171 0 291.5 120.5t120.5 289.5v546q0 22 -14.5 36t-36.5 14q-19 0 -34 -14.5t-15 -35.5v-546q0 -129 -91.5 -219.5t-220.5 -92.5q-128 2 -217.5 92.5t-89.5 219.5v546q0 22 -14 36t-35 14t-35 -14t-14 -36v-546zM438 1389 q0 15 28.5 31t57.5 16q34 0 58 -37l127 -191q8 -12 8 -22q0 -7 -8 -13t-19 -6q-36 0 -65 27l-164 158q-23 23 -23 37z" />
<glyph unicode="&#xfa;" d="M170 410v546q0 22 14 36t35 14t35 -14t14 -36v-546q0 -129 89.5 -219.5t217.5 -92.5q129 2 220.5 92.5t91.5 219.5v546q0 21 15 35.5t34 14.5q22 0 36.5 -14t14.5 -36v-546q0 -169 -120.5 -289.5t-291.5 -120.5q-168 0 -286.5 120.5t-118.5 289.5zM439 1186q0 10 8 22 l127 191q24 37 57 37q29 0 57.5 -16t28.5 -31t-22 -37l-164 -158q-29 -27 -66 -27q-10 0 -18 5.5t-8 13.5z" />
<glyph unicode="&#xfb;" d="M170 410q0 -169 118.5 -289.5t286.5 -120.5q171 0 291.5 120.5t120.5 289.5v546q0 22 -14.5 36t-36.5 14q-19 0 -34 -14.5t-15 -35.5v-546q0 -129 -91.5 -219.5t-220.5 -92.5q-128 2 -217.5 92.5t-89.5 219.5v546q0 22 -14 36t-35 14t-35 -14t-14 -36v-546zM356 1188 q0 10 11 24l147 181q29 37 57 37h17q28 0 57 -37l148 -181q10 -13 10 -24q0 -8 -8 -14.5t-21 -6.5q-38 0 -67 27l-129 119l-129 -119q-29 -27 -66 -27q-11 0 -19 6.5t-8 14.5z" />
<glyph unicode="&#xfc;" d="M170 410q0 -169 118.5 -289.5t286.5 -120.5q171 0 291.5 120.5t120.5 289.5v546q0 22 -14.5 36t-36.5 14q-19 0 -34 -14.5t-15 -35.5v-546q0 -129 -91.5 -219.5t-220.5 -92.5q-128 2 -217.5 92.5t-89.5 219.5v546q0 22 -14 36t-35 14t-35 -14t-14 -36v-546zM324 1255 q0 37 25.5 62.5t62.5 25.5t62.5 -25.5t25.5 -62.5t-25.5 -62.5t-62.5 -25.5t-62.5 25.5t-25.5 62.5zM662 1255q0 37 25.5 62.5t62.5 25.5t62.5 -25.5t25.5 -62.5t-25.5 -62.5t-62.5 -25.5t-62.5 25.5t-25.5 62.5z" />
<glyph unicode="&#xfd;" horiz-adv-x="1204" d="M106 412v544q0 20 14.5 34t33.5 14q22 0 36.5 -14t14.5 -34v-544q0 -129 89.5 -219.5t217.5 -90.5q129 0 219 90.5t92 219.5v544q0 17 8 25q0 1 1.5 3t1.5 3q1 0 2 1t2 1q5 8 18 12h4q1 0 3 1.5t3 1.5h6h7q4 -1 24 -11q10 -10 12 -16q7 -11 7 -21v-544v-19v-313 q0 -196 -140 -333.5t-338 -137.5q-104 0 -206 47q-17 11 -23.5 29.5t2.5 35.5q17 36 64 25q76 -39 163 -39q157 0 267 109t112 264v65q-59 -67 -139.5 -105t-171.5 -38q-168 2 -287 122t-119 288zM375 1186q0 10 8 22l127 191q24 37 57 37q29 0 57.5 -16t28.5 -31t-22 -37 l-164 -158q-29 -27 -66 -27q-10 0 -18 5.5t-8 13.5z" />
<glyph unicode="&#xfe;" horiz-adv-x="1351" d="M190 -285v1737q0 23 14 37t36 14t36.5 -14t14.5 -37v-641q169 258 430 258q95 0 185.5 -38t162.5 -105.5t116 -172t44 -227.5v-4q0 -123 -44 -228t-116 -173.5t-162.5 -107t-185.5 -38.5q-266 0 -430 250v-510q0 -23 -13.5 -37t-35.5 -14t-37 14t-15 37zM285 520 q0 -129 61.5 -233.5t158.5 -159.5t206 -55q176 0 292.5 120.5t116.5 325.5v4q0 100 -33 185.5t-89 143t-130.5 90t-156.5 32.5q-81 0 -158 -33t-136.5 -91t-95.5 -143t-36 -182v-4z" />
<glyph unicode="&#xff;" horiz-adv-x="1204" d="M106 412q0 -168 119 -288t287 -122q91 0 171.5 38t139.5 105v-65q-2 -155 -112 -264t-267 -109q-87 0 -163 39q-47 11 -64 -25q-9 -17 -2.5 -35.5t23.5 -29.5q102 -47 206 -47q198 0 338 137.5t140 333.5v313v19v544q0 10 -7 21q-2 6 -12 16q-20 10 -24 11h-7h-6 q-1 0 -3 -1.5t-3 -1.5h-4q-13 -4 -18 -12q-1 0 -2 -1t-2 -1q0 -1 -1.5 -3t-1.5 -3q-8 -8 -8 -25v-544q-2 -129 -92 -219.5t-219 -90.5q-128 0 -217.5 90.5t-89.5 219.5v544q0 20 -14.5 34t-36.5 14q-19 0 -33.5 -14t-14.5 -34v-544zM256 1255q0 37 25.5 62.5t62.5 25.5 t62.5 -25.5t25.5 -62.5t-25.5 -62.5t-62.5 -25.5t-62.5 25.5t-25.5 62.5zM594 1255q0 37 25.5 62.5t62.5 25.5t62.5 -25.5t25.5 -62.5t-25.5 -62.5t-62.5 -25.5t-62.5 25.5t-25.5 62.5z" />
<glyph unicode="&#x152;" horiz-adv-x="2955" d="M150 727q1 198 92.5 365t250.5 264.5t349 97.5q194 0 356 -106t250 -281v317q0 20 14.5 35t34.5 15h737q21 0 35.5 -14.5t14.5 -35.5q0 -22 -14 -36.5t-36 -14.5h-686v-567h600q20 0 35 -15t15 -36q0 -20 -15 -34.5t-35 -14.5h-600v-566h686q22 0 36 -14.5t14 -36.5 q0 -21 -14 -35t-36 -14h-741q-19 2 -32 15.5t-13 33.5v338q-88 -176 -249.5 -281.5t-356.5 -105.5q-190 0 -349 97.5t-250.5 264.5t-92.5 365zM250 727q0 -129 47 -245.5t126.5 -200t189 -132.5t229.5 -49q155 0 289 83t213.5 227.5t80.5 316.5q-1 130 -48 246.5t-126 199 t-185.5 131t-223.5 48.5q-120 0 -229.5 -48.5t-189 -131t-126.5 -199t-47 -246.5z" />
<glyph unicode="&#x153;" horiz-adv-x="2160" d="M119 502q0 134 63 249t172 182.5t238 67.5q144 0 260.5 -81.5t173.5 -214.5q58 136 179.5 219.5t269.5 83.5q192 0 331 -135.5t154 -331.5v-9q0 -20 -14.5 -34.5t-34.5 -14.5h-828q7 -164 121 -274.5t271 -110.5q100 0 185.5 49.5t137.5 133.5q10 18 32 22t36 -6 q17 -12 21.5 -31.5t-5.5 -36.5q-67 -106 -173.5 -167.5t-233.5 -61.5q-148 0 -269.5 82.5t-179.5 216.5q-55 -134 -172 -216.5t-262 -82.5q-129 0 -238 68t-172 183.5t-63 250.5zM217 502q0 -168 110.5 -286t264.5 -118q156 0 266.5 118t110.5 286q0 167 -110.5 285 t-266.5 118q-154 0 -264.5 -118t-110.5 -285zM1090 584h763q-26 140 -132.5 232.5t-245.5 92.5q-142 0 -249.5 -91.5t-135.5 -233.5z" />
<glyph unicode="&#x178;" horiz-adv-x="1466" d="M117 1384q-3 -21 8 -38l481 -658v-639q0 -20 14.5 -34.5t34.5 -14.5q21 0 35.5 14t14.5 35v643l479 654q12 17 9.5 38t-19.5 31q-17 14 -38.5 11.5t-31.5 -19.5l-451 -616l-448 616q-10 17 -31.5 19.5t-38.5 -11.5q-15 -10 -18 -31zM399 1714q0 37 25.5 62.5t62.5 25.5 t62.5 -25.5t25.5 -62.5t-25.5 -62.5t-62.5 -25.5t-62.5 25.5t-25.5 62.5zM737 1714q0 37 25.5 62.5t62.5 25.5t62.5 -25.5t25.5 -62.5t-25.5 -62.5t-62.5 -25.5t-62.5 25.5t-25.5 62.5z" />
<glyph unicode="&#x2c6;" horiz-adv-x="1024" d="M289 1233q0 11 10 24l147 181q29 37 58 37h16q29 0 58 -37l147 -181q10 -13 10 -24q0 -8 -7.5 -14.5t-20.5 -6.5q-39 0 -68 27l-129 119l-129 -119q-29 -27 -66 -27q-11 0 -18.5 6.5t-7.5 14.5z" />
<glyph unicode="&#x2dc;" horiz-adv-x="1024" d="M215 1231q0 12 4 24q28 86 66 120t96 34q40 0 134 -42t128 -42q33 0 53 17.5t39 60.5q15 29 37 29q15 0 26 -10t11 -25q0 -13 -4 -25q-28 -86 -66 -119.5t-96 -33.5q-40 0 -134 42t-128 42q-33 0 -53 -17.5t-39 -60.5q-15 -29 -37 -29q-15 0 -26 10t-11 25z" />
<glyph unicode="&#x2000;" horiz-adv-x="945" />
<glyph unicode="&#x2001;" horiz-adv-x="1891" />
<glyph unicode="&#x2002;" horiz-adv-x="945" />
<glyph unicode="&#x2003;" horiz-adv-x="1891" />
<glyph unicode="&#x2004;" horiz-adv-x="630" />
<glyph unicode="&#x2005;" horiz-adv-x="472" />
<glyph unicode="&#x2006;" horiz-adv-x="315" />
<glyph unicode="&#x2007;" horiz-adv-x="315" />
<glyph unicode="&#x2008;" horiz-adv-x="236" />
<glyph unicode="&#x2009;" horiz-adv-x="378" />
<glyph unicode="&#x200a;" horiz-adv-x="105" />
<glyph unicode="&#x2010;" horiz-adv-x="835" d="M135 713q0 17 11 27t28 10h436q16 0 27.5 -10t11.5 -27q0 -18 -11.5 -29.5t-27.5 -11.5h-436q-17 0 -28 11t-11 30z" />
<glyph unicode="&#x2011;" horiz-adv-x="835" d="M135 713q0 17 11 27t28 10h436q16 0 27.5 -10t11.5 -27q0 -18 -11.5 -29.5t-27.5 -11.5h-436q-17 0 -28 11t-11 30z" />
<glyph unicode="&#x2012;" horiz-adv-x="835" d="M135 713q0 17 11 27t28 10h436q16 0 27.5 -10t11.5 -27q0 -18 -11.5 -29.5t-27.5 -11.5h-436q-17 0 -28 11t-11 30z" />
<glyph unicode="&#x2013;" horiz-adv-x="1081" d="M135 608q0 22 15.5 38t37.5 16h705q22 0 37.5 -16t15.5 -38t-15.5 -37.5t-37.5 -15.5h-705q-22 0 -37.5 15.5t-15.5 37.5z" />
<glyph unicode="&#x2014;" horiz-adv-x="1839" d="M135 608q0 22 15.5 38t37.5 16h1463q22 0 37.5 -16t15.5 -38t-15.5 -37.5t-37.5 -15.5h-1463q-22 0 -37.5 15.5t-15.5 37.5z" />
<glyph unicode="&#x2018;" horiz-adv-x="471" d="M158 1110v51q0 158 55 213q27 27 59.5 46.5t46.5 19.5q12 0 21.5 -8.5t9.5 -22.5q0 -17 -16 -27q-56 -31 -78 -67t-18 -90q55 -14 55 -72v-43q0 -28 -20 -48t-48 -20t-47.5 20t-19.5 48z" />
<glyph unicode="&#x2019;" horiz-adv-x="471" d="M121 1075q0 17 16 27q56 31 78 67.5t18 90.5q-55 14 -55 71v43q0 28 20 48t48 20t47.5 -20t19.5 -48v-51q0 -158 -55 -213q-27 -27 -59.5 -46.5t-46.5 -19.5q-12 0 -21.5 8.5t-9.5 22.5z" />
<glyph unicode="&#x201a;" horiz-adv-x="471" />
<glyph unicode="&#x201c;" horiz-adv-x="839" d="M158 1110v51q0 158 55 213q27 27 59.5 46.5t46.5 19.5q12 0 21.5 -8.5t9.5 -22.5q0 -17 -16 -27q-56 -31 -78 -67t-18 -90q55 -14 55 -72v-43q0 -28 -20 -48t-48 -20t-47.5 20t-19.5 48zM526 1110v51q0 157 56 213q27 27 59.5 46.5t46.5 19.5q12 0 21.5 -8.5t9.5 -22.5 q0 -17 -17 -27q-56 -31 -78 -67t-18 -90q56 -14 56 -72v-43q0 -28 -20 -48t-48 -20t-48 20t-20 48z" />
<glyph unicode="&#x201d;" horiz-adv-x="839" d="M121 1075q0 17 16 27q56 31 78 67.5t18 90.5q-55 14 -55 71v43q0 28 20 48t48 20t47.5 -20t19.5 -48v-51q0 -158 -55 -213q-27 -27 -59.5 -46.5t-46.5 -19.5q-12 0 -21.5 8.5t-9.5 22.5zM489 1075q0 17 17 27q56 31 78 67.5t18 90.5q-55 14 -55 71v43q0 28 19.5 48 t47.5 20t48 -20t20 -48v-51q0 -158 -55 -213q-26 -26 -59.5 -46t-47.5 -20q-12 0 -21.5 8.5t-9.5 22.5z" />
<glyph unicode="&#x201e;" horiz-adv-x="839" d="M111 -184q0 16 16 26q56 31 78 67.5t18 90.5q-55 14 -55 72v43q0 29 19.5 48t48.5 19t48 -19t19 -48v-52q0 -158 -55 -213q-26 -26 -59 -45.5t-48 -19.5q-11 0 -20.5 8.5t-9.5 22.5zM479 -184q0 16 17 26q56 31 78 67.5t18 90.5q-55 14 -55 72v43q0 28 19.5 47.5 t47.5 19.5t48 -19.5t20 -47.5v-52q0 -157 -56 -213q-26 -26 -59 -45.5t-47 -19.5q-12 0 -21.5 8.5t-9.5 22.5z" />
<glyph unicode="&#x2022;" horiz-adv-x="962" d="M227 719v4q0 103 76.5 177.5t177.5 74.5q100 0 177 -74.5t77 -177.5v-4q0 -104 -75 -178t-179 -74t-179 74t-75 178z" />
<glyph unicode="&#x2026;" horiz-adv-x="1392" d="M168 102q0 43 29.5 73t72.5 30t73 -30t30 -73t-30 -72.5t-73 -29.5t-72.5 29.5t-29.5 72.5zM633 102q0 43 29.5 73t72.5 30t73 -30t30 -73t-30 -72.5t-73 -29.5t-72.5 29.5t-29.5 72.5zM1098 102q0 43 29.5 73t72.5 30t73 -30t30 -73t-30 -72.5t-73 -29.5t-72.5 29.5 t-29.5 72.5z" />
<glyph unicode="&#x202f;" horiz-adv-x="378" />
<glyph unicode="&#x2039;" horiz-adv-x="636" d="M113 522q0 19 20 45l281 367q16 22 39 22q19 0 32 -12t13 -31q0 -18 -13 -34l-258 -355l258 -358q13 -16 13 -35t-13 -31t-32 -12q-23 0 -39 23l-281 366q-20 26 -20 45z" />
<glyph unicode="&#x203a;" horiz-adv-x="636" d="M139 131q0 19 13 35l258 354l-258 359q-15 22 -13 34q2 19 14 31t31 12q23 0 39 -22l281 -367q20 -26 20 -45t-20 -45l-281 -366q-16 -23 -39 -23q-19 0 -32 12t-13 31z" />
<glyph unicode="&#x205f;" horiz-adv-x="472" />
<glyph unicode="&#x2122;" horiz-adv-x="1413" d="M45 1413q0 7 6.5 14t14.5 7h413q9 0 15 -6.5t6 -14.5q0 -9 -6 -15.5t-15 -6.5h-186v-551q0 -9 -6 -15t-15 -6q-8 0 -14 6t-6 15v551h-186q-8 0 -14.5 6.5t-6.5 15.5zM610 840v569q0 9 11 16v2q7 5 16.5 3t13.5 -9l219 -303l217 303q4 7 14 9t17 -3l6 -6q4 -8 4 -12v-569 q0 -9 -6.5 -15t-15.5 -6t-15 6t-6 15v506l-196 -273q-5 -10 -19 -10h-2q-10 0 -18 10l-197 273v-506q0 -21 -20 -21q-9 0 -16 6t-7 15z" />
<glyph unicode="&#x25fc;" horiz-adv-x="993" d="M0 0v993h993v-993h-993z" />
</font>
</defs>
</svg>
