<?xml version="1.0" encoding="utf-8"?>
<!-- Generator: Adobe Illustrator 18.0.0, SVG Export Plug-In . SVG Version: 6.00 Build 0)  -->
<!DOCTYPE svg PUBLIC "-//W3C//DTD SVG 1.1//EN" "http://www.w3.org/Graphics/SVG/1.1/DTD/svg11.dtd">
<svg version="1.1" id="Layer_1" xmlns="http://www.w3.org/2000/svg" xmlns:xlink="http://www.w3.org/1999/xlink" x="0px" y="0px"
	 viewBox="0 0 612 792" enable-background="new 0 0 612 792" xml:space="preserve">
<g>
	<g>
		<path fill="#4A6067" d="M331,775.3c-16.7,16.7-41.7,16.7-58.4,0L64.2,558.6c-16.7-8.3-16.7-41.7,0-58.4l25-25
			c16.7-16.7,41.7-16.7,58.4,0L306,633.6l158.4-158.4c16.7-16.7,41.7-16.7,58.4,0l25,25c16.7,16.7,16.7,41.7,0,58.4L331,775.3z"/>
	</g>
	<g>
		<path fill="#4A6067" d="M272.7,16.7C289.3,0,314.3,0,331,16.7l216.8,216.8c16.7,16.7,16.7,41.7,0,58.4l-25,25
			c-16.7,8.3-41.7,8.3-58.4,0L306,158.4L147.6,316.8c-16.7,8.3-41.7,8.3-58.4,0l-25-25c-16.7-16.7-16.7-50,0-58.4L272.7,16.7z"/>
	</g>
</g>
</svg>
