<?xml version="1.0" encoding="utf-8"?>
<!-- Generator: Adobe Illustrator 18.1.1, SVG Export Plug-In . SVG Version: 6.00 Build 0)  -->
<svg version="1.1" xmlns="http://www.w3.org/2000/svg" xmlns:xlink="http://www.w3.org/1999/xlink" x="0px" y="0px"
	 viewBox="-450 -355 950 760" enable-background="new -450 -355 950 760" xml:space="preserve">
<g id="Layer_1">
	<g>
		<rect x="-449" y="-355" fill="#E9EEEF" width="948.1" height="760"/>
	</g>
	<g>
	</g>
	<g>
		<g>
			<path fill="#4A6067" d="M194,1.5c-9.7,6.3-13.4,16.3-14.4,19.4c1.3-0.8,3.9-2.2,7.4-2.2c3.4,0,5.9,1.4,7,2.2V1.5z"/>
		</g>
		<g>
			<path fill="#4A6067" d="M196.4,0.2c10.8,7,14.4,18.1,15.1,20.8c1.1-0.8,3.5-2.2,7.1-2.2c5,0,7.9,2.8,7.9,2.8S220.1,2.1,196.4,0.2
				z"/>
		</g>
		<g>
			<path fill="#4A6067" d="M193,0.2c-23.6,2-30,21.3-30,21.3s2.9-2.8,7.9-2.8c3.4,0,5.8,1.4,7,2.2C178.7,18.1,182.3,7.2,193,0.2z"/>
		</g>
		<g>
			<path fill="#4A6067" d="M195.6,1.6v19.4c1.2-0.8,3.6-2.2,7-2.2c3.3,0,5.9,1.2,7.2,2C208.8,17.5,205,7.8,195.6,1.6z"/>
		</g>
		<g>
			<polygon fill="#4A6067" points="193.4,52.6 193.4,44.8 194.1,44.8 194.1,22.6 194.8,23 195.4,22.6 195.4,44.8 196.1,44.8 
				196.1,52.6 			"/>
		</g>
		<g>
			<path fill="#4A6067" d="M193.8-11.4c0,0-0.4-0.1-0.9-0.1c-0.4,0.1-1,0.5-1.2,1.4c-0.2,0.9,0.2,1.4,0.2,2c0.1,0.6,0.3,1.7-0.9,3.9
				s-3.9,2.9-3.9,2.9s-0.1,0.8-0.1,0.9s-0.2,0.1-0.2,0.2s0.4,1.4,0.4,1.4s0.5-0.1,0.7-0.1c0.2,0.1,0.2,0.2,0.2,0.2s0.8-0.1,1,0.2
				c-0.2-0.1-0.2-0.1-0.3,0.1c-0.1,0.1-0.1,0.1-0.2,0.1s-0.4-0.1-0.6-0.2c-0.2-0.1-0.6,0.1-0.6,0.1l0.1,0.2c0,0,0.6-0.2,0.7,0.1
				c-0.2-0.1-0.3,0.2-0.3,0.2s1.2,0.1,1.2,0.5c-0.2-0.1-0.2,0.1-0.4,0.1c-0.2,0.1-0.8-0.5-1.3-0.3c-0.3,0.1,0.5,0.7,0.4,0.9
				c-0.5,0.2-0.5-0.8-0.8-0.9c-0.6-0.1-0.9,0.2-1.1,0.1c-0.2-0.1-0.3,0.1-0.3,0.1s-0.1-0.3,0.2-0.4c0.2-0.1,0.9-0.1,0.9-0.2
				c0.1-0.2-0.2-0.3-0.6-0.3s-0.7,0.2-0.9,0.1s-0.2,0.1-0.2,0.1s-0.1-0.2,0.2-0.4c0.3-0.1,1-0.1,1-0.3c0-0.3-0.5-1.3-0.5-1.3
				s-0.1,0-0.2-0.1s-0.3-0.6-0.3-0.6s-1,0.1-1.8-0.1c-0.9-0.2-1.4-0.4-1.4-0.4s-2.7,2.1-3.8,2.8c-1.1,0.7-2.7,0.9-3,0.7
				c-0.4-0.2,1.1-1,1.9-1.7c0.8-0.6,1.4-1.4,1.4-1.4s-0.2,0-0.2-0.2c0.2-0.1,0.9-0.9,0.9-0.9s-0.2-0.1-0.1-0.2
				c0.3-0.2,0.7-0.6,0.7-0.6S180-2.9,180.1-3c0.4-0.2,1.4-1.1,1.4-1.1s-0.1-0.3,0.1-0.4c0.2-0.1,0.9-0.6,1.7-1.4
				c0.9-0.8,1.2-1.5,2.6-2.4c1.4-0.9,2.5-0.7,2.8-1.5c0.4-0.8,0.7-1.5,0.9-1.9c0.2-0.4,0.5-0.5,0.6-0.7c0.1-0.2,0.4-0.9,1.4-0.9
				c1-0.1,1.4,0.9,1.4,0.9s0,0,0.1,0.1s0.2,0.3,0.2,0.3S193.8-11.8,193.8-11.4z"/>
		</g>
		<g opacity="0.6" enable-background="new    ">
			<path fill="#4A6067" d="M194,1.5c-9.7,6.3-13.4,16.3-14.4,19.4c1.3-0.8,3.9-2.2,7.4-2.2c3.4,0,5.9,1.4,7,2.2V1.5z"/>
		</g>
		<g opacity="0.6" enable-background="new    ">
			<path fill="#4A6067" d="M196.4,0.2c10.8,7,14.4,18.1,15.1,20.8c1.1-0.8,3.5-2.2,7.1-2.2c5,0,7.9,2.8,7.9,2.8S220.1,2.1,196.4,0.2
				z"/>
		</g>
		<g>
			<path fill="#4A6067" d="M203.2-1.9c0.6-0.6,1.3-2.6,1.5-3c0.2-0.4,1.1-1.5,0.4-2.7c-0.7-1.2-1.2-1.5-1.7-2.6
				c-0.5-1.1-0.3-2.8-1.7-3.2c-1.4-0.4-1.5,0.8-1.4,1.1c-0.2,0.1-0.1,0.4-0.1,0.4s-0.4,0.2-0.3,0.6c0.1-0.1,0.2-0.4,0.6-0.3
				s0.6,0.5,0.3,1.7c-0.3,1.2-0.5,1.3-0.9,1.7c-0.7,0.5-1.7,2.5-1.7,3.1c-0.5,0.2-0.7,0.1-0.9,0.1c0.1,0.4,0.8,0.5,0.8,0.5
				s-0.1,0.2-0.2,0.3c0.1,0.1,0.2,0.1,0.2,0.1s0.4,1.5,1.3,2.4c0.1,0.4,0.1,0.5,0.1,0.9c0.1,0.4,0.3,0.8,0.4,1s0.1,0.3-0.1,0.5
				c-0.1,0.3-0.2,0.4-0.3,0.4c-0.1,0-0.4-0.1-0.5,0.2c0,0,0.1-0.2,0.3-0.1c0.3,0.2,0.7,0.1,1,0.2c0.3,0.1,0.3,0.2,0.5,0.5
				c0.3-0.1,0.1-0.4,0.1-0.4s0.3,0,0.5,0.1c0.2,0.1,0.2,0.2,0.4,0c0,0-0.3,0.2-0.1,0.3c0,0,0-0.1,0.3-0.1c0.2,0,0.4-0.1,0.5-0.2
				c0.3,0.3,0.2,0.3,0.5,0.5c0.3,0.3,0.2,0.3,0.1,0.5c0.1-0.1,0.3-0.3,0.3-0.5c-0.1-0.2-0.2-0.4-0.2-0.4s0.6,0.2,0.9,0.1
				c0.1-0.1,0.2,0.1,0.2,0.1s-0.1-0.2-0.3-0.3c-0.2-0.1-0.8-0.1-1-0.2c-0.2-0.2-0.4-0.3-0.4-0.9c0-0.3,0.1-0.2,0.2-0.6
				C202.8-0.8,203-1.8,203.2-1.9z M202,0.8c-0.1,0.3-0.5,0.4-0.5,0.4s0-0.1-0.3-0.1c-0.3,0-0.7-0.1-0.7-0.1
				c-0.1-0.1-0.2-0.4-0.2-0.5c0-0.1,0.1-0.2,0.1-0.3c0-0.1,0.4-1.2,0.4-1.8c0,0,0.6,0.2,0.9,0c0.1,0.5,0.1,0.4,0.1,0.9
				c0.1,0.5,0.1,0.7,0.2,0.8C202.1,0,202.1,0.4,202,0.8z"/>
		</g>
	</g>
	<g>
		<g>
			<path fill="#E26161" d="M23.5-181.9c-17.3,0-31.3,14-31.3,31.3s14,31.3,31.3,31.3s31.3-14,31.3-31.3S40.8-181.9,23.5-181.9z"/>
		</g>
		<g>
			<g>
				<path fill="#4A6067" d="M54.8-150.6c0,17.3-14,31.3-31.3,31.3s-31.3-14-31.3-31.3s14-31.3,31.3-31.3S54.8-167.9,54.8-150.6z
					 M40.4-150.6c0-0.9-0.5-1.8-1.3-2.2l-22.2-13c-0.8-0.5-1.8-0.5-2.6,0c-0.8,0.5-1.3,1.3-1.3,2.3v26.1c0,0.9,0.5,1.8,1.3,2.3
					c0.4,0.2,0.9,0.3,1.3,0.3s0.9-0.1,1.3-0.4l22.2-13C39.9-148.8,40.4-149.6,40.4-150.6z"/>
			</g>
		</g>
	</g>
	<g>
		<g>
			<path fill="#E2E561" d="M23.5-70.3c-52.6,0-95.3,42.7-95.3,95.3s42.7,95.3,95.3,95.3s95.3-42.7,95.3-95.3S76.1-70.3,23.5-70.3z"
				/>
		</g>
		<g>
			<path fill="#4A6067" d="M23.5-70.3c-52.6,0-95.3,42.7-95.3,95.3s42.7,95.3,95.3,95.3s95.3-42.7,95.3-95.3S76.1-70.3,23.5-70.3z
				 M19.3,60.2c0,2.3-1.9,4.1-4.1,4.1c-1.1,0-2.1-0.5-2.9-1.2L-9.3,41.6h-17c-2.3,0-4.1-1.9-4.1-4.1V12.6c0-2.3,1.9-4.1,4.1-4.1h17
				l21.6-21.5c0.8-0.8,1.8-1.2,2.9-1.2c2.3,0,4.1,1.9,4.1,4.1V60.2z M32.5,40.5c-2.3,0-4.1-1.8-4.1-4.1c0-4.9,7.5-3.6,7.5-11.4
				c0-7.8-7.5-6.5-7.5-11.4c0-2.3,1.9-4.1,4.1-4.1c0.5,0,1.1,0.1,1.6,0.3c6.1,2.4,10,8.7,10,15.2c0,6.5-3.9,12.7-10,15.2
				C33.6,40.5,33,40.5,32.5,40.5z M39.1,55.8c-2.3,0-4.2-1.9-4.2-4.1c0-1.8,1-3,2.5-3.8c1.7-0.9,3.4-1.7,4.9-2.8
				c6.4-4.7,10.2-12.1,10.2-20S48.7,9.7,42.3,5c-1.6-1.2-3.2-1.9-4.9-2.8c-1.5-0.8-2.5-2-2.5-3.8c0-2.3,1.9-4.1,4.1-4.1
				c0.6,0,1.2,0.1,1.7,0.3C52.8-0.4,60.7,11.9,60.7,25c0,13.1-7.9,25.4-20.1,30.5C40.2,55.7,39.6,55.8,39.1,55.8z M47.2,70.7
				c-0.5,0.2-1.1,0.3-1.7,0.3c-2.3,0-4.1-1.9-4.1-4.1c0-1.9,1-2.9,2.5-3.8c0.9-0.5,1.9-0.8,2.9-1.4c1.8-1,3.6-2.1,5.3-3.3
				C62.7,50.6,69,38.2,69,25c0-13.2-6.3-25.6-16.9-33.4c-1.7-1.2-3.5-2.3-5.3-3.3c-1-0.5-2-0.8-2.9-1.4c-1.6-0.9-2.5-1.9-2.5-3.8
				c0-2.3,1.9-4.1,4.1-4.1c0.6,0,1.2,0.1,1.7,0.3C65.5-12.9,77.3,5.1,77.3,25C77.3,44.9,65.5,62.9,47.2,70.7z"/>
		</g>
	</g>
	<g>
		<g>
			<path fill="#61BEE2" d="M-147.6-11.2c-17,0-30.8,13.8-30.8,30.8s13.8,30.8,30.8,30.8s30.8-13.8,30.8-30.8S-130.6-11.2-147.6-11.2
				z"/>
		</g>
		<g>
			<path fill="#4A6067" d="M-147.3,51.6c-16.9,0-30.7-13.7-30.7-30.6c0-3.5,0.7-7.2,2-10.7l3.1,1.2c-1.2,3.2-1.8,6.4-1.8,9.6
				c0,15.1,12.3,27.3,27.3,27.3c15.1,0,27.3-12.3,27.3-27.3c0-6.6-2.5-13-7-18.1l2.5-2.2c5,5.7,7.8,12.9,7.8,20.3
				C-116.7,37.9-130.4,51.6-147.3,51.6z"/>
		</g>
		<g>
			<path fill="#4A6067" d="M-160.7,30.1l6.5,6.5l20.7-20.7l14.7,14.7c1.3-3.4,2.1-7,2.1-10.9c0-17.1-13.9-31-31-31s-31,13.9-31,31
				c0,7.9,3.1,15,7.9,20.5L-160.7,30.1z M-165.9,9.4c4.3,0,7.8,3.5,7.8,7.8s-3.5,7.8-7.8,7.8c-4.3,0-7.8-3.5-7.8-7.8
				S-170.2,9.4-165.9,9.4z"/>
		</g>
	</g>
	<g>
		<g>
			<path fill="#73C8C3" d="M23.5,169.3c-17.3,0-31.3,14-31.3,31.3s14,31.3,31.3,31.3s31.3-14,31.3-31.3S40.8,169.3,23.5,169.3z"/>
		</g>
		<g>
			<path fill="#4A6067" d="M23.5,169.3c-17.3,0-31.3,14-31.3,31.3s14,31.3,31.3,31.3s31.3-14,31.3-31.3S40.8,169.3,23.5,169.3z
				 M15.3,209.9c0.3,0.3,0.3,0.8,0,1.1l-1.2,1.2c-0.3,0.3-0.8,0.3-1.1,0L1.9,201.1c-0.3-0.3-0.3-0.8,0-1.1L13,188.9
				c0.3-0.3,0.8-0.3,1.1,0l1.2,1.2c0.3,0.3,0.3,0.8,0,1.1l-9.4,9.4L15.3,209.9z M20.5,216.4c-0.1,0.4-0.5,0.6-0.9,0.5l-1.5-0.4
				c-0.4-0.1-0.6-0.5-0.5-1l8.9-30.8c0.1-0.4,0.5-0.6,0.9-0.5l1.5,0.4c0.4,0.1,0.6,0.5,0.5,1L20.5,216.4z M45.1,201.1l-11.1,11.1
				c-0.3,0.3-0.8,0.3-1.1,0l-1.2-1.2c-0.3-0.3-0.3-0.8,0-1.1l9.4-9.4l-9.4-9.4c-0.3-0.3-0.3-0.8,0-1.1l1.2-1.2
				c0.3-0.3,0.8-0.3,1.1,0L45.1,200C45.4,200.3,45.4,200.8,45.1,201.1z"/>
		</g>
	</g>
</g>
<g id="Layer_2">
</g>
</svg>
