<?xml version="1.0" encoding="utf-8"?>
<!-- Generator: Adobe Illustrator 18.1.1, SVG Export Plug-In . SVG Version: 6.00 Build 0)  -->
<svg version="1.1" xmlns="http://www.w3.org/2000/svg" xmlns:xlink="http://www.w3.org/1999/xlink" x="0px" y="0px"
	 viewBox="-450 -355 950 760" enable-background="new -450 -355 950 760" xml:space="preserve">
<g id="Layer_1">
	<g>
		<rect x="-449" y="-355" fill="#E9EEEF" width="948.1" height="760"/>
	</g>
	<g>
	</g>
	<g>
		<g>
			<path fill="#4A6067" d="M23.6,182.3c-9.7,6.3-13.4,16.3-14.4,19.4c1.3-0.8,3.9-2.2,7.4-2.2c3.4,0,5.9,1.4,7,2.2V182.3z"/>
		</g>
		<g>
			<path fill="#4A6067" d="M26.1,181.1c10.8,7,14.4,18.1,15.1,20.8c1.1-0.8,3.5-2.2,7.1-2.2c5,0,7.9,2.8,7.9,2.8
				S49.8,183,26.1,181.1z"/>
		</g>
		<g>
			<path fill="#4A6067" d="M22.6,181.1c-23.6,2-30,21.3-30,21.3s2.9-2.8,7.9-2.8c3.4,0,5.8,1.4,7,2.2C8.3,199,12,188,22.6,181.1z"/>
		</g>
		<g>
			<path fill="#4A6067" d="M25.3,182.4v19.4c1.2-0.8,3.6-2.2,7-2.2c3.3,0,5.9,1.2,7.2,2C38.5,198.4,34.7,188.6,25.3,182.4z"/>
		</g>
		<g>
			<polygon fill="#4A6067" points="23.1,233.5 23.1,225.7 23.8,225.7 23.8,203.4 24.4,203.8 25.1,203.4 25.1,225.7 25.8,225.7 
				25.8,233.5 			"/>
		</g>
		<g>
			<path fill="#4A6067" d="M23.5,169.4c0,0-0.4-0.1-0.9-0.1c-0.4,0.1-1,0.5-1.2,1.4s0.2,1.4,0.2,2c0.1,0.6,0.3,1.7-0.9,3.9
				s-3.9,2.9-3.9,2.9s-0.1,0.8-0.1,0.9c0,0.1-0.2,0.1-0.2,0.2s0.4,1.4,0.4,1.4s0.5-0.1,0.7-0.1c0.2,0.1,0.2,0.2,0.2,0.2
				s0.8-0.1,1,0.2c-0.2-0.1-0.2-0.1-0.3,0.1c-0.1,0.1-0.1,0.1-0.2,0.1c-0.1,0.1-0.4-0.1-0.6-0.2c-0.2-0.1-0.6,0.1-0.6,0.1l0.1,0.2
				c0,0,0.6-0.2,0.7,0.1c-0.2-0.1-0.3,0.2-0.3,0.2s1.2,0.1,1.2,0.5c-0.2-0.1-0.2,0.1-0.4,0.1c-0.2,0.1-0.8-0.5-1.3-0.3
				c-0.3,0.1,0.5,0.7,0.4,0.9c-0.5,0.2-0.5-0.8-0.8-0.9c-0.6-0.1-0.9,0.2-1.1,0.1c-0.2-0.1-0.3,0.1-0.3,0.1s-0.1-0.3,0.2-0.4
				c0.2-0.1,0.9-0.1,0.9-0.2c0.1-0.2-0.2-0.3-0.6-0.3c-0.4,0-0.7,0.2-0.9,0.1c-0.2,0-0.2,0.1-0.2,0.1s-0.1-0.2,0.2-0.4
				c0.3-0.1,1-0.1,1-0.3c0-0.3-0.5-1.3-0.5-1.3s-0.1,0-0.2-0.1c-0.2-0.1-0.3-0.6-0.3-0.6s-1,0.1-1.8-0.1c-0.9-0.2-1.4-0.4-1.4-0.4
				s-2.7,2.1-3.8,2.8c-1.1,0.7-2.7,0.9-3,0.7c-0.4-0.2,1.1-1,1.9-1.7c0.8-0.6,1.4-1.4,1.4-1.4s-0.2,0-0.2-0.2
				c0.2-0.1,0.9-0.9,0.9-0.9s-0.2-0.1-0.1-0.2c0.3-0.2,0.7-0.6,0.7-0.6s-0.2-0.1-0.1-0.2c0.4-0.2,1.4-1.1,1.4-1.1s-0.1-0.3,0.1-0.4
				c0.2-0.1,0.9-0.6,1.7-1.4c0.9-0.8,1.2-1.5,2.6-2.4c1.4-0.9,2.5-0.7,2.8-1.5c0.4-0.8,0.7-1.5,0.9-1.9s0.5-0.5,0.6-0.7
				c0.1-0.2,0.4-0.9,1.4-0.9c1-0.1,1.4,0.9,1.4,0.9s0,0,0.1,0.1c0.1,0.1,0.2,0.3,0.2,0.3S23.5,169.1,23.5,169.4z"/>
		</g>
		<g opacity="0.6" enable-background="new    ">
			<path fill="#4A6067" d="M23.6,182.3c-9.7,6.3-13.4,16.3-14.4,19.4c1.3-0.8,3.9-2.2,7.4-2.2c3.4,0,5.9,1.4,7,2.2V182.3z"/>
		</g>
		<g opacity="0.6" enable-background="new    ">
			<path fill="#4A6067" d="M26.1,181.1c10.8,7,14.4,18.1,15.1,20.8c1.1-0.8,3.5-2.2,7.1-2.2c5,0,7.9,2.8,7.9,2.8
				S49.8,183,26.1,181.1z"/>
		</g>
		<g>
			<path fill="#4A6067" d="M32.9,178.9c0.6-0.6,1.3-2.6,1.5-3c0.2-0.4,1.1-1.5,0.4-2.7c-0.7-1.2-1.2-1.5-1.7-2.6
				c-0.5-1.1-0.3-2.8-1.7-3.2s-1.5,0.8-1.4,1.1c-0.2,0.1-0.1,0.4-0.1,0.4s-0.4,0.2-0.3,0.6c0.1-0.1,0.2-0.4,0.6-0.3
				c0.4,0.1,0.6,0.5,0.3,1.7s-0.5,1.3-0.9,1.7c-0.7,0.5-1.7,2.5-1.7,3.1c-0.5,0.2-0.7,0.1-0.9,0.1c0.1,0.4,0.8,0.5,0.8,0.5
				s-0.1,0.2-0.2,0.3c0.1,0.1,0.2,0.1,0.2,0.1s0.4,1.5,1.3,2.4c0.1,0.4,0.1,0.5,0.1,0.9c0.1,0.4,0.3,0.8,0.4,1
				c0.1,0.2,0.1,0.3-0.1,0.5c-0.1,0.3-0.2,0.4-0.3,0.4s-0.4-0.1-0.5,0.2c0,0,0.1-0.2,0.3-0.1c0.3,0.2,0.7,0.1,1,0.2
				c0.3,0.1,0.3,0.2,0.5,0.5c0.3-0.1,0.1-0.4,0.1-0.4s0.3,0,0.5,0.1c0.2,0.1,0.2,0.2,0.4,0c0,0-0.3,0.2-0.1,0.3c0,0,0-0.1,0.3-0.1
				c0.2,0,0.4-0.1,0.5-0.2c0.3,0.3,0.2,0.3,0.5,0.5c0.3,0.3,0.2,0.3,0.1,0.5c0.1-0.1,0.3-0.3,0.3-0.5c-0.1-0.2-0.2-0.4-0.2-0.4
				s0.6,0.2,0.9,0.1c0.1-0.1,0.2,0.1,0.2,0.1s-0.1-0.2-0.3-0.3c-0.2-0.1-0.8-0.1-1-0.2c-0.2-0.2-0.4-0.3-0.4-0.9
				c0-0.3,0.1-0.2,0.2-0.6C32.5,180,32.7,179,32.9,178.9z M31.7,181.6c-0.1,0.3-0.5,0.4-0.5,0.4s0-0.1-0.3-0.1
				c-0.3,0-0.7-0.1-0.7-0.1c-0.1-0.1-0.2-0.4-0.2-0.5c0-0.1,0.1-0.2,0.1-0.3s0.4-1.2,0.4-1.8c0,0,0.6,0.2,0.9,0
				c0.1,0.5,0.1,0.4,0.1,0.9c0.1,0.5,0.1,0.7,0.2,0.8C31.8,180.9,31.8,181.3,31.7,181.6z"/>
		</g>
	</g>
	<g>
		<g>
			<path fill="#E26161" d="M24.3-182.6c-17.5,0-31.7,14.2-31.7,31.7s14.2,31.7,31.7,31.7S56-133.5,56-151S41.8-182.6,24.3-182.6z"/>
		</g>
		<g>
			<g>
				<path fill="#4A6067" d="M56-151c0,17.5-14.2,31.7-31.7,31.7S-7.3-133.5-7.3-151s14.2-31.7,31.7-31.7S56-168.5,56-151z M41.5-151
					c0-0.9-0.5-1.8-1.3-2.3l-22.4-13.2c-0.8-0.5-1.8-0.5-2.6,0c-0.8,0.5-1.3,1.4-1.3,2.3v26.4c0,0.9,0.5,1.8,1.3,2.3
					c0.4,0.2,0.9,0.3,1.3,0.3c0.5,0,0.9-0.1,1.3-0.4l22.4-13.2C41-149.2,41.5-150,41.5-151z"/>
			</g>
		</g>
	</g>
	<g>
		<g>
			<path fill="#E2E561" d="M194.4-11.5c-17.4,0-31.6,14.1-31.6,31.6s14.1,31.6,31.6,31.6S226,37.5,226,20.1S211.8-11.5,194.4-11.5z"
				/>
		</g>
		<g>
			<path fill="#4A6067" d="M194.4-11.5c-17.4,0-31.6,14.1-31.6,31.6s14.1,31.6,31.6,31.6S226,37.5,226,20.1S211.8-11.5,194.4-11.5z
				 M193,31.7c0,0.8-0.6,1.4-1.4,1.4c-0.4,0-0.7-0.1-1-0.4l-7.1-7.1h-5.6c-0.8,0-1.4-0.6-1.4-1.4v-8.2c0-0.8,0.6-1.4,1.4-1.4h5.6
				l7.1-7.1c0.3-0.3,0.6-0.4,1-0.4c0.8,0,1.4,0.6,1.4,1.4V31.7z M197.4,25.2c-0.8,0-1.4-0.6-1.4-1.4c0-1.6,2.5-1.2,2.5-3.8
				c0-2.6-2.5-2.1-2.5-3.8c0-0.8,0.6-1.4,1.4-1.4c0.2,0,0.4,0,0.5,0.1c2,0.8,3.3,2.9,3.3,5c0,2.1-1.3,4.2-3.3,5
				C197.8,25.2,197.6,25.2,197.4,25.2z M199.6,30.3c-0.8,0-1.4-0.6-1.4-1.4c0-0.6,0.3-1,0.8-1.3c0.6-0.3,1.1-0.6,1.6-0.9
				c2.1-1.5,3.4-4,3.4-6.6s-1.2-5.1-3.4-6.6c-0.5-0.4-1.1-0.6-1.6-0.9c-0.5-0.3-0.8-0.7-0.8-1.3c0-0.8,0.6-1.4,1.4-1.4
				c0.2,0,0.4,0,0.6,0.1c4,1.7,6.6,5.7,6.6,10.1c0,4.4-2.6,8.4-6.6,10.1C199.9,30.2,199.8,30.3,199.6,30.3z M202.3,35.2
				c-0.2,0.1-0.4,0.1-0.6,0.1c-0.8,0-1.4-0.6-1.4-1.4c0-0.6,0.3-1,0.8-1.3c0.3-0.2,0.6-0.3,1-0.4c0.6-0.3,1.2-0.7,1.8-1.1
				c3.5-2.6,5.6-6.7,5.6-11.1c0-4.4-2.1-8.5-5.6-11.1c-0.6-0.4-1.2-0.8-1.8-1.1c-0.3-0.2-0.7-0.3-1-0.4c-0.5-0.3-0.8-0.6-0.8-1.3
				c0-0.8,0.6-1.4,1.4-1.4c0.2,0,0.4,0,0.6,0.1c6,2.6,10,8.6,10,15.1C212.3,26.6,208.3,32.6,202.3,35.2z"/>
		</g>
	</g>
	<g>
		<g>
			<path fill="#61BEE2" d="M-147.6-11.2c-17,0-30.8,13.8-30.8,30.8s13.8,30.8,30.8,30.8s30.8-13.8,30.8-30.8S-130.6-11.2-147.6-11.2
				z"/>
		</g>
		<g>
			<path fill="#4A6067" d="M-147.3,51.6c-16.9,0-30.7-13.7-30.7-30.6c0-3.5,0.7-7.2,2-10.7l3.1,1.2c-1.2,3.2-1.8,6.4-1.8,9.6
				c0,15.1,12.3,27.3,27.3,27.3c15.1,0,27.3-12.3,27.3-27.3c0-6.6-2.5-13-7-18.1l2.5-2.2c5,5.7,7.8,12.9,7.8,20.3
				C-116.7,37.9-130.4,51.6-147.3,51.6z"/>
		</g>
		<g>
			<path fill="#4A6067" d="M-160.7,30.1l6.5,6.5l20.7-20.7l14.7,14.7c1.3-3.4,2.1-7,2.1-10.9c0-17.1-13.9-31-31-31s-31,13.9-31,31
				c0,7.9,3.1,15,7.9,20.5L-160.7,30.1z M-165.9,9.4c4.3,0,7.8,3.5,7.8,7.8s-3.5,7.8-7.8,7.8c-4.3,0-7.8-3.5-7.8-7.8
				S-170.2,9.4-165.9,9.4z"/>
		</g>
	</g>
	<g>
		<g>
			<path fill="#73C8C3" d="M24.5-70.1c-53,0-96,43-96,96s43,96,96,96s96-43,96-96S77.5-70.1,24.5-70.1z"/>
		</g>
		<g>
			<path fill="#4A6067" d="M24.5-70.1c-53,0-96,43-96,96s43,96,96,96s96-43,96-96S77.5-70.1,24.5-70.1z M-0.6,54.6
				c0.9,0.9,0.9,2.4,0,3.4l-3.7,3.7c-0.9,0.9-2.4,0.9-3.4,0l-34.1-34.1c-1-0.9-1-2.4,0-3.4L-7.6-9.9c1-0.9,2.4-0.9,3.4,0l3.7,3.7
				c0.9,0.9,0.9,2.4,0,3.4l-28.7,28.7L-0.6,54.6z M15.4,74.4c-0.4,1.2-1.7,2-2.8,1.6L8,74.8c-1.2-0.4-2-1.7-1.6-2.9l27.3-94.4
				c0.4-1.2,1.7-2,2.8-1.6l4.5,1.2c1.2,0.4,2,1.7,1.6,2.9L15.4,74.4z M90.7,27.6L56.6,61.7c-0.9,0.9-2.4,0.9-3.4,0L49.6,58
				c-0.9-0.9-0.9-2.4,0-3.4l28.7-28.7L49.6-2.8c-0.9-0.9-0.9-2.4,0-3.4l3.7-3.7c0.9-0.9,2.4-0.9,3.4,0l34.1,34.1
				C91.6,25.2,91.6,26.6,90.7,27.6z"/>
		</g>
	</g>
</g>
<g id="Layer_2">
</g>
</svg>
