<?xml version="1.0" encoding="utf-8"?>
<!-- Generator: Adobe Illustrator 18.0.0, SVG Export Plug-In . SVG Version: 6.00 Build 0)  -->
<!DOCTYPE svg PUBLIC "-//W3C//DTD SVG 1.1//EN" "http://www.w3.org/Graphics/SVG/1.1/DTD/svg11.dtd">
<svg version="1.1" id="Layer_1" xmlns="http://www.w3.org/2000/svg" xmlns:xlink="http://www.w3.org/1999/xlink" x="0px" y="0px"
	 viewBox="0 0 612 612" enable-background="new 0 0 612 612" xml:space="preserve">
<rect fill="#E9EEEF" width="612" height="612"/>
<g>
	<path fill="#6BC8C4" d="M207.9,226.1c-38.4,24.9-53.2,64.6-57.2,77.1c5.2-3.2,15.6-8.6,29.4-8.6c13.6,0,23.3,5.4,27.8,8.6
		C207.9,303.2,207.9,226.1,207.9,226.1z"/>
	<path fill="#6BC8C4" d="M217.7,221.1c42.7,27.8,57.1,71.9,60.1,82.5c4.3-3.2,13.9-8.9,28.2-8.9c19.7,0,31.4,11.2,31.4,11.2
		S311.7,228.7,217.7,221.1z"/>
	<path fill="#6BC8C4" d="M203.9,221.1c-93.5,8-118.9,84.6-118.9,84.6s11.5-11.2,31.4-11.2c13.6,0,23.1,5.4,27.7,8.6
		C147.2,292.1,161.7,248.8,203.9,221.1z"/>
	<path fill="#6BC8C4" d="M214.4,226.4v76.8c4.6-3.2,14.2-8.6,27.8-8.6c13.2,0,23.3,4.9,28.6,8.1
		C266.7,289.8,251.8,251.1,214.4,226.4z"/>
	<path fill="#6BC8C4" d="M311.7,330.2c-14.4,0-24.9,9.5-27.7,22c0,0.2-4.1,19.6-18.1,19.6c-6.7,0-12.4-4.3-13.3-14.4
		c-0.8-7.5,2-16.1,7.3-16.1c2.9,0,4.6,2.9,4.6,7c0,2-0.5,3.2,0.2,4.1c0.5,0.6,2.8,1.7,6.1,1.7c6,0,9.9-5.2,9.8-10.1
		c0-9.6-10.1-14.2-21.4-14.2c-15.5,0.8-26.9,12.7-26.9,27.5c0,15.3,12.4,27.5,27.7,27.7c6.9,0,13.8-2.4,19.9-8.6
		c2.4-2.4,4.1-5.2,5.4-8.3c4,10.1,13.9,17.1,26.3,17.1c16.7,0,28.5-12.2,28.5-27.5C340,342.6,328,330.2,311.7,330.2z M311.7,373.8
		c-5.8,0-8.4-7.6-8.3-16.1c-0.2-8.7,2.3-16.1,8.3-16.1c5.8,0,8.4,7.3,8.6,16.1C320.1,366.6,317.8,373.8,311.7,373.8z"/>
	<path fill="#6BC8C4" d="M392.6,368.7c0,12.2-14.5,16.5-26.2,16.5c-9,0-23.9-3.2-23.9-13.2c0-4.9,4-7.8,9.8-7.8
		c3.4,0,7.2,0.9,7.6,1.7c0.6,0.9,0.2,2.3,0.2,4.1c0,2.6,2.6,4.7,6,4.7c3.8,0,5.4-1.8,5.5-4.6c-0.2-4.9-7-6-14.5-8.4
		c-6.9-2.4-13.6-7.3-13.8-15.3c0-0.2,0-0.2,0-0.3c0-10.6,12.4-16.5,22.8-16.5c11.9,0,23.9,4.1,23.9,13.2c0.2,4.9-3.5,8-9.8,8
		c-3.5,0-6.9-1.1-7.3-1.8c-0.5-0.8-0.2-2.1-0.2-4.1c0-2.8-1.7-5-5.2-4.9c-3.2,0.2-4.7,2.9-4.7,4.7c0,4.9,6,6.3,13,8.3
		C384.2,355.4,392.6,359.5,392.6,368.7z"/>
	<path fill="#6BC8C4" d="M495.4,379c-12.5-10.4-14.1-27.5-4.3-39.3c9.6-11.8,26.8-13.6,39.3-3.2c12.5,10.4,14.1,27.5,4.4,39.5
		C525.2,387.5,508.3,389.5,495.4,379z M502.8,370.1c4.7,3.8,11-0.2,16.8-7c5.5-6.7,8.3-14.1,3.7-17.9c-4.6-3.8-11.2,0.3-16.7,7.2
		C501.1,358.8,498.2,366.3,502.8,370.1z"/>
	<path fill="#6BC8C4" d="M491,381.1c-1.1,3.2-6.9,13.8-17.7,13.8c-8.1,0-14.8-5.8-14.8-15.5v-29.5c0-10.1-9.5-6.6-9.5,5.4v1.8
		c0,2,0.8,17.6,0.8,18.7c0,7.3-6.9,9.2-10.7,9.2h-0.2c-3.8-0.2-10.7-2-10.7-9.2c0-0.8,0.3-16.4,0.3-18.7c0.2-2.4,0-4.9,0-7.2
		c0-10.1-9.5-6.6-9.5,5.4c0,3.2,0.5,19.4,0.5,20.5c0,7.3-6.9,9.2-10.7,9.2h-0.2c-3.8-0.2-10.7-2-10.7-9.2c0-0.5,0-1.7,0.2-3.2
		c0.2-7.2,0.5-20.8,0.5-24.8c0-16.1-6.7-12.7-5.8-15.5c0.9-3.2,6.7-6.6,12.5-6.6c12.9,0,12.5,12.9,12.5,15.5h0.2
		c4.1-8.3,7.8-14.2,17-14.2s11.5,7.2,13.3,14.2h0.3c4.3-8.3,7.2-14.2,16.4-14.2c9.3,0,13.9,9.5,13.9,19.6v25.7
		C478.9,388.5,492,378.2,491,381.1z"/>
	<polygon fill="#6BC8C4" points="205.6,429 205.6,398.1 208.4,398.1 208.4,309.7 211,311.5 213.7,309.7 213.7,398.1 216.5,398.1 
		216.5,429 	"/>
	<path fill="#6BC8C4" d="M207.3,174.9c0,0-1.7-0.2-3.4-0.2c-1.5,0.2-4,2-4.6,5.7c-0.6,3.7,0.6,5.7,0.9,8s1.1,6.6-3.5,15.3
		c-4.6,8.7-15.3,11.5-15.3,11.5s-0.2,3.1-0.3,3.5s-0.6,0.3-0.6,0.9s1.4,5.5,1.4,5.5s2.1-0.3,2.6-0.2c0.6,0.2,0.6,0.6,0.6,0.6
		s3.2-0.5,3.8,0.9c-0.9-0.3-0.9-0.2-1.1,0.2c-0.2,0.3-0.3,0.3-0.6,0.5c-0.3,0.2-1.4-0.5-2.3-0.6c-0.9-0.2-2.4,0.2-2.4,0.2l0.5,0.8
		c0,0,2.4-0.9,2.9,0.2c-0.8-0.2-1.1,0.8-1.1,0.8s4.7,0.3,4.7,1.8c-0.6-0.5-0.8,0.2-1.4,0.3c-0.6,0.3-3.1-1.8-5-1.1
		c-1.1,0.5,2.1,2.9,1.4,3.4c-2,0.9-2-3.2-3.1-3.5c-2.3-0.3-3.5,0.9-4.4,0.5c-0.9-0.3-1.2,0.2-1.2,0.2s-0.2-1.1,0.8-1.5
		c0.8-0.5,3.4-0.2,3.7-0.9c0.3-0.8-0.9-1.2-2.4-1.2s-2.8,0.6-3.4,0.5s-0.9,0.3-0.9,0.3s-0.5-0.9,0.8-1.4c1.2-0.3,4-0.2,4-1.2
		c0-1.1-1.8-5.2-1.8-5.2s-0.3,0-0.9-0.5c-0.6-0.5-1.1-2.4-1.1-2.4s-3.8,0.2-7.3-0.5c-3.4-0.8-5.5-1.5-5.5-1.5s-10.7,8.3-15,11
		c-4.4,2.8-10.9,3.5-12.1,2.8c-1.4-0.8,4.3-4,7.5-6.6c3.2-2.4,5.7-5.4,5.7-5.4s-0.9,0-0.9-0.8c0.6-0.5,3.7-3.5,3.7-3.5
		s-0.6-0.2-0.5-0.6c1.2-0.9,2.8-2.4,2.8-2.4s-0.6-0.3-0.3-0.8c1.4-0.6,5.4-4.3,5.4-4.3s-0.2-1.2,0.5-1.7c0.6-0.3,3.4-2.3,6.9-5.4
		c3.5-3.1,4.7-6.1,10.4-9.5c5.7-3.5,9.8-2.6,11.3-5.8c1.7-3.2,2.9-6.1,3.7-7.5s1.8-1.8,2.3-2.6c0.5-0.8,1.7-3.4,5.7-3.5
		c4.1-0.2,5.5,3.7,5.5,3.7s0,0,0.5,0.3c0.5,0.3,0.9,1.1,0.9,1.1S207.3,173.5,207.3,174.9z"/>
	<path opacity="0.6" fill="#6BC8C4" enable-background="new    " d="M207.9,226.1c-38.4,24.9-53.2,64.6-57.2,77.1
		c5.2-3.2,15.6-8.6,29.4-8.6c13.6,0,23.3,5.4,27.8,8.6C207.9,303.2,207.9,226.1,207.9,226.1z"/>
	<path opacity="0.6" fill="#6BC8C4" enable-background="new    " d="M217.7,221.1c42.7,27.8,57.1,71.9,60.1,82.5
		c4.3-3.2,13.9-8.9,28.2-8.9c19.7,0,31.4,11.2,31.4,11.2S311.7,228.7,217.7,221.1z"/>
	<path fill="#6BC8C4" d="M244.6,212.7c2.3-2.3,5.2-10.3,6.1-11.8c0.9-1.7,4.3-6.1,1.4-10.7c-2.9-4.6-4.7-5.8-6.6-10.3
		c-1.8-4.4-1.1-11.3-6.7-12.7s-6.1,3.1-5.7,4.3c-0.8,0.5-0.5,1.4-0.5,1.4s-1.5,0.6-1.1,2.4c0.3-0.2,0.9-1.4,2.4-1.1s2.4,2.1,1.2,6.7
		c-1.2,4.6-1.8,5-3.5,6.6c-2.9,2.1-6.6,10.1-6.7,12.2c-1.8,0.9-2.9,0.3-3.7,0.3c0.2,1.7,3.1,1.8,3.1,1.8s-0.3,0.9-0.8,1.1
		c0.3,0.5,0.8,0.2,0.8,0.2s1.5,5.8,5,9.5c0.2,1.7,0.3,2.1,0.5,3.7c0.2,1.7,1.2,3.1,1.4,4c0.2,0.9,0.2,1.1-0.2,2.1
		c-0.3,1.1-0.9,1.5-1.2,1.4s-1.7-0.5-2.1,0.9c0,0,0.5-0.6,1.2-0.3c1.2,0.6,2.8,0.3,3.8,0.6c1.1,0.5,1.1,0.6,1.8,1.8
		c1.1-0.3,0.5-1.5,0.5-1.5s1.1,0,1.8,0.3c0.6,0.2,0.8,0.6,1.7,0c0,0-1.1,0.9-0.5,1.2c0,0,0-0.5,1.1-0.5c0.9,0,1.7-0.3,2.1-0.9
		c1.2,1.2,0.8,1.1,2,2.1c1.2,1.1,0.6,1.2,0.5,1.8c0.5-0.2,1.1-1.1,1.1-1.8c-0.2-0.8-0.8-1.5-0.8-1.5s2.4,0.6,3.4,0.2
		c0.5-0.3,0.9,0.2,0.9,0.2s-0.2-0.9-1.1-1.2c-0.9-0.3-3.2-0.2-4-0.9s-1.4-1.1-1.4-3.5c0-1.2,0.2-0.8,0.8-2.4
		C243,217,243.7,213,244.6,212.7z M239.9,223.2c-0.3,1.1-2.1,1.5-2.1,1.5s0-0.5-1.1-0.3c-1.2,0-2.6-0.2-2.9-0.5
		c-0.5-0.3-0.9-1.7-0.9-2.1c0-0.5,0.2-0.8,0.3-1.2s1.7-4.6,1.7-7c0,0,2.3,0.6,3.7,0c0.2,1.8,0.2,1.7,0.5,3.5
		c0.2,1.8,0.2,2.6,0.9,3.1C240.2,220.3,240.2,222,239.9,223.2z"/>
</g>
</svg>
