<?xml version="1.0" encoding="utf-8"?>
<!-- Generator: Adobe Illustrator 18.1.1, SVG Export Plug-In . SVG Version: 6.00 Build 0)  -->
<svg version="1.1" xmlns="http://www.w3.org/2000/svg" xmlns:xlink="http://www.w3.org/1999/xlink" x="0px" y="0px"
	 viewBox="-450 -355 950 760" enable-background="new -450 -355 950 760" xml:space="preserve">
<g id="Layer_1">
	<g>
		<rect x="-447.7" y="-355" fill="#E9EEEF" width="948.1" height="760"/>
	</g>
	<g>
	</g>
	<g>
		<g>
			<g>
				<path fill="#4A6067" d="M-150.5,3.1c-9.7,6.3-13.4,16.3-14.4,19.4c1.3-0.8,3.9-2.2,7.4-2.2c3.4,0,5.9,1.4,7,2.2V3.1z"/>
			</g>
			<g>
				<path fill="#4A6067" d="M-148,1.9c10.8,7,14.4,18.1,15.1,20.8c1.1-0.8,3.5-2.2,7.1-2.2c5,0,7.9,2.8,7.9,2.8S-124.3,3.8-148,1.9z
					"/>
			</g>
			<g>
				<path fill="#4A6067" d="M-151.5,1.9c-23.6,2-30,21.3-30,21.3s2.9-2.8,7.9-2.8c3.4,0,5.8,1.4,7,2.2
					C-165.8,19.8-162.1,8.8-151.5,1.9z"/>
			</g>
			<g>
				<path fill="#4A6067" d="M-148.8,3.2v19.4c1.2-0.8,3.6-2.2,7-2.2c3.3,0,5.9,1.2,7.2,2C-135.6,19.2-139.4,9.4-148.8,3.2z"/>
			</g>
			<g>
				<polygon fill="#4A6067" points="-151,54.3 -151,46.5 -150.3,46.5 -150.3,24.2 -149.7,24.6 -149,24.2 -149,46.5 -148.3,46.5 
					-148.3,54.3 				"/>
			</g>
			<g>
				<path fill="#4A6067" d="M-150.6-9.8c0,0-0.4-0.1-0.9-0.1c-0.4,0.1-1,0.5-1.2,1.4c-0.2,0.9,0.2,1.4,0.2,2
					c0.1,0.6,0.3,1.7-0.9,3.9s-3.9,2.9-3.9,2.9s-0.1,0.8-0.1,0.9c0,0.1-0.2,0.1-0.2,0.2s0.4,1.4,0.4,1.4s0.5-0.1,0.7-0.1
					c0.2,0.1,0.2,0.2,0.2,0.2s0.8-0.1,1,0.2c-0.2-0.1-0.2-0.1-0.3,0.1c-0.1,0.1-0.1,0.1-0.2,0.1c-0.1,0.1-0.4-0.1-0.6-0.2
					c-0.2-0.1-0.6,0.1-0.6,0.1l0.1,0.2c0,0,0.6-0.2,0.7,0.1c-0.2-0.1-0.3,0.2-0.3,0.2s1.2,0.1,1.2,0.5c-0.2-0.1-0.2,0.1-0.4,0.1
					c-0.2,0.1-0.8-0.5-1.3-0.3c-0.3,0.1,0.5,0.7,0.4,0.9c-0.5,0.2-0.5-0.8-0.8-0.9c-0.6-0.1-0.9,0.2-1.1,0.1
					c-0.2-0.1-0.3,0.1-0.3,0.1s-0.1-0.3,0.2-0.4c0.2-0.1,0.9-0.1,0.9-0.2c0.1-0.2-0.2-0.3-0.6-0.3s-0.7,0.2-0.9,0.1
					s-0.2,0.1-0.2,0.1s-0.1-0.2,0.2-0.4c0.3-0.1,1-0.1,1-0.3c0-0.3-0.5-1.3-0.5-1.3s-0.1,0-0.2-0.1s-0.3-0.6-0.3-0.6s-1,0.1-1.8-0.1
					c-0.9-0.2-1.4-0.4-1.4-0.4s-2.7,2.1-3.8,2.8c-1.1,0.7-2.7,0.9-3,0.7c-0.4-0.2,1.1-1,1.9-1.7c0.8-0.6,1.4-1.4,1.4-1.4
					s-0.2,0-0.2-0.2c0.2-0.1,0.9-0.9,0.9-0.9s-0.2-0.1-0.1-0.2c0.3-0.2,0.7-0.6,0.7-0.6s-0.2-0.1-0.1-0.2c0.4-0.2,1.4-1.1,1.4-1.1
					s-0.1-0.3,0.1-0.4c0.2-0.1,0.9-0.6,1.7-1.4c0.9-0.8,1.2-1.5,2.6-2.4c1.4-0.9,2.5-0.7,2.8-1.5c0.4-0.8,0.7-1.5,0.9-1.9
					c0.2-0.4,0.5-0.5,0.6-0.7c0.1-0.2,0.4-0.9,1.4-0.9c1-0.1,1.4,0.9,1.4,0.9s0,0,0.1,0.1c0.1,0.1,0.2,0.3,0.2,0.3
					S-150.6-10.1-150.6-9.8z"/>
			</g>
			<g opacity="0.6" enable-background="new    ">
				<path fill="#4A6067" d="M-150.5,3.1c-9.7,6.3-13.4,16.3-14.4,19.4c1.3-0.8,3.9-2.2,7.4-2.2c3.4,0,5.9,1.4,7,2.2V3.1z"/>
			</g>
			<g opacity="0.6" enable-background="new    ">
				<path fill="#4A6067" d="M-148,1.9c10.8,7,14.4,18.1,15.1,20.8c1.1-0.8,3.5-2.2,7.1-2.2c5,0,7.9,2.8,7.9,2.8S-124.3,3.8-148,1.9z
					"/>
			</g>
			<g>
				<path fill="#4A6067" d="M-141.2-0.3c0.6-0.6,1.3-2.6,1.5-3c0.2-0.4,1.1-1.5,0.4-2.7c-0.7-1.2-1.2-1.5-1.7-2.6
					c-0.5-1.1-0.3-2.8-1.7-3.2c-1.4-0.4-1.5,0.8-1.4,1.1c-0.2,0.1-0.1,0.4-0.1,0.4s-0.4,0.2-0.3,0.6c0.1-0.1,0.2-0.4,0.6-0.3
					s0.6,0.5,0.3,1.7c-0.3,1.2-0.5,1.3-0.9,1.7c-0.7,0.5-1.7,2.5-1.7,3.1c-0.5,0.2-0.7,0.1-0.9,0.1c0.1,0.4,0.8,0.5,0.8,0.5
					s-0.1,0.2-0.2,0.3c0.1,0.1,0.2,0.1,0.2,0.1s0.4,1.5,1.3,2.4c0.1,0.4,0.1,0.5,0.1,0.9c0.1,0.4,0.3,0.8,0.4,1s0.1,0.3-0.1,0.5
					c-0.1,0.3-0.2,0.4-0.3,0.4c-0.1,0-0.4-0.1-0.5,0.2c0,0,0.1-0.2,0.3-0.1c0.3,0.2,0.7,0.1,1,0.2c0.3,0.1,0.3,0.2,0.5,0.5
					c0.3-0.1,0.1-0.4,0.1-0.4s0.3,0,0.5,0.1c0.2,0.1,0.2,0.2,0.4,0c0,0-0.3,0.2-0.1,0.3c0,0,0-0.1,0.3-0.1c0.2,0,0.4-0.1,0.5-0.2
					c0.3,0.3,0.2,0.3,0.5,0.5c0.3,0.3,0.2,0.3,0.1,0.5c0.1-0.1,0.3-0.3,0.3-0.5c-0.1-0.2-0.2-0.4-0.2-0.4s0.6,0.2,0.9,0.1
					c0.1-0.1,0.2,0.1,0.2,0.1s-0.1-0.2-0.3-0.3c-0.2-0.1-0.8-0.1-1-0.2c-0.2-0.2-0.4-0.3-0.4-0.9c0-0.3,0.1-0.2,0.2-0.6
					C-141.6,0.8-141.4-0.2-141.2-0.3z M-142.4,2.4c-0.1,0.3-0.5,0.4-0.5,0.4s0-0.1-0.3-0.1c-0.3,0-0.7-0.1-0.7-0.1
					c-0.1-0.1-0.2-0.4-0.2-0.5c0-0.1,0.1-0.2,0.1-0.3c0-0.1,0.4-1.2,0.4-1.8c0,0,0.6,0.2,0.9,0c0.1,0.5,0.1,0.4,0.1,0.9
					c0.1,0.5,0.1,0.7,0.2,0.8C-142.3,1.7-142.3,2.1-142.4,2.4z"/>
			</g>
		</g>
		<g>
			<g>
				<path fill="#E26161" d="M31.8-182.6c-17.5,0-31.7,14.2-31.7,31.7s14.2,31.7,31.7,31.7s31.7-14.2,31.7-31.7
					S49.3-182.6,31.8-182.6z"/>
			</g>
			<g>
				<g>
					<path fill="#4A6067" d="M63.4-151c0,17.5-14.2,31.7-31.7,31.7S0.1-133.5,0.1-151s14.2-31.7,31.7-31.7S63.4-168.4,63.4-151z
						 M48.9-151c0-0.9-0.5-1.8-1.3-2.3l-22.4-13.2c-0.8-0.5-1.8-0.5-2.6,0c-0.8,0.5-1.3,1.4-1.3,2.3v26.4c0,0.9,0.5,1.8,1.3,2.3
						c0.4,0.2,0.9,0.3,1.3,0.3c0.5,0,0.9-0.1,1.3-0.4l22.4-13.2C48.4-149.1,48.9-150,48.9-151z"/>
				</g>
			</g>
		</g>
		<g>
			<g>
				<path fill="#E2E561" d="M202.6-10.3c-17.4,0-31.6,14.1-31.6,31.6s14.1,31.6,31.6,31.6s31.6-14.1,31.6-31.6S220-10.3,202.6-10.3z
					"/>
			</g>
			<g>
				<path fill="#4A6067" d="M202.6-10.3c-17.4,0-31.6,14.1-31.6,31.6s14.1,31.6,31.6,31.6s31.6-14.1,31.6-31.6S220-10.3,202.6-10.3z
					 M201.2,32.9c0,0.8-0.6,1.4-1.4,1.4c-0.4,0-0.7-0.1-1-0.4l-7.1-7.1h-5.6c-0.8,0-1.4-0.6-1.4-1.4v-8.2c0-0.8,0.6-1.4,1.4-1.4h5.6
					l7.1-7.1c0.3-0.3,0.6-0.4,1-0.4c0.8,0,1.4,0.6,1.4,1.4V32.9z M205.6,26.4c-0.8,0-1.4-0.6-1.4-1.4c0-1.6,2.5-1.2,2.5-3.8
					c0-2.6-2.5-2.1-2.5-3.8c0-0.8,0.6-1.4,1.4-1.4c0.2,0,0.4,0,0.5,0.1c2,0.8,3.3,2.9,3.3,5c0,2.1-1.3,4.2-3.3,5
					C205.9,26.4,205.8,26.4,205.6,26.4z M207.7,31.4c-0.8,0-1.4-0.6-1.4-1.4c0-0.6,0.3-1,0.8-1.3c0.6-0.3,1.1-0.6,1.6-0.9
					c2.1-1.5,3.4-4,3.4-6.6s-1.2-5.1-3.4-6.6c-0.5-0.4-1.1-0.6-1.6-0.9c-0.5-0.3-0.8-0.7-0.8-1.3c0-0.8,0.6-1.4,1.4-1.4
					c0.2,0,0.4,0,0.6,0.1c4,1.7,6.6,5.7,6.6,10.1c0,4.4-2.6,8.4-6.6,10.1C208.1,31.4,207.9,31.4,207.7,31.4z M210.5,36.4
					c-0.2,0.1-0.4,0.1-0.6,0.1c-0.8,0-1.4-0.6-1.4-1.4c0-0.6,0.3-1,0.8-1.3c0.3-0.2,0.6-0.3,1-0.4c0.6-0.3,1.2-0.7,1.8-1.1
					c3.5-2.6,5.6-6.7,5.6-11.1c0-4.4-2.1-8.5-5.6-11.1c-0.6-0.4-1.2-0.8-1.8-1.1c-0.3-0.2-0.7-0.3-1-0.4c-0.5-0.3-0.8-0.6-0.8-1.3
					c0-0.8,0.6-1.4,1.4-1.4c0.2,0,0.4,0,0.6,0.1c6,2.6,10,8.6,10,15.1C220.4,27.8,216.5,33.8,210.5,36.4z"/>
			</g>
		</g>
		<g>
			<g>
				<path fill="#61BEE2" d="M32.4-73.4c-51.3,0-92.8,41.6-92.8,92.8s41.6,92.8,92.8,92.8s92.8-41.6,92.8-92.8S83.7-73.4,32.4-73.4z"
					/>
			</g>
			<g>
				<path fill="#4A6067" d="M33.1,116c-50.9,0-92.4-41.4-92.4-92.4c0-10.7,2.1-21.6,6.1-32.4l9.4,3.5c-3.6,9.7-5.5,19.4-5.5,28.8
					c0,45.4,37,82.4,82.4,82.4s82.4-37,82.4-82.4c0-19.9-7.5-39.2-21.1-54.5l7.5-6.6c15.2,17.1,23.6,38.8,23.6,61.1
					C125.5,74.6,84,116,33.1,116z"/>
			</g>
			<g>
				<path fill="#4A6067" d="M-7.3,51.2l19.5,19.5L74.6,8.3L119,52.8c3.8-10.2,6.2-21.2,6.2-32.8c0-51.6-41.9-93.6-93.6-93.6
					S-61.9-31.6-61.9,20c0,23.8,9.2,45.4,23.9,61.9L-7.3,51.2z M-22.9-11.2C-10-11.2,0.5-0.7,0.5,12.2S-10,35.6-22.9,35.6
					s-23.4-10.5-23.4-23.4S-35.8-11.2-22.9-11.2z"/>
			</g>
		</g>
		<g>
			<g>
				<path fill="#73C8C3" d="M31.8,169C14.2,169,0,183.2,0,200.8s14.3,31.8,31.8,31.8s31.8-14.3,31.8-31.8S49.4,169,31.8,169z"/>
			</g>
			<g>
				<path fill="#4A6067" d="M31.8,169C14.2,169,0,183.2,0,200.8s14.3,31.8,31.8,31.8s31.8-14.3,31.8-31.8S49.4,169,31.8,169z
					 M23.5,210.3c0.3,0.3,0.3,0.8,0,1.1l-1.2,1.2c-0.3,0.3-0.8,0.3-1.1,0L9.8,201.3c-0.3-0.3-0.3-0.8,0-1.1l11.3-11.3
					c0.3-0.3,0.8-0.3,1.1,0l1.2,1.2c0.3,0.3,0.3,0.8,0,1.1l-9.5,9.5L23.5,210.3z M28.8,216.9c-0.1,0.4-0.6,0.7-0.9,0.5l-1.5-0.4
					c-0.4-0.1-0.7-0.6-0.5-1l9-31.3c0.1-0.4,0.6-0.7,0.9-0.5l1.5,0.4c0.4,0.1,0.7,0.6,0.5,1L28.8,216.9z M53.7,201.3l-11.3,11.3
					c-0.3,0.3-0.8,0.3-1.1,0l-1.2-1.2c-0.3-0.3-0.3-0.8,0-1.1l9.5-9.5l-9.5-9.5c-0.3-0.3-0.3-0.8,0-1.1l1.2-1.2
					c0.3-0.3,0.8-0.3,1.1,0l11.3,11.3C54,200.5,54,201,53.7,201.3z"/>
			</g>
		</g>
	</g>
</g>
<g id="Layer_2">
</g>
</svg>
