<?xml version="1.0" encoding="utf-8"?>
<!-- Generator: Adobe Illustrator 18.0.0, SVG Export Plug-In . SVG Version: 6.00 Build 0)  -->
<!DOCTYPE svg PUBLIC "-//W3C//DTD SVG 1.1//EN" "http://www.w3.org/Graphics/SVG/1.1/DTD/svg11.dtd">
<svg version="1.1" id="Layer_1" xmlns="http://www.w3.org/2000/svg" xmlns:xlink="http://www.w3.org/1999/xlink" x="0px" y="0px"
	 viewBox="0 0 612 612" enable-background="new 0 0 612 612" xml:space="preserve">
<rect fill="#6BC8C4" width="612" height="612"/>
<g>
	<path fill="#FFFFFF" d="M299.9,168.3c-73.4,49-104,125.5-110.2,149.9c9.2-6.1,30.6-15.3,58.1-15.3s45.9,9.2,55.1,15.3
		C299.9,318.2,299.9,168.3,299.9,168.3z"/>
	<path fill="#FFFFFF" d="M318.2,159.1c82.6,55.1,110.2,140.8,116.3,159.1c9.2-6.1,27.5-18.4,55.1-18.4c39.8,0,61.2,21.4,61.2,21.4
		S501.8,171.4,318.2,159.1z"/>
	<path fill="#41AAA5" d="M290.7,159.1C110.2,174.4,61.2,324.4,61.2,324.4s21.4-21.4,61.2-21.4c27.5,0,45.9,9.2,55.1,15.3
		C180.5,296.8,211.1,211.1,290.7,159.1z"/>
	<path fill="#41AAA5" d="M312.1,168.3v149.9c9.2-6.1,27.5-15.3,55.1-15.3c24.5,0,45.9,9.2,55.1,15.3
		C413.1,290.7,385.6,217.3,312.1,168.3z"/>
	<polygon fill="#41AAA5" points="293.8,563 293.8,501.8 299.9,501.8 299.9,330.5 306,333.5 309.1,330.5 309.1,501.8 315.2,501.8 
		315.2,563 	"/>
	<path fill="#ED1C24" d="M296.8,67.3c0,0-3.1,0-6.1,0c-3.1,0-6.1,3.1-9.2,12.2c0,6.1,0,12.2,3.1,15.3c0,3.1,3.1,12.2-6.1,30.6
		c-9.2,18.4-30.6,21.4-30.6,21.4v6.1c0,0,0,0,0,3.1s3.1,12.2,3.1,12.2s3.1,0,6.1,0l0,0c0,0,6.1,0,6.1,3.1c-3.1,0-3.1,0-3.1,0l0,0
		H257c-3.1,0-6.1,0-6.1,0l0,0c0,0,6.1-3.1,6.1,0H254c0,0,9.2,0,9.2,3.1h-3.1c0,0-6.1-3.1-9.2-3.1c-3.1,0,3.1,6.1,3.1,6.1
		c-3.1,3.1-3.1-6.1-6.1-6.1c-3.1,0-6.1,3.1-9.2,0c-3.1,0-3.1,0-3.1,0v-3.1c0,0,6.1,0,6.1-3.1c0,0-3.1-3.1-6.1-3.1
		c-3.1,0-6.1,0-6.1,0h-3.1c0,0,0-3.1,3.1-3.1c3.1,0,9.2,0,9.2-3.1s-3.1-9.2-3.1-9.2s0,0-3.1,0l-3.1-6.1c0,0-6.1,0-15.3,0
		c-6.1,0-9.2-3.1-9.2-3.1s-21.4,15.3-30.6,21.4c-9.2,6.1-21.4,6.1-24.5,6.1c-3.1-3.1,9.2-9.2,15.3-12.2c6.1-6.1,12.2-9.2,12.2-9.2
		h-3.1l6.1-6.1l0,0c3.1-3.1,6.1-6.1,6.1-6.1s0,0,0-3.1c3.1,0,9.2-9.2,9.2-9.2v-3.1c0,0,6.1-3.1,12.2-9.2c6.1-6.1,9.2-12.2,21.4-18.4
		c12.2-6.1,18.4-6.1,21.4-12.2c3.1-6.1,6.1-12.2,6.1-15.3c3.1-3.1,3.1-3.1,3.1-6.1c0,0,3.1-6.1,12.2-6.1c9.2,0,9.2,6.1,9.2,6.1l0,0
		l3.1,3.1C284.6,58.1,296.8,64.3,296.8,67.3z"/>
	<path opacity="0.6" fill="#6BC8C4" enable-background="new    " d="M299.9,168.3c-73.4,49-104,125.5-110.2,149.9
		c9.2-6.1,30.6-15.3,58.1-15.3s45.9,9.2,55.1,15.3C299.9,318.2,299.9,168.3,299.9,168.3z"/>
	<path opacity="0.6" fill="#6BC8C4" enable-background="new    " d="M318.2,159.1c82.6,55.1,110.2,140.8,116.3,159.1
		c9.2-6.1,27.5-18.4,55.1-18.4c39.8,0,61.2,21.4,61.2,21.4S501.8,171.4,318.2,159.1z"/>
	<path fill="#ED1C24" d="M370.3,140.8c6.1-3.1,9.2-18.4,12.2-24.5c3.1-3.1,9.2-12.2,3.1-21.4c-6.1-9.2-9.2-12.2-12.2-18.4
		c-3.1-9.2-3.1-21.4-12.2-24.5c-12.2-3.1-12.2,6.1-12.2,9.2v3.1c0,0-3.1,0-3.1,6.1c0,0,3.1-3.1,6.1-3.1c3.1,0,6.1,3.1,3.1,12.2
		c-3.1,9.2-3.1,9.2-6.1,12.2c-6.1,3.1-12.2,18.4-12.2,24.5c-3.1,3.1-6.1,0-6.1,0c0,3.1,6.1,3.1,6.1,3.1s0,3.1-3.1,3.1h3.1
		c0,0,3.1,12.2,9.2,18.4c0,3.1,0,3.1,0,6.1s3.1,6.1,3.1,9.2c0,3.1,0,3.1,0,3.1l-3.1,3.1c0,0-3.1,0-3.1,3.1c0,0,0,0,3.1,0
		s6.1,0,6.1,0c3.1,0,3.1,0,3.1,3.1c3.1,0,0-3.1,0-3.1h3.1h3.1c0,0-3.1,3.1,0,3.1c0,0,0,0,3.1,0s3.1,0,3.1-3.1
		c3.1,3.1,3.1,3.1,3.1,3.1c3.1,3.1,0,3.1,0,3.1l3.1-3.1l-3.1-3.1h6.1h3.1c0,0,0-3.1-3.1-3.1c-3.1,0-6.1,0-6.1-3.1s-3.1-3.1-3.1-6.1
		s0,0,0-6.1C367.2,149.9,370.3,140.8,370.3,140.8z M361.1,162.2c0,3.1-3.1,3.1-3.1,3.1s0,0-3.1,0c-3.1,0-6.1,0-6.1,0l-3.1-3.1
		c0,0,0,0,0-3.1s3.1-9.2,3.1-12.2c0,0,3.1,0,6.1,0c0,3.1,0,3.1,0,6.1s0,6.1,3.1,6.1C361.1,156.1,361.1,159.1,361.1,162.2z"/>
</g>
</svg>
