<?xml version="1.0" encoding="utf-8"?>
<!-- Generator: Adobe Illustrator 18.1.1, SVG Export Plug-In . SVG Version: 6.00 Build 0)  -->
<svg version="1.1" xmlns="http://www.w3.org/2000/svg" xmlns:xlink="http://www.w3.org/1999/xlink" x="0px" y="0px"
	 viewBox="-450 -355 950 760" enable-background="new -450 -355 950 760" xml:space="preserve">
<g id="Layer_1">
	<g>
		<rect x="-449" y="-355" fill="#E9EEEF" width="948.1" height="760"/>
	</g>
	<g>
	</g>
	<g>
		<g>
			<path fill="#4A6067" d="M20.7-33.6c-31.3,20.3-43.4,52.6-46.6,62.8c4.2-2.6,12.7-7,24-7c11.1,0,19,4.4,22.7,7V-33.6z"/>
		</g>
		<g>
			<path fill="#4A6067" d="M28.7-37.6C63.4-15,75.2,21,77.6,29.6c3.5-2.6,11.3-7.3,23-7.3c16.1,0,25.6,9.1,25.6,9.1
				S105.3-31.4,28.7-37.6z"/>
		</g>
		<g>
			<path fill="#4A6067" d="M17.4-37.6c-76.2,6.5-96.9,68.9-96.9,68.9s9.4-9.1,25.6-9.1c11.1,0,18.8,4.4,22.6,7
				C-28.8,20.2-17-15.1,17.4-37.6z"/>
		</g>
		<g>
			<path fill="#4A6067" d="M26-33.3v62.6c3.7-2.6,11.6-7,22.7-7c10.8,0,19,4,23.3,6.6C68.6,18.3,56.4-13.2,26-33.3z"/>
		</g>
		<g>
			<polygon fill="#4A6067" points="18.8,131.8 18.8,106.6 21.1,106.6 21.1,34.6 23.2,36 25.4,34.6 25.4,106.6 27.7,106.6 
				27.7,131.8 			"/>
		</g>
		<g>
			<path fill="#4A6067" d="M20.2-75.3c0,0-1.4-0.2-2.8-0.2c-1.2,0.2-3.3,1.6-3.7,4.6s0.5,4.6,0.7,6.5c0.2,1.9,0.9,5.4-2.9,12.5
				s-12.5,9.4-12.5,9.4s-0.2,2.5-0.2,2.9s-0.5,0.2-0.5,0.7c0,0.5,1.1,4.5,1.1,4.5s1.7-0.2,2.1-0.2C2.1-34.4,2.1-34,2.1-34
				s2.6-0.4,3.1,0.7c-0.7-0.2-0.7-0.2-0.9,0.2c-0.2,0.2-0.2,0.2-0.5,0.4c-0.2,0.2-1.1-0.4-1.9-0.5c-0.7-0.2-2,0.2-2,0.2l0.4,0.7
				c0,0,2-0.7,2.4,0.2c-0.7-0.2-0.9,0.7-0.9,0.7s3.8,0.2,3.8,1.5C5.2-30.5,5-30,4.5-29.9C4-29.6,2-31.4,0.5-30.8
				c-0.9,0.4,1.7,2.4,1.1,2.8C0-27.3,0-30.6-0.9-30.9c-1.9-0.2-2.9,0.7-3.6,0.4c-0.7-0.2-1,0.2-1,0.2s-0.2-0.9,0.7-1.2
				c0.7-0.4,2.8-0.2,3-0.7c0.2-0.7-0.7-1-2-1s-2.3,0.5-2.8,0.4c-0.5-0.1-0.7,0.2-0.7,0.2s-0.4-0.7,0.7-1.1c1-0.2,3.3-0.2,3.3-1
				c0-0.9-1.5-4.2-1.5-4.2s-0.2,0-0.7-0.4c-0.5-0.4-0.9-2-0.9-2s-3.1,0.2-5.9-0.4c-2.8-0.7-4.5-1.2-4.5-1.2s-8.7,6.8-12.2,9
				c-3.6,2.3-8.9,2.9-9.9,2.3c-1.1-0.7,3.5-3.3,6.1-5.4c2.6-2,4.6-4.4,4.6-4.4s-0.7,0-0.7-0.7c0.5-0.4,3-2.9,3-2.9s-0.5-0.2-0.4-0.5
				c1-0.7,2.3-2,2.3-2s-0.5-0.2-0.2-0.7c1.1-0.5,4.4-3.5,4.4-3.5s-0.2-1,0.4-1.4c0.5-0.2,2.8-1.9,5.6-4.4c2.9-2.5,3.8-5,8.5-7.7
				c4.6-2.9,8-2.1,9.2-4.7c1.4-2.6,2.4-5,3-6.1c0.7-1.1,1.5-1.5,1.9-2.1c0.4-0.7,1.4-2.8,4.6-2.9c3.3-0.2,4.5,3,4.5,3s0,0,0.4,0.2
				c0.4,0.2,0.7,0.9,0.7,0.9S20.2-76.4,20.2-75.3z"/>
		</g>
		<g opacity="0.6" enable-background="new    ">
			<path fill="#4A6067" d="M20.7-33.6c-31.3,20.3-43.4,52.6-46.6,62.8c4.2-2.6,12.7-7,24-7c11.1,0,19,4.4,22.7,7V-33.6z"/>
		</g>
		<g opacity="0.6" enable-background="new    ">
			<path fill="#4A6067" d="M28.7-37.6C63.4-15,75.2,21,77.6,29.6c3.5-2.6,11.3-7.3,23-7.3c16.1,0,25.6,9.1,25.6,9.1
				S105.3-31.4,28.7-37.6z"/>
		</g>
		<g>
			<path fill="#4A6067" d="M50.6-44.5c1.9-1.9,4.2-8.4,5-9.6c0.7-1.4,3.5-5,1.1-8.7c-2.4-3.7-3.8-4.7-5.4-8.4
				c-1.5-3.6-0.9-9.2-5.5-10.3s-5,2.5-4.6,3.5c-0.7,0.4-0.4,1.1-0.4,1.1s-1.2,0.5-0.9,2c0.2-0.2,0.7-1.1,2-0.9c1.2,0.2,2,1.7,1,5.5
				c-1,3.7-1.5,4.1-2.9,5.4c-2.4,1.7-5.4,8.2-5.5,9.9c-1.5,0.7-2.4,0.2-3,0.2c0.2,1.4,2.5,1.5,2.5,1.5s-0.2,0.7-0.7,0.9
				c0.2,0.4,0.7,0.2,0.7,0.2s1.2,4.7,4.1,7.7c0.2,1.4,0.2,1.7,0.4,3c0.2,1.4,1,2.5,1.1,3.3c0.2,0.7,0.2,0.9-0.2,1.7
				c-0.2,0.9-0.7,1.2-1,1.1c-0.2-0.1-1.4-0.4-1.7,0.7c0,0,0.4-0.5,1-0.2c1,0.5,2.3,0.2,3.1,0.5c0.9,0.4,0.9,0.5,1.5,1.5
				c0.9-0.2,0.4-1.2,0.4-1.2s0.9,0,1.5,0.2c0.5,0.2,0.7,0.5,1.4,0c0,0-0.9,0.7-0.4,1c0,0,0-0.4,0.9-0.4c0.7,0,1.4-0.2,1.7-0.7
				c1,1,0.7,0.9,1.6,1.7c1,0.9,0.5,1,0.4,1.5c0.4-0.2,0.9-0.9,0.9-1.5c-0.2-0.7-0.7-1.2-0.7-1.2s2,0.5,2.8,0.2
				c0.4-0.2,0.7,0.2,0.7,0.2s-0.2-0.7-0.9-1c-0.7-0.2-2.6-0.2-3.3-0.7c-0.7-0.6-1.1-0.9-1.1-2.9c0-1,0.2-0.7,0.7-2
				C49.3-41,49.8-44.2,50.6-44.5z M46.7-35.9C46.5-35,45-34.7,45-34.7s0-0.4-0.9-0.2c-1,0-2.1-0.2-2.4-0.4c-0.4-0.2-0.7-1.4-0.7-1.7
				c0-0.4,0.2-0.7,0.2-1s1.4-3.7,1.4-5.7c0,0,1.9,0.5,3,0c0.2,1.5,0.2,1.4,0.4,2.9c0.2,1.5,0.2,2.1,0.7,2.5
				C47-38.3,47-36.9,46.7-35.9z"/>
		</g>
	</g>
	<g>
		<g>
			<path fill="#E26161" d="M23.5-181.9c-17.3,0-31.3,14-31.3,31.3s14,31.3,31.3,31.3s31.3-14,31.3-31.3S40.8-181.9,23.5-181.9z"/>
		</g>
		<g>
			<g>
				<path fill="#4A6067" d="M54.8-150.6c0,17.3-14,31.3-31.3,31.3s-31.3-14-31.3-31.3s14-31.3,31.3-31.3S54.8-167.9,54.8-150.6z
					 M40.4-150.6c0-0.9-0.5-1.8-1.3-2.2l-22.2-13c-0.8-0.5-1.8-0.5-2.6,0c-0.8,0.5-1.3,1.3-1.3,2.3v26.1c0,0.9,0.5,1.8,1.3,2.3
					c0.4,0.2,0.9,0.3,1.3,0.3s0.9-0.1,1.3-0.4l22.2-13C39.9-148.8,40.4-149.6,40.4-150.6z"/>
			</g>
		</g>
	</g>
	<g>
		<g>
			<path fill="#E2E561" d="M194.5-11.1c-17.3,0-31.3,14-31.3,31.3s14,31.3,31.3,31.3s31.3-14,31.3-31.3S211.8-11.1,194.5-11.1z"/>
		</g>
		<g>
			<path fill="#4A6067" d="M194.5-11.1c-17.3,0-31.3,14-31.3,31.3s14,31.3,31.3,31.3s31.3-14,31.3-31.3S211.8-11.1,194.5-11.1z
				 M193.1,31.7c0,0.7-0.6,1.4-1.4,1.4c-0.4,0-0.7-0.1-1-0.4l-7.1-7.1h-5.6c-0.7,0-1.4-0.6-1.4-1.4v-8.2c0-0.7,0.6-1.4,1.4-1.4h5.6
				l7.1-7.1c0.3-0.3,0.6-0.4,1-0.4c0.7,0,1.4,0.6,1.4,1.4V31.7z M197.5,25.3c-0.7,0-1.4-0.6-1.4-1.4c0-1.6,2.5-1.2,2.5-3.7
				c0-2.6-2.5-2.1-2.5-3.7c0-0.8,0.6-1.4,1.4-1.4c0.2,0,0.4,0,0.5,0.1c2,0.8,3.3,2.9,3.3,5c0,2.1-1.3,4.2-3.3,5
				C197.8,25.3,197.6,25.3,197.5,25.3z M199.6,30.3c-0.8,0-1.4-0.6-1.4-1.4c0-0.6,0.3-1,0.8-1.3c0.6-0.3,1.1-0.6,1.6-0.9
				c2.1-1.5,3.3-4,3.3-6.6s-1.2-5-3.3-6.6c-0.5-0.4-1-0.6-1.6-0.9c-0.5-0.3-0.8-0.7-0.8-1.3c0-0.7,0.6-1.4,1.4-1.4
				c0.2,0,0.4,0,0.6,0.1c4,1.7,6.6,5.7,6.6,10c0,4.3-2.6,8.3-6.6,10C200,30.3,199.8,30.3,199.6,30.3z M202.3,35.2
				c-0.2,0.1-0.4,0.1-0.6,0.1c-0.7,0-1.4-0.6-1.4-1.4c0-0.6,0.3-1,0.8-1.3c0.3-0.2,0.6-0.3,1-0.4c0.6-0.3,1.2-0.7,1.7-1.1
				c3.5-2.6,5.5-6.6,5.5-11c0-4.3-2.1-8.4-5.5-11c-0.6-0.4-1.1-0.8-1.7-1.1c-0.3-0.2-0.7-0.3-1-0.4c-0.5-0.3-0.8-0.6-0.8-1.3
				c0-0.7,0.6-1.4,1.4-1.4c0.2,0,0.4,0,0.6,0.1c6,2.6,9.9,8.5,9.9,15C212.2,26.7,208.3,32.6,202.3,35.2z"/>
		</g>
	</g>
	<g>
		<g>
			<path fill="#61BEE2" d="M-147.6-11.2c-17,0-30.8,13.8-30.8,30.8s13.8,30.8,30.8,30.8s30.8-13.8,30.8-30.8S-130.6-11.2-147.6-11.2
				z"/>
		</g>
		<g>
			<path fill="#4A6067" d="M-147.3,51.6c-16.9,0-30.7-13.7-30.7-30.6c0-3.5,0.7-7.2,2-10.7l3.1,1.2c-1.2,3.2-1.8,6.4-1.8,9.6
				c0,15.1,12.3,27.3,27.3,27.3c15.1,0,27.3-12.3,27.3-27.3c0-6.6-2.5-13-7-18.1l2.5-2.2c5,5.7,7.8,12.9,7.8,20.3
				C-116.7,37.9-130.4,51.6-147.3,51.6z"/>
		</g>
		<g>
			<path fill="#4A6067" d="M-160.7,30.1l6.5,6.5l20.7-20.7l14.7,14.7c1.3-3.4,2.1-7,2.1-10.9c0-17.1-13.9-31-31-31s-31,13.9-31,31
				c0,7.9,3.1,15,7.9,20.5L-160.7,30.1z M-165.9,9.4c4.3,0,7.8,3.5,7.8,7.8s-3.5,7.8-7.8,7.8c-4.3,0-7.8-3.5-7.8-7.8
				S-170.2,9.4-165.9,9.4z"/>
		</g>
	</g>
	<g>
		<g>
			<path fill="#73C8C3" d="M23.5,169.3c-17.3,0-31.3,14-31.3,31.3s14,31.3,31.3,31.3s31.3-14,31.3-31.3S40.8,169.3,23.5,169.3z"/>
		</g>
		<g>
			<path fill="#4A6067" d="M23.5,169.3c-17.3,0-31.3,14-31.3,31.3s14,31.3,31.3,31.3s31.3-14,31.3-31.3S40.8,169.3,23.5,169.3z
				 M15.3,209.9c0.3,0.3,0.3,0.8,0,1.1l-1.2,1.2c-0.3,0.3-0.8,0.3-1.1,0L1.9,201.1c-0.3-0.3-0.3-0.8,0-1.1L13,188.9
				c0.3-0.3,0.8-0.3,1.1,0l1.2,1.2c0.3,0.3,0.3,0.8,0,1.1l-9.4,9.4L15.3,209.9z M20.5,216.4c-0.1,0.4-0.5,0.6-0.9,0.5l-1.5-0.4
				c-0.4-0.1-0.6-0.5-0.5-1l8.9-30.8c0.1-0.4,0.5-0.6,0.9-0.5l1.5,0.4c0.4,0.1,0.6,0.5,0.5,1L20.5,216.4z M45.1,201.1l-11.1,11.1
				c-0.3,0.3-0.8,0.3-1.1,0l-1.2-1.2c-0.3-0.3-0.3-0.8,0-1.1l9.4-9.4l-9.4-9.4c-0.3-0.3-0.3-0.8,0-1.1l1.2-1.2
				c0.3-0.3,0.8-0.3,1.1,0L45.1,200C45.4,200.3,45.4,200.8,45.1,201.1z"/>
		</g>
	</g>
</g>
<g id="Layer_2">
</g>
</svg>
