<?xml version="1.0" encoding="utf-8"?>
<!-- Generator: Adobe Illustrator 18.1.1, SVG Export Plug-In . SVG Version: 6.00 Build 0)  -->
<svg version="1.1" xmlns="http://www.w3.org/2000/svg" xmlns:xlink="http://www.w3.org/1999/xlink" x="0px" y="0px"
	 viewBox="-450 -355 950 760" enable-background="new -450 -355 950 760" xml:space="preserve">
<g id="Layer_1">
	<g>
		<rect x="-449" y="-355" fill="#E9EEEF" width="948.1" height="760"/>
	</g>
	<g>
	</g>
	<g>
		<g>
			<path fill="#4A6067" d="M22.6-168.7c-9.7,6.3-13.4,16.3-14.4,19.4c1.3-0.8,3.9-2.2,7.4-2.2c3.4,0,5.9,1.4,7,2.2V-168.7z"/>
		</g>
		<g>
			<path fill="#4A6067" d="M25.1-169.9c10.8,7,14.4,18.1,15.1,20.8c1.1-0.8,3.5-2.2,7.1-2.2c5,0,7.9,2.8,7.9,2.8
				S48.8-168,25.1-169.9z"/>
		</g>
		<g>
			<path fill="#4A6067" d="M21.6-169.9c-23.6,2-30,21.3-30,21.3s2.9-2.8,7.9-2.8c3.4,0,5.8,1.4,7,2.2C7.3-152,11-163,21.6-169.9z"/>
		</g>
		<g>
			<path fill="#4A6067" d="M24.3-168.6v19.4c1.2-0.8,3.6-2.2,7-2.2c3.3,0,5.9,1.2,7.2,2C37.5-152.6,33.7-162.4,24.3-168.6z"/>
		</g>
		<g>
			<polygon fill="#4A6067" points="22.1,-117.5 22.1,-125.3 22.8,-125.3 22.8,-147.6 23.4,-147.2 24.1,-147.6 24.1,-125.3 
				24.8,-125.3 24.8,-117.5 			"/>
		</g>
		<g>
			<path fill="#4A6067" d="M22.5-181.6c0,0-0.4-0.1-0.9-0.1c-0.4,0.1-1,0.5-1.2,1.4s0.2,1.4,0.2,2c0.1,0.6,0.3,1.7-0.9,3.9
				s-3.9,2.9-3.9,2.9s-0.1,0.8-0.1,0.9c0,0.1-0.2,0.1-0.2,0.2s0.4,1.4,0.4,1.4s0.5-0.1,0.7-0.1c0.2,0.1,0.2,0.2,0.2,0.2
				s0.8-0.1,1,0.2c-0.2-0.1-0.2-0.1-0.3,0.1c-0.1,0.1-0.1,0.1-0.2,0.1c-0.1,0.1-0.4-0.1-0.6-0.2c-0.2-0.1-0.6,0.1-0.6,0.1l0.1,0.2
				c0,0,0.6-0.2,0.7,0.1c-0.2-0.1-0.3,0.2-0.3,0.2s1.2,0.1,1.2,0.5c-0.2-0.1-0.2,0.1-0.4,0.1c-0.2,0.1-0.8-0.5-1.3-0.3
				c-0.3,0.1,0.5,0.7,0.4,0.9c-0.5,0.2-0.5-0.8-0.8-0.9c-0.6-0.1-0.9,0.2-1.1,0.1c-0.2-0.1-0.3,0.1-0.3,0.1s-0.1-0.3,0.2-0.4
				c0.2-0.1,0.9-0.1,0.9-0.2c0.1-0.2-0.2-0.3-0.6-0.3c-0.4,0-0.7,0.2-0.9,0.1c-0.2,0-0.2,0.1-0.2,0.1s-0.1-0.2,0.2-0.4
				c0.3-0.1,1-0.1,1-0.3c0-0.3-0.5-1.3-0.5-1.3s-0.1,0-0.2-0.1c-0.2-0.1-0.3-0.6-0.3-0.6s-1,0.1-1.8-0.1c-0.9-0.2-1.4-0.4-1.4-0.4
				s-2.7,2.1-3.8,2.8c-1.1,0.7-2.7,0.9-3,0.7c-0.4-0.2,1.1-1,1.9-1.7c0.8-0.6,1.4-1.4,1.4-1.4s-0.2,0-0.2-0.2
				c0.2-0.1,0.9-0.9,0.9-0.9s-0.2-0.1-0.1-0.2c0.3-0.2,0.7-0.6,0.7-0.6s-0.2-0.1-0.1-0.2c0.4-0.2,1.4-1.1,1.4-1.1s-0.1-0.3,0.1-0.4
				c0.2-0.1,0.9-0.6,1.7-1.4c0.9-0.8,1.2-1.5,2.6-2.4c1.4-0.9,2.5-0.7,2.8-1.5c0.4-0.8,0.7-1.5,0.9-1.9s0.5-0.5,0.6-0.7
				c0.1-0.2,0.4-0.9,1.4-0.9c1-0.1,1.4,0.9,1.4,0.9s0,0,0.1,0.1c0.1,0.1,0.2,0.3,0.2,0.3S22.5-181.9,22.5-181.6z"/>
		</g>
		<g opacity="0.6" enable-background="new    ">
			<path fill="#4A6067" d="M22.6-168.7c-9.7,6.3-13.4,16.3-14.4,19.4c1.3-0.8,3.9-2.2,7.4-2.2c3.4,0,5.9,1.4,7,2.2V-168.7z"/>
		</g>
		<g opacity="0.6" enable-background="new    ">
			<path fill="#4A6067" d="M25.1-169.9c10.8,7,14.4,18.1,15.1,20.8c1.1-0.8,3.5-2.2,7.1-2.2c5,0,7.9,2.8,7.9,2.8
				S48.8-168,25.1-169.9z"/>
		</g>
		<g>
			<path fill="#4A6067" d="M31.9-172.1c0.6-0.6,1.3-2.6,1.5-3c0.2-0.4,1.1-1.5,0.4-2.7c-0.7-1.2-1.2-1.5-1.7-2.6
				c-0.5-1.1-0.3-2.8-1.7-3.2c-1.4-0.4-1.5,0.8-1.4,1.1c-0.2,0.1-0.1,0.4-0.1,0.4s-0.4,0.2-0.3,0.6c0.1-0.1,0.2-0.4,0.6-0.3
				c0.4,0.1,0.6,0.5,0.3,1.7s-0.5,1.3-0.9,1.7c-0.7,0.5-1.7,2.5-1.7,3.1c-0.5,0.2-0.7,0.1-0.9,0.1c0.1,0.4,0.8,0.5,0.8,0.5
				s-0.1,0.2-0.2,0.3c0.1,0.1,0.2,0.1,0.2,0.1s0.4,1.5,1.3,2.4c0.1,0.4,0.1,0.5,0.1,0.9c0.1,0.4,0.3,0.8,0.4,1
				c0.1,0.2,0.1,0.3-0.1,0.5c-0.1,0.3-0.2,0.4-0.3,0.4s-0.4-0.1-0.5,0.2c0,0,0.1-0.2,0.3-0.1c0.3,0.2,0.7,0.1,1,0.2
				c0.3,0.1,0.3,0.2,0.5,0.5c0.3-0.1,0.1-0.4,0.1-0.4s0.3,0,0.5,0.1c0.2,0.1,0.2,0.2,0.4,0c0,0-0.3,0.2-0.1,0.3c0,0,0-0.1,0.3-0.1
				c0.2,0,0.4-0.1,0.5-0.2c0.3,0.3,0.2,0.3,0.5,0.5c0.3,0.3,0.2,0.3,0.1,0.5c0.1-0.1,0.3-0.3,0.3-0.5c-0.1-0.2-0.2-0.4-0.2-0.4
				s0.6,0.2,0.9,0.1c0.1-0.1,0.2,0.1,0.2,0.1s-0.1-0.2-0.3-0.3c-0.2-0.1-0.8-0.1-1-0.2c-0.2-0.2-0.4-0.3-0.4-0.9
				c0-0.3,0.1-0.2,0.2-0.6C31.5-171,31.7-172,31.9-172.1z M30.7-169.4c-0.1,0.3-0.5,0.4-0.5,0.4s0-0.1-0.3-0.1
				c-0.3,0-0.7-0.1-0.7-0.1c-0.1-0.1-0.2-0.4-0.2-0.5c0-0.1,0.1-0.2,0.1-0.3s0.4-1.2,0.4-1.8c0,0,0.6,0.2,0.9,0
				c0.1,0.5,0.1,0.4,0.1,0.9c0.1,0.5,0.1,0.7,0.2,0.8C30.8-170.1,30.8-169.7,30.7-169.4z"/>
		</g>
	</g>
	<g>
		<g>
			<path fill="#E26161" d="M24-70.3c-52.8,0-95.7,42.9-95.7,95.7S-28.8,121,24,121s95.7-42.9,95.7-95.7S76.8-70.3,24-70.3z"/>
		</g>
		<g>
			<g>
				<path fill="#4A6067" d="M119.6,25.3c0,52.8-42.8,95.7-95.7,95.7s-95.7-42.9-95.7-95.7S-28.8-70.3,24-70.3S119.6-27.5,119.6,25.3
					z M75.8,25.3c0-2.9-1.5-5.5-4-6.8L4.1-21.4c-2.4-1.5-5.5-1.5-8-0.1c-2.5,1.5-4,4.1-4,7v79.7c0,2.9,1.5,5.5,4,7
					c1.2,0.6,2.6,1,4,1s2.7-0.4,4-1.1l67.8-39.9C74.3,30.8,75.8,28.2,75.8,25.3z"/>
			</g>
		</g>
	</g>
	<g>
		<g>
			<path fill="#E2E561" d="M194.4-11.5c-17.4,0-31.6,14.1-31.6,31.6s14.1,31.6,31.6,31.6S226,37.5,226,20.1S211.8-11.5,194.4-11.5z"
				/>
		</g>
		<g>
			<path fill="#4A6067" d="M194.4-11.5c-17.4,0-31.6,14.1-31.6,31.6s14.1,31.6,31.6,31.6S226,37.5,226,20.1S211.8-11.5,194.4-11.5z
				 M193,31.7c0,0.8-0.6,1.4-1.4,1.4c-0.4,0-0.7-0.1-1-0.4l-7.1-7.1h-5.6c-0.8,0-1.4-0.6-1.4-1.4v-8.2c0-0.8,0.6-1.4,1.4-1.4h5.6
				l7.1-7.1c0.3-0.3,0.6-0.4,1-0.4c0.8,0,1.4,0.6,1.4,1.4V31.7z M197.4,25.2c-0.8,0-1.4-0.6-1.4-1.4c0-1.6,2.5-1.2,2.5-3.8
				c0-2.6-2.5-2.1-2.5-3.8c0-0.8,0.6-1.4,1.4-1.4c0.2,0,0.4,0,0.5,0.1c2,0.8,3.3,2.9,3.3,5c0,2.1-1.3,4.2-3.3,5
				C197.8,25.2,197.6,25.2,197.4,25.2z M199.6,30.3c-0.8,0-1.4-0.6-1.4-1.4c0-0.6,0.3-1,0.8-1.3c0.6-0.3,1.1-0.6,1.6-0.9
				c2.1-1.5,3.4-4,3.4-6.6s-1.2-5.1-3.4-6.6c-0.5-0.4-1.1-0.6-1.6-0.9c-0.5-0.3-0.8-0.7-0.8-1.3c0-0.8,0.6-1.4,1.4-1.4
				c0.2,0,0.4,0,0.6,0.1c4,1.7,6.6,5.7,6.6,10.1c0,4.4-2.6,8.4-6.6,10.1C199.9,30.2,199.8,30.3,199.6,30.3z M202.3,35.2
				c-0.2,0.1-0.4,0.1-0.6,0.1c-0.8,0-1.4-0.6-1.4-1.4c0-0.6,0.3-1,0.8-1.3c0.3-0.2,0.6-0.3,1-0.4c0.6-0.3,1.2-0.7,1.8-1.1
				c3.5-2.6,5.6-6.7,5.6-11.1c0-4.4-2.1-8.5-5.6-11.1c-0.6-0.4-1.2-0.8-1.8-1.1c-0.3-0.2-0.7-0.3-1-0.4c-0.5-0.3-0.8-0.6-0.8-1.3
				c0-0.8,0.6-1.4,1.4-1.4c0.2,0,0.4,0,0.6,0.1c6,2.6,10,8.6,10,15.1C212.3,26.6,208.3,32.6,202.3,35.2z"/>
		</g>
	</g>
	<g>
		<g>
			<path fill="#61BEE2" d="M-147.6-11.2c-17,0-30.8,13.8-30.8,30.8s13.8,30.8,30.8,30.8s30.8-13.8,30.8-30.8S-130.6-11.2-147.6-11.2
				z"/>
		</g>
		<g>
			<path fill="#4A6067" d="M-147.3,51.6c-16.9,0-30.7-13.7-30.7-30.6c0-3.5,0.7-7.2,2-10.7l3.1,1.2c-1.2,3.2-1.8,6.4-1.8,9.6
				c0,15.1,12.3,27.3,27.3,27.3c15.1,0,27.3-12.3,27.3-27.3c0-6.6-2.5-13-7-18.1l2.5-2.2c5,5.7,7.8,12.9,7.8,20.3
				C-116.7,37.9-130.4,51.6-147.3,51.6z"/>
		</g>
		<g>
			<path fill="#4A6067" d="M-160.7,30.1l6.5,6.5l20.7-20.7l14.7,14.7c1.3-3.4,2.1-7,2.1-10.9c0-17.1-13.9-31-31-31s-31,13.9-31,31
				c0,7.9,3.1,15,7.9,20.5L-160.7,30.1z M-165.9,9.4c4.3,0,7.8,3.5,7.8,7.8s-3.5,7.8-7.8,7.8c-4.3,0-7.8-3.5-7.8-7.8
				S-170.2,9.4-165.9,9.4z"/>
		</g>
	</g>
	<g>
		<g>
			<path fill="#73C8C3" d="M23.5,169.3c-17.3,0-31.3,14-31.3,31.3s14,31.3,31.3,31.3s31.3-14,31.3-31.3S40.8,169.3,23.5,169.3z"/>
		</g>
		<g>
			<path fill="#4A6067" d="M23.5,169.3c-17.3,0-31.3,14-31.3,31.3s14,31.3,31.3,31.3s31.3-14,31.3-31.3S40.8,169.3,23.5,169.3z
				 M15.3,209.9c0.3,0.3,0.3,0.8,0,1.1l-1.2,1.2c-0.3,0.3-0.8,0.3-1.1,0L1.9,201.1c-0.3-0.3-0.3-0.8,0-1.1L13,188.9
				c0.3-0.3,0.8-0.3,1.1,0l1.2,1.2c0.3,0.3,0.3,0.8,0,1.1l-9.4,9.4L15.3,209.9z M20.5,216.4c-0.1,0.4-0.5,0.6-0.9,0.5l-1.5-0.4
				c-0.4-0.1-0.6-0.5-0.5-1l8.9-30.8c0.1-0.4,0.5-0.6,0.9-0.5l1.5,0.4c0.4,0.1,0.6,0.5,0.5,1L20.5,216.4z M45.1,201.1l-11.1,11.1
				c-0.3,0.3-0.8,0.3-1.1,0l-1.2-1.2c-0.3-0.3-0.3-0.8,0-1.1l9.4-9.4l-9.4-9.4c-0.3-0.3-0.3-0.8,0-1.1l1.2-1.2
				c0.3-0.3,0.8-0.3,1.1,0L45.1,200C45.4,200.3,45.4,200.8,45.1,201.1z"/>
		</g>
	</g>
</g>
<g id="Layer_2">
</g>
</svg>
